<svg version="1.2" xmlns="http://www.w3.org/2000/svg" viewBox="0 0 802 807" width="802" height="807"><style>.a{fill:#fff}.b{fill:#04040c}</style><path fill-rule="evenodd" class="a" d="m128.3 124.4l2.6 3q0.1 0.1 0.1 0.2 0.1 0.2 0.1 0.3 0.1 0.1 0.1 0.2 0 0.1 0 0.3 0 0.1-0.1 0.2 0 0.1-0.1 0.2 0 0.2-0.1 0.3-0.1 0.1-0.2 0.1l-1.9 1.6q-0.1 0.2-0.4 0.3-0.2 0.1-0.5 0-0.2 0-0.5-0.1-0.2-0.1-0.4-0.3l-19-22.4q0-0.1-0.1-0.2-0.1-0.1-0.1-0.2 0-0.1 0-0.3-0.1-0.1-0.1-0.2 0.1-0.1 0.1-0.3 0-0.1 0.1-0.2 0-0.1 0.1-0.2 0.1-0.1 0.2-0.2l6.2-5.2q0.9-0.9 2-1.5 1.1-0.6 2.3-1 1.2-0.4 2.4-0.5 1.2-0.2 2.5-0.1 1.2 0.1 2.4 0.4 1.2 0.3 2.4 0.8 1.1 0.6 2.1 1.3 0.9 0.8 1.7 1.8 0.5 0.5 0.9 1.1 0.4 0.5 0.8 1.1 0.3 0.7 0.6 1.3 0.2 0.7 0.4 1.3 0.2 0.7 0.3 1.4 0.1 0.7 0.2 1.3 0 0.7 0 1.4-0.1 0.7-0.2 1.4 0 0.2 0.1 0.4 0 0.3 0.1 0.5 0.1 0.1 0.3 0.3 0.2 0.1 0.4 0.2l6.6 2.1q0.2 0.1 0.3 0.2 0.1 0.1 0.3 0.2 0.1 0.1 0.1 0.3 0.1 0.1 0.1 0.3 0.1 0.2 0.1 0.3 0 0.2-0.1 0.4 0 0.1-0.1 0.3-0.1 0.1-0.3 0.2l-2.2 1.9q-0.1 0.1-0.3 0.2-0.1 0.1-0.3 0.1-0.1 0-0.3 0-0.1 0-0.3 0l-6-2q-0.2-0.1-0.4-0.1-0.2 0-0.3 0.1-0.2 0-0.4 0.1-0.1 0.1-0.2 0.3-0.2 0.2-0.4 0.4-0.1 0.1-0.3 0.3-0.2 0.2-0.4 0.4-0.2 0.1-0.4 0.3l-2.5 2.1q-0.1 0.1-0.1 0.2-0.1 0.1-0.2 0.2 0 0.1-0.1 0.2 0 0.2 0 0.3 0 0.1 0 0.2 0 0.2 0 0.3 0.1 0.1 0.2 0.2 0 0.1 0.1 0.2zm-13-17.3q-0.1 0.1-0.1 0.2-0.1 0-0.1 0.1-0.1 0-0.1 0.1 0 0.1-0.1 0.2 0 0 0 0.1 0 0.1 0 0.2 0 0.1 0 0.2 0 0 0 0.1 0 0.1 0 0.2 0 0.1 0.1 0.1 0 0.1 0.1 0.2 0 0.1 0.1 0.1l8.2 9.8q0.2 0.2 0.4 0.3 0.2 0.1 0.5 0.1 0.3 0 0.5 0 0.2-0.1 0.4-0.3l2.5-2.1q0.6-0.5 1.1-1 0.4-0.6 0.8-1.3 0.3-0.7 0.5-1.4 0.2-0.7 0.3-1.4 0.1-0.8 0-1.5-0.1-0.8-0.3-1.5-0.2-0.7-0.6-1.4-0.3-0.6-0.8-1.2-0.5-0.6-1.1-1.1-0.6-0.5-1.3-0.8-0.6-0.4-1.4-0.6-0.7-0.2-1.5-0.2-0.8-0.1-1.5 0-0.8 0.1-1.5 0.3-0.8 0.2-1.4 0.6-0.7 0.4-1.3 0.9z"/><path class="b" d="m192.2 78.9q0.1 0 0.1 0 0.1-0.1 0.1-0.1 0.1 0 0.2 0 0-0.1 0.1-0.1 0.1 0 0.1 0 0.1 0 0.1 0 0.1 0 0.2 0 0 0 0.1 0 0 0 0.1 0.1 0.1 0 0.1 0 0.1 0 0.1 0.1 0.1 0 0.1 0 0.1 0.1 0.1 0.1 0.1 0 0.1 0.1 0.1 0 0.1 0.1 0.1 0 0.1 0.1l1.2 2.1q0.1 0.1 0.2 0.2 0 0.1 0 0.2 0 0.2 0 0.3 0 0.1 0 0.3 0 0.1-0.1 0.2 0 0.1-0.1 0.2-0.1 0.1-0.2 0.2-0.1 0.1-0.2 0.2l-15.2 9.2q-0.1 0-0.2 0.1-0.1 0-0.3 0-0.1 0.1-0.2 0-0.2 0-0.3 0-0.1 0-0.2-0.1-0.1-0.1-0.2-0.1-0.1-0.1-0.2-0.2-0.1-0.1-0.2-0.2l-15.1-25q-0.1-0.1-0.1-0.2 0 0-0.1-0.1 0-0.1 0-0.2 0-0.1 0-0.2 0-0.1 0-0.1 0-0.1 0-0.2 0.1-0.1 0.1-0.2 0 0 0.1-0.1 0-0.1 0-0.2 0.1 0 0.1-0.1 0.1-0.1 0.2-0.1 0-0.1 0.1-0.1l15.2-9.1q0.2-0.1 0.5-0.2 0.3 0 0.5 0.1 0.3 0 0.5 0.2 0.2 0.1 0.3 0.3l1.3 2.1q0 0.1 0.1 0.2 0 0.2 0.1 0.3 0 0.1 0 0.3 0 0.1-0.1 0.2 0 0.1-0.1 0.3 0 0.1-0.1 0.2-0.1 0.1-0.2 0.2-0.1 0.1-0.2 0.1l-10.9 6.6q-0.1 0-0.1 0.1-0.1 0-0.2 0.1 0 0-0.1 0.1 0 0.1 0 0.1-0.1 0.1-0.1 0.2-0.1 0.1-0.1 0.1 0 0.1 0 0.2 0 0.1 0 0.2 0 0 0 0.1 0 0.1 0 0.2 0.1 0.1 0.1 0.2 0 0 0.1 0.1l3.3 5.4q0 0.1 0.1 0.2 0.1 0.1 0.2 0.2 0.1 0.1 0.2 0.1 0.2 0.1 0.3 0.1 0.1 0 0.2 0 0.2 0.1 0.3 0 0.1 0 0.3 0 0.1-0.1 0.2-0.1l6.2-3.8q0.1-0.1 0.2-0.1 0.1 0 0.3-0.1 0.1 0 0.2 0 0.1 0 0.3 0 0.1 0.1 0.2 0.1 0.1 0.1 0.2 0.2 0.1 0 0.2 0.1 0.1 0.1 0.2 0.2l1.2 2.1q0.2 0.2 0.2 0.5 0 0.2 0 0.5-0.1 0.2-0.2 0.4-0.2 0.2-0.4 0.4l-6.2 3.7q-0.1 0.1-0.2 0.2-0.1 0.1-0.2 0.2-0.1 0.1-0.1 0.2-0.1 0.1-0.1 0.2 0 0.1 0 0.3-0.1 0.1 0 0.2 0 0.2 0 0.3 0.1 0.1 0.2 0.2l2.6 4.5q0.1 0.1 0.2 0.2 0.1 0.1 0.2 0.2 0.1 0.1 0.2 0.1 0.1 0.1 0.3 0.1 0.1 0 0.2 0 0.1 0.1 0.3 0 0.1 0 0.2 0 0.1-0.1 0.3-0.1z"/><path class="b" d="m238.8 61.6v-0.1l-0.3 0.1q-1.1-0.1-2.3-0.3-1.1-0.3-2.1-0.8-1.1-0.5-2-1.3-0.9-0.7-1.6-1.6 0-0.1-0.1-0.1 0-0.1-0.1-0.2 0-0.1 0-0.2 0-0.1-0.1-0.1 0-0.1 0-0.2 0-0.1 0.1-0.2 0-0.1 0-0.2 0 0 0-0.1 0.1-0.1 0.1-0.2 0.1-0.1 0.1-0.1 0.1-0.1 0.1-0.1 0.1-0.1 0.2-0.2l2-1.4q0.1 0 0.2-0.1 0.1 0 0.2-0.1 0.1 0 0.2 0 0.2 0 0.3 0 0.1 0 0.2 0.1 0.1 0 0.2 0 0.1 0.1 0.2 0.2 0.1 0 0.2 0.1c1.9 2.1 4.3 2.6 7.2 1.4q0.2 0 0.3-0.1 0.2-0.1 0.4-0.2 0.2-0.1 0.3-0.2 0.2-0.1 0.4-0.2 0.2-0.2 0.3-0.3 0.2-0.1 0.4-0.3 0.2-0.1 0.3-0.3 0.2-0.1 0.3-0.3 0.2-0.2 0.3-0.4 0.2-0.2 0.3-0.4 0.1-0.2 0.1-0.4 0.1-0.3 0.1-0.5 0.1-0.3 0.1-0.5 0-0.3 0-0.5-0.1-0.3-0.1-0.5-0.1-0.3-0.2-0.5-0.1-0.4-0.4-0.7-0.2-0.3-0.5-0.6-0.3-0.2-0.7-0.4-0.3-0.2-0.7-0.3-0.7-0.2-1.4-0.3-0.7-0.1-1.3-0.1-0.7-0.1-1.4-0.2-0.7 0-1.4 0c-0.9 0-1.5 0-2 0-0.5-0.1-1.1-0.1-2-0.2q-0.2 0-0.5 0-0.2-0.1-0.5-0.1-0.2 0-0.5-0.1-0.2 0-0.4-0.1-0.3-0.1-0.5-0.1-0.2-0.1-0.5-0.2-0.2-0.1-0.4-0.1-0.2-0.1-0.5-0.2-0.2-0.1-0.4-0.2-0.3-0.1-0.5-0.2-0.2-0.2-0.4-0.3-0.2-0.2-0.4-0.3-0.4-0.3-0.8-0.7-0.3-0.4-0.6-0.8-0.4-0.5-0.6-0.9-0.3-0.5-0.5-1-0.1-0.3-0.2-0.7-0.1-0.4-0.2-0.7-0.1-0.4-0.1-0.8-0.1-0.4-0.1-0.8 0-0.4 0.1-0.8 0-0.4 0-0.9 0.1-0.4 0.2-0.8 0.1-0.4 0.2-0.8 0.1-0.5 0.3-1 0.2-0.4 0.5-0.9 0.2-0.4 0.5-0.8 0.3-0.4 0.7-0.7 0.4-0.4 0.9-0.8 0.5-0.4 1-0.7 0.5-0.3 1-0.6 0.5-0.3 1.1-0.5 6.6-2.7 11.7 1.5 0.1 0.1 0.2 0.2 0.1 0.1 0.1 0.2 0.1 0.1 0.1 0.3 0.1 0.1 0.1 0.2 0 0.2 0 0.3-0.1 0.1-0.1 0.3-0.1 0.1-0.1 0.2-0.1 0.1-0.2 0.2l-1.7 1.7q-0.1 0.1-0.2 0.1-0.1 0.1-0.2 0.2-0.1 0-0.2 0-0.1 0.1-0.2 0.1-0.1 0-0.3 0-0.1 0-0.2-0.1-0.1 0-0.2-0.1-0.1 0-0.2-0.1c-1.8-1.4-4-1.6-6.5-0.6q-0.2 0.1-0.4 0.2-0.2 0.1-0.4 0.2-0.2 0.1-0.4 0.2-0.2 0.1-0.4 0.3-0.2 0.1-0.3 0.2-0.1 0.1-0.3 0.2-0.1 0.2-0.2 0.3-0.1 0.1-0.2 0.3-0.1 0.1-0.2 0.2 0 0.2-0.1 0.3-0.1 0.1-0.1 0.3-0.1 0.1-0.1 0.3-0.1 0.1-0.1 0.2-0.1 0.1-0.1 0.3 0 0.1 0 0.2 0 0.1-0.1 0.3 0 0.1 0 0.2 0 0.1 0 0.2 0 0.1 0 0.2 0 0.1 0 0.3 0.1 0 0.1 0.1 0 0.1 0 0.2 0 0 0 0.1 0 0.1 0.1 0.2l0.1 0.2q0.1 0.3 0.3 0.6 0.2 0.3 0.5 0.6 0.3 0.2 0.6 0.4 0.4 0.1 0.7 0.2 0.7 0.1 1.3 0.2 0.7 0.1 1.3 0.2 0.7 0.1 1.4 0.1 0.6 0 1.3 0l2.7 0.1q0.2 0 0.4 0 0.2 0 0.4 0.1 0.2 0 0.4 0 0.1 0 0.3 0l1.4 0.3q0.2 0 0.4 0.1 0.2 0 0.3 0 0.2 0.1 0.4 0.1 0.2 0.1 0.3 0.2l1.3 0.5q0.2 0 0.3 0.1 0.2 0.1 0.3 0.2 0.2 0.1 0.3 0.2 0.2 0.1 0.3 0.2 0.5 0.4 1.1 0.9 0.1 0.2 0.3 0.3 0.1 0.2 0.2 0.3 0.2 0.2 0.3 0.3 0.1 0.2 0.2 0.3 0.1 0.2 0.2 0.4 0.1 0.2 0.2 0.4 0.1 0.2 0.2 0.4 0.1 0.2 0.2 0.4 0.4 0.9 0.5 1.9 0.2 1 0.1 2 0 0.9-0.3 1.9-0.4 0.9-0.9 1.8-0.5 0.8-1.1 1.5-0.5 0.7-1.3 1.3-0.7 0.5-1.4 1-0.8 0.5-1.7 0.8-0.6 0.2-1.1 0.4-0.6 0.2-1.2 0.4-0.6 0.1-1.3 0.2-0.6 0.1-1.2 0.1z"/><path class="b" d="m302.2 41.2q-0.1 0.1-0.2 0.1-0.1 0-0.3 0-0.1-0.1-0.2-0.1-0.2-0.1-0.3-0.1-0.1-0.1-0.2-0.2-0.1-0.1-0.1-0.2-0.1-0.1-0.1-0.2-0.1-0.1-0.1-0.2l-5.4-23.7q0-0.2 0-0.3-0.1-0.1-0.2-0.2 0-0.1-0.1-0.2-0.1-0.1-0.2-0.1-0.1-0.1-0.3-0.1-0.1-0.1-0.2-0.1-0.1 0-0.2 0-0.2 0-0.3 0l-6 1.4q-0.1 0-0.2 0-0.2 0-0.3 0-0.1 0-0.3-0.1-0.1 0-0.2-0.1-0.1-0.1-0.2-0.2-0.1 0-0.1-0.1-0.1-0.1-0.2-0.3 0-0.1 0-0.2l-0.6-2.4q0-0.2 0-0.3 0-0.1 0-0.2 0-0.2 0.1-0.3 0-0.1 0.1-0.2 0-0.1 0.1-0.2 0.1-0.1 0.2-0.2 0.1-0.1 0.2-0.1 0.2-0.1 0.3-0.1l19.4-4.4q0.1 0 0.3 0 0.1 0 0.2 0 0.2 0 0.3 0.1 0.1 0 0.2 0.1 0.1 0.1 0.2 0.1 0.1 0.1 0.2 0.2 0 0.1 0.1 0.2 0 0.2 0.1 0.3l0.5 2.4q0 0.1 0 0.2 0 0.2 0 0.3 0 0.1 0 0.2-0.1 0.2-0.1 0.3-0.1 0.1-0.2 0.2-0.1 0.1-0.2 0.1-0.1 0.1-0.2 0.2-0.1 0-0.2 0l-6 1.4q-0.2 0-0.3 0.1-0.1 0-0.2 0.1-0.1 0.1-0.2 0.2-0.1 0.1-0.2 0.2 0 0.1-0.1 0.2 0 0.1 0 0.2-0.1 0.2-0.1 0.3 0 0.1 0.1 0.3l5.3 23.6q0.1 0.2 0.1 0.3 0 0.1 0 0.3-0.1 0.1-0.1 0.2-0.1 0.1-0.1 0.2-0.1 0.2-0.2 0.2-0.1 0.1-0.2 0.2-0.1 0.1-0.2 0.1-0.1 0.1-0.2 0.1z"/><path fill-rule="evenodd" class="b" d="m362.7 27.1q-0.2 0-0.4 0.1-0.2 0-0.4 0.2-0.1 0.1-0.2 0.3-0.2 0.1-0.2 0.3l-1 3.4q-0.1 0.2-0.2 0.3-0.1 0.2-0.3 0.3-0.1 0.2-0.3 0.2-0.2 0.1-0.4 0.1l-2.6 0.1q-0.1 0-0.3 0-0.1 0-0.3-0.1-0.1-0.1-0.2-0.2-0.1-0.1-0.2-0.2-0.1-0.1-0.2-0.2-0.1-0.2-0.1-0.3 0-0.2 0-0.3 0-0.2 0-0.3l9.1-29.7q0.1-0.2 0.2-0.4 0.1-0.1 0.3-0.3 0.1-0.1 0.3-0.2 0.2 0 0.4 0l3.4-0.2q0.2 0 0.4 0 0.2 0.1 0.4 0.2 0.2 0.1 0.3 0.2 0.1 0.2 0.2 0.4l12.2 28.5q0 0.2 0.1 0.3 0 0.2 0 0.3 0 0.2-0.1 0.3 0 0.2-0.1 0.3-0.1 0.1-0.2 0.2-0.1 0.1-0.2 0.2-0.2 0.1-0.3 0.1-0.2 0.1-0.3 0.1l-2.6 0.1q-0.2 0.1-0.4 0-0.2 0-0.4-0.1-0.1-0.1-0.3-0.3-0.1-0.1-0.2-0.3l-1.3-3.3q-0.1-0.2-0.2-0.3-0.2-0.2-0.3-0.3-0.2-0.1-0.4-0.1-0.2-0.1-0.4 0zm5.5-18.8c0-0.1-0.2-0.2-0.3-0.2q-0.3 0-0.3 0.2l-3.9 12.8q-0.1 0.1-0.1 0.2 0 0 0 0.1 0 0.1 0.1 0.2 0 0 0.1 0.1 0 0.1 0.1 0.1 0 0.1 0.1 0.1 0.1 0 0.1 0.1 0.1 0 0.2 0l8.6-0.5q0.1 0 0.1 0 0.1 0 0.2-0.1 0 0 0.1-0.1 0 0 0.1-0.1 0-0.1 0.1-0.2 0 0 0-0.1 0-0.1 0-0.2 0-0.1 0-0.1z"/><path class="b" d="m447.3 31.5c-1.4 1.1-3 1.9-4.7 2.4-1.6 0.5-3.4 0.6-5.2 0.4-1.7-0.2-3.4-0.7-4.9-1.6-1.6-0.9-2.9-2.1-4-3.5q-0.8-1-1.4-2.2-0.6-1.2-1-2.5-0.3-1.3-0.4-2.7-0.1-1.3 0.1-2.7l2-17q0-0.2 0.1-0.5 0.2-0.2 0.4-0.3 0.2-0.2 0.4-0.3 0.2 0 0.5 0l2.4 0.3q0.2 0 0.3 0 0.1 0.1 0.2 0.1 0.1 0.1 0.2 0.2 0.1 0.1 0.2 0.2 0.1 0.1 0.1 0.2 0.1 0.1 0.1 0.2 0.1 0.1 0.1 0.2 0 0.2-0.1 0.3l-2 17q-0.1 0.8 0 1.7 0 0.8 0.3 1.7 0.2 0.8 0.6 1.6 0.3 0.7 0.9 1.4c0.6 0.9 1.5 1.6 2.4 2.2 1 0.5 2 0.9 3.1 1 1.1 0.2 2.2 0.1 3.3-0.3 1.1-0.3 2-0.8 2.9-1.5q0.7-0.5 1.2-1.2 0.6-0.6 1-1.4 0.4-0.7 0.6-1.5 0.3-0.9 0.4-1.7l2-17q0-0.3 0.1-0.5 0.1-0.2 0.3-0.4 0.2-0.1 0.5-0.2 0.2-0.1 0.5 0l2.4 0.3q0.1 0 0.3 0 0.1 0.1 0.2 0.1 0.1 0.1 0.2 0.2 0.1 0 0.2 0.1 0.1 0.1 0.1 0.3 0.1 0.1 0.1 0.2 0 0.1 0.1 0.3 0 0.1-0.1 0.2l-2 17q-0.1 1.4-0.5 2.7-0.4 1.2-1.1 2.4-0.6 1.2-1.5 2.2-0.9 1-1.9 1.9z"/><path fill-rule="evenodd" class="b" d="m499.8 41.3l-1.2 3.8q0 0.1-0.1 0.2 0 0.1-0.1 0.2-0.1 0.1-0.2 0.2-0.1 0.1-0.2 0.2-0.1 0-0.2 0.1-0.2 0-0.3 0-0.1 0-0.2 0-0.2 0-0.3 0l-2.4-0.8q-0.2 0-0.4-0.2-0.2-0.1-0.3-0.4-0.1-0.2-0.2-0.5 0-0.2 0.1-0.4l8.5-28.1q0-0.1 0.1-0.3 0-0.1 0.1-0.2 0.1-0.1 0.2-0.1 0.1-0.1 0.2-0.2 0.1 0 0.2-0.1 0.2 0 0.3 0 0.1 0 0.2 0 0.2 0 0.3 0l7.7 2.4q1.3 0.3 2.4 0.9 1.1 0.6 2 1.4 1 0.7 1.8 1.7 0.8 1 1.4 2.1 0.6 1 1 2.2 0.4 1.2 0.6 2.4 0.1 1.3 0 2.5-0.1 1.2-0.4 2.4-0.2 0.7-0.5 1.4-0.3 0.6-0.6 1.2-0.3 0.6-0.7 1.2-0.4 0.6-0.9 1.1-0.5 0.5-1 1-0.5 0.5-1 0.9-0.6 0.4-1.2 0.7-0.6 0.4-1.2 0.6-0.1 0.1-0.2 0.2-0.1 0-0.2 0.1-0.1 0.1-0.1 0.2-0.1 0.1-0.1 0.2-0.1 0.1-0.1 0.2-0.1 0.1-0.1 0.2 0 0.1 0 0.2 0 0.1 0.1 0.2l1.8 6.7q0 0.2 0 0.3 0 0.2 0 0.4-0.1 0.1-0.2 0.3-0.1 0.1-0.2 0.2-0.1 0.2-0.2 0.3-0.2 0-0.4 0.1-0.1 0-0.3 0-0.2 0-0.3 0l-2.8-0.9q-0.2 0-0.3-0.1-0.1-0.1-0.3-0.2-0.1-0.1-0.1-0.3-0.1-0.1-0.2-0.3l-1.6-6.1q0-0.1-0.1-0.3-0.1-0.2-0.2-0.3-0.2-0.1-0.4-0.2-0.1-0.1-0.3-0.1-0.3 0-0.5 0-0.3-0.1-0.5-0.1-0.3-0.1-0.5-0.2-0.3 0-0.5-0.1l-3.1-0.9q-0.2-0.1-0.3-0.1-0.1 0-0.2 0-0.1 0-0.3 0.1-0.1 0-0.2 0.1-0.1 0-0.2 0.1-0.1 0.1-0.2 0.2-0.1 0.1-0.1 0.2-0.1 0.1-0.1 0.2zm7.4-20.3q-0.1 0-0.3 0-0.2-0.1-0.3 0-0.2 0-0.3 0.1-0.2 0.1-0.3 0.2-0.1 0-0.1 0.1-0.1 0.1-0.1 0.1-0.1 0.1-0.1 0.2 0 0.1-0.1 0.2l-3.7 12.2q0 0.2 0 0.5 0 0.2 0.2 0.4 0.1 0.3 0.3 0.4 0.2 0.2 0.4 0.3l3.1 0.9q0.7 0.2 1.5 0.3 0.7 0.1 1.5 0 0.7 0 1.4-0.3 0.7-0.2 1.4-0.5 0.7-0.4 1.3-0.8 0.5-0.5 1-1.1 0.5-0.6 0.9-1.2 0.3-0.7 0.6-1.4 0.2-0.7 0.3-1.5 0.1-0.7 0-1.5-0.1-0.8-0.3-1.5-0.2-0.7-0.6-1.4-0.4-0.7-0.9-1.3-0.5-0.6-1.1-1.1-0.6-0.5-1.2-0.8-0.7-0.4-1.5-0.6z"/><path fill-rule="evenodd" class="b" d="m563.5 65.8q-0.2-0.1-0.4-0.1-0.2-0.1-0.4-0.1-0.2 0.1-0.4 0.2-0.2 0-0.3 0.2l-2.5 2.4q-0.2 0.2-0.4 0.3-0.2 0-0.3 0.1-0.2 0-0.4 0-0.2-0.1-0.4-0.2l-2.3-1.2q-0.2 0-0.3-0.1-0.1-0.1-0.2-0.3-0.1-0.1-0.1-0.3-0.1-0.1-0.1-0.3 0-0.1 0-0.3 0-0.1 0.1-0.3 0-0.1 0.1-0.3 0.1-0.1 0.2-0.2l22.6-21.1q0.1-0.2 0.3-0.3 0.2-0.1 0.4-0.1 0.2 0 0.4 0 0.2 0 0.4 0.1l3 1.6q0.2 0.1 0.3 0.2 0.2 0.1 0.3 0.3 0.1 0.2 0.1 0.4 0 0.2 0 0.4l-3.6 30.8q0 0.1-0.1 0.3 0 0.1-0.1 0.3-0.1 0.1-0.2 0.2-0.1 0.1-0.2 0.2-0.2 0.1-0.3 0.1-0.2 0-0.3 0-0.2 0-0.3 0-0.2 0-0.3-0.1l-2.3-1.2q-0.2-0.1-0.4-0.2-0.1-0.1-0.2-0.3-0.1-0.2-0.2-0.4 0-0.2 0-0.4l0.5-3.5q0-0.2 0-0.4-0.1-0.2-0.2-0.3-0.1-0.2-0.2-0.3-0.2-0.2-0.4-0.3zm14.1-13.5q0-0.1 0-0.1 0-0.1 0-0.1-0.1-0.1-0.1-0.1 0 0-0.1 0-0.2-0.1-0.3 0l-9.8 9.1q0 0.1-0.1 0.2 0 0-0.1 0.1 0 0.1 0 0.2 0 0 0 0.1 0 0.1 0 0.2 0.1 0 0.1 0.1 0.1 0.1 0.1 0.1 0.1 0.1 0.2 0.1l7.6 3.9q0.1 0 0.2 0 0 0.1 0.1 0.1 0.1 0 0.2-0.1 0.1 0 0.1 0 0.1 0 0.2-0.1 0-0.1 0.1-0.1 0-0.1 0.1-0.2 0 0 0-0.1z"/><path class="b" d="m636.7 104.3q0 0 0 0.1 0.1 0 0.1 0.1 0 0 0.1 0 0 0.1 0.1 0.1 0 0 0.1 0 0 0 0.1 0 0 0 0.1-0.1 0 0 0 0l11.6-15.6q0.1-0.1 0.2-0.2 0.1 0 0.2-0.1 0.1-0.1 0.2-0.1 0.2-0.1 0.3-0.1 0.1 0 0.2 0 0.1 0 0.3 0.1 0.1 0 0.2 0 0.1 0.1 0.2 0.2l2 1.4q0.2 0.2 0.3 0.4 0.2 0.2 0.2 0.5 0.1 0.2 0 0.5-0.1 0.2-0.2 0.4l-17.5 23.4q0 0.1-0.1 0.2-0.1 0.1-0.2 0.1-0.1 0.1-0.3 0.2-0.1 0-0.2 0-0.1 0-0.3 0-0.1 0-0.2 0-0.1 0-0.2-0.1-0.2-0.1-0.3-0.1l-1-0.8q-0.1-0.1-0.2-0.2-0.1-0.1-0.1-0.2-0.1-0.2-0.1-0.3-0.1-0.2-0.1-0.3l-1.3-25.8q0 0 0-0.1 0 0 0-0.1-0.1 0-0.1-0.1-0.1 0-0.1 0-0.1 0-0.1 0-0.1 0-0.1 0-0.1 0-0.1 0-0.1 0.1-0.1 0.1l-11.3 15.2q-0.1 0.1-0.2 0.2-0.1 0.1-0.2 0.1-0.1 0.1-0.2 0.1-0.1 0.1-0.2 0.1-0.2 0-0.3 0-0.1 0-0.2 0-0.2 0-0.3-0.1-0.1-0.1-0.2-0.1l-2-1.5q-0.2-0.2-0.3-0.4-0.2-0.2-0.2-0.5 0-0.2 0.1-0.5 0-0.2 0.2-0.4l17.4-23.4q0.1-0.1 0.2-0.2 0.1-0.1 0.2-0.1 0.1-0.1 0.2-0.1 0.1-0.1 0.2-0.1 0.2 0 0.3 0 0.1 0 0.2 0 0.2 0.1 0.3 0.1 0.1 0.1 0.2 0.1l0.7 0.6q0.1 0.1 0.2 0.2 0.1 0.1 0.2 0.2 0 0.1 0.1 0.3 0 0.1 0 0.3z"/><path class="b" d="m672.6 151.2q-0.2-0.2-0.3-0.5-0.1-0.2-0.1-0.4 0-0.3 0.1-0.5 0.1-0.3 0.3-0.4l17.5-16.9q0.1-0.1 0.2-0.2 0.1-0.1 0.1-0.2 0.1-0.1 0.1-0.2 0-0.2 0-0.3 0-0.1 0-0.2 0-0.1-0.1-0.3 0-0.1-0.1-0.2-0.1-0.1-0.2-0.2l-4.2-4.4q-0.1-0.1-0.2-0.2-0.1-0.1-0.1-0.3-0.1-0.1-0.1-0.2 0-0.1 0-0.3 0-0.1 0-0.2 0.1-0.1 0.1-0.2 0.1-0.2 0.1-0.3 0.1-0.1 0.2-0.1l1.8-1.8q0.1-0.1 0.2-0.1 0.1-0.1 0.2-0.1 0.1-0.1 0.2-0.1 0.2 0 0.3 0 0.1 0 0.2 0 0.2 0 0.3 0.1 0.1 0 0.2 0.1 0.1 0.1 0.2 0.2l13.8 14.3q0.1 0.1 0.2 0.2 0 0.1 0.1 0.3 0 0.1 0 0.2 0.1 0.1 0 0.3 0 0.1 0 0.2 0 0.1 0 0.2-0.1 0.2-0.2 0.3 0 0.1-0.1 0.1l-1.8 1.7q-0.1 0.1-0.2 0.2-0.1 0.1-0.2 0.1-0.2 0.1-0.3 0.1-0.1 0-0.2 0-0.2 0-0.3 0-0.1 0-0.2-0.1-0.1 0-0.3-0.1-0.1-0.1-0.1-0.2l-4.3-4.4q-0.1-0.1-0.2-0.2-0.1-0.1-0.2-0.1-0.1-0.1-0.3-0.1-0.1 0-0.2 0-0.1 0-0.3 0-0.1 0-0.2 0.1-0.1 0-0.2 0.1-0.1 0-0.2 0.1l-17.5 16.9q-0.1 0.1-0.2 0.2-0.1 0-0.2 0.1-0.1 0-0.3 0-0.1 0.1-0.2 0.1-0.2-0.1-0.3-0.1-0.1 0-0.2-0.1-0.1 0-0.2-0.1-0.1-0.1-0.2-0.1z"/><path class="b" d="m72.4 620.5q-0.1-0.2-0.3-0.3-0.3-0.2-0.5-0.2-0.3-0.1-0.5 0-0.3 0.1-0.5 0.2l-7.8 5.2q-0.2 0.1-0.4 0.2-0.3 0-0.5 0-0.3-0.1-0.5-0.2-0.2-0.2-0.3-0.4l-1.4-2q-0.1-0.1-0.1-0.2-0.1-0.1-0.1-0.2 0-0.1 0-0.3 0-0.1 0-0.2 0-0.1 0.1-0.3 0-0.1 0.1-0.2 0.1-0.1 0.2-0.2 0.1-0.1 0.2-0.1l24.3-16.3q0.1-0.1 0.3-0.1 0.1-0.1 0.2-0.1 0.1 0 0.3 0 0.1 0 0.2 0 0.2 0 0.3 0.1 0.1 0 0.2 0.1 0.1 0 0.2 0.1 0.1 0.1 0.1 0.2l10.5 15.7q0 0.1 0.1 0.1 0 0.1 0 0.2 0 0.1 0.1 0.2 0 0 0 0.1 0 0.1 0 0.2 0 0.1-0.1 0.2 0 0 0 0.1 0 0.1-0.1 0.2 0 0.1-0.1 0.1 0 0.1-0.1 0.2 0 0-0.1 0.1 0 0.1-0.1 0.1l-2 1.3q-0.1 0.1-0.2 0.2-0.2 0-0.3 0-0.1 0.1-0.3 0.1-0.1 0-0.2-0.1-0.1 0-0.2 0-0.2-0.1-0.3-0.2-0.1 0-0.2-0.1-0.1-0.1-0.1-0.2l-7.7-11.5q-0.1-0.1-0.1-0.2-0.1-0.1-0.2-0.2-0.1 0-0.2-0.1-0.2 0-0.3 0-0.1-0.1-0.2-0.1-0.2 0-0.3 0-0.1 0.1-0.3 0.1-0.1 0.1-0.2 0.1l-6 4.1q-0.1 0.1-0.2 0.2-0.1 0-0.2 0.2 0 0.1-0.1 0.2 0 0.1 0 0.2-0.1 0.1-0.1 0.3 0 0.1 0.1 0.2 0 0.1 0 0.2 0.1 0.2 0.1 0.3l4.4 6.5q0.1 0.1 0.1 0.3 0.1 0.1 0.1 0.2 0 0.1 0 0.2 0 0.2 0 0.3 0 0.1-0.1 0.2 0 0.1-0.1 0.3-0.1 0.1-0.2 0.1 0 0.1-0.2 0.2l-2 1.4q-0.1 0-0.2 0.1-0.1 0-0.2 0.1-0.2 0-0.3 0-0.1 0-0.3-0.1-0.1 0-0.2 0-0.1-0.1-0.2-0.1-0.1-0.1-0.2-0.2-0.1-0.1-0.1-0.2z"/><path fill-rule="evenodd" class="b" d="m87.3 652.8l-3.1 2.5q-0.1 0.1-0.2 0.2-0.1 0-0.3 0.1-0.1 0-0.2 0-0.1 0-0.3 0-0.1 0-0.2 0-0.1-0.1-0.2-0.1-0.1-0.1-0.2-0.2-0.1-0.1-0.2-0.2l-1.6-1.9q-0.1-0.2-0.2-0.4-0.1-0.3-0.1-0.5 0.1-0.3 0.2-0.5 0.1-0.2 0.3-0.4l22.8-18.5q0.1 0 0.2-0.1 0.1-0.1 0.2-0.1 0.1 0 0.3 0 0.1-0.1 0.2 0 0.1 0 0.3 0 0.1 0 0.2 0.1 0.1 0.1 0.2 0.1 0.1 0.1 0.2 0.2l5.1 6.3q0.8 1 1.4 2.1 0.6 1.1 1 2.3 0.3 1.2 0.4 2.4 0.2 1.2 0.1 2.5-0.1 1.2-0.5 2.4-0.3 1.2-0.9 2.3-0.5 1.1-1.3 2.1-0.8 1-1.8 1.8-0.5 0.4-1.1 0.8-0.6 0.4-1.2 0.7-0.6 0.3-1.3 0.6-0.6 0.2-1.3 0.4-0.7 0.2-1.4 0.3-0.6 0.1-1.3 0.1-0.7 0-1.4 0-0.7-0.1-1.4-0.2-0.1 0-0.2 0-0.1 0-0.2 0-0.1 0-0.3 0.1-0.1 0-0.2 0.1-0.1 0-0.2 0.1 0 0.1-0.1 0.2-0.1 0.1-0.1 0.2-0.1 0-0.1 0.1l-2.3 6.6q0 0.2-0.1 0.3-0.1 0.1-0.2 0.3-0.2 0.1-0.3 0.1-0.2 0.1-0.4 0.1-0.1 0.1-0.3 0-0.2 0-0.3 0-0.2-0.1-0.3-0.2-0.1-0.1-0.3-0.2l-1.8-2.3q-0.1-0.1-0.2-0.2 0-0.2-0.1-0.3 0-0.2 0-0.4 0-0.1 0.1-0.3l2-6q0.1-0.2 0.1-0.4 0-0.1 0-0.3 0-0.2-0.2-0.4-0.1-0.1-0.2-0.3-0.2-0.1-0.4-0.3-0.2-0.2-0.3-0.3-0.2-0.2-0.4-0.4-0.2-0.2-0.3-0.4l-2.1-2.5q-0.1-0.1-0.2-0.2-0.1-0.1-0.2-0.1-0.1-0.1-0.2-0.1-0.1 0-0.2-0.1-0.2 0-0.3 0-0.1 0-0.2 0.1-0.1 0-0.2 0.1-0.2 0-0.2 0.1zm17.5-12.6q0-0.1-0.1-0.1 0-0.1-0.1-0.1-0.1-0.1-0.1-0.1-0.1-0.1-0.2-0.1-0.1 0-0.1 0-0.1-0.1-0.2-0.1-0.1 0-0.2 0-0.1 0-0.1 0-0.1 0-0.2 0.1-0.1 0-0.2 0-0.1 0.1-0.1 0.1-0.1 0-0.2 0.1l-9.9 8.1q-0.1 0-0.2 0.1 0 0.1-0.1 0.2-0.1 0.2-0.1 0.3 0 0.1 0 0.2 0 0.1 0 0.3 0 0.1 0 0.2 0 0.1 0.1 0.2 0 0.2 0.1 0.3l2.1 2.5q0.5 0.6 1 1.1 0.6 0.5 1.3 0.8 0.6 0.4 1.3 0.6 0.8 0.2 1.5 0.3 0.7 0.1 1.5 0 0.7-0.1 1.5-0.3 0.7-0.2 1.4-0.5 0.6-0.3 1.2-0.8 0.6-0.5 1.1-1.1 0.5-0.5 0.9-1.2 0.3-0.7 0.6-1.4 0.2-0.8 0.2-1.5 0.1-0.8 0.1-1.6-0.1-0.7-0.3-1.5-0.3-0.7-0.6-1.4-0.4-0.7-0.9-1.3z"/><path fill-rule="evenodd" class="b" d="m121.7 695.8q-1.9-0.4-3.7-1.4-1.7-0.9-3.1-2.3-1.4-1.4-2.4-3.2-1-1.7-1.4-3.7-0.2-0.9-0.3-2-0.1-1-0.1-2 0-1 0.2-2 0.2-1 0.5-2 0.6-2 1.7-3.8 1.1-1.8 2.6-3.3 1.5-1.5 3.3-2.6 1.8-1.1 3.8-1.7 1-0.4 2-0.5 1-0.2 2-0.2 1-0.1 2 0 1 0.1 2 0.3 1.7 0.4 3.3 1.2 1.5 0.8 2.8 1.9 1.4 1.2 2.4 2.6 0.9 1.4 1.6 3.1 0.2 0.7 0.4 1.4 0.2 0.7 0.4 1.4 0.1 0.8 0.1 1.5 0.1 0.7 0.1 1.5-0.1 0.7-0.2 1.5-0.1 0.7-0.3 1.5-0.1 0.7-0.4 1.5-0.2 0.7-0.5 1.4-0.8 1.7-1.9 3.2-1.1 1.5-2.4 2.8-1.4 1.2-3 2.1-1.7 0.9-3.4 1.5-1 0.3-2 0.5-1 0.1-2 0.2-1.1 0-2.1-0.1-1-0.1-2-0.3zm15.1-15.8c0.1-1.3-0.1-2.7-0.5-3.9-0.5-1.3-1.2-2.4-2.2-3.4-0.9-0.9-2.1-1.7-3.3-2.1-1.3-0.5-2.7-0.6-4-0.5-1.4 0.1-2.8 0.5-4.1 1.1-1.3 0.6-2.5 1.4-3.5 2.4-1 1-1.8 2.2-2.4 3.5-0.6 1.3-1 2.7-1.1 4.1-0.1 1.4 0.1 2.7 0.5 4 0.5 1.2 1.2 2.4 2.2 3.3 0.9 1 2.1 1.7 3.4 2.2 1.2 0.4 2.6 0.6 3.9 0.5 1.4-0.2 2.8-0.5 4.1-1.1 1.3-0.6 2.5-1.5 3.5-2.5 1-1 1.9-2.2 2.4-3.5 0.6-1.3 1-2.7 1.1-4.1z"/><path class="b" d="m154.6 703.1q0-0.1 0-0.3-0.1-0.1-0.2-0.2-0.2-0.1-0.3 0-0.2 0-0.3 0.1l-11.4 12.4q-0.1 0.1-0.2 0.2-0.1 0-0.2 0.1-0.1 0-0.2 0.1-0.1 0-0.3 0-0.1 0-0.2 0-0.1 0-0.2 0-0.1-0.1-0.3-0.1-0.1-0.1-0.1-0.2l-2-1.5q-0.2-0.1-0.3-0.4-0.1-0.2-0.2-0.5 0-0.2 0.1-0.5 0.1-0.2 0.3-0.4l19.8-21.5q0.1-0.1 0.2-0.2 0.1-0.1 0.2-0.1 0.1-0.1 0.2-0.1 0.1 0 0.2 0 0.1-0.1 0.3 0 0.1 0 0.2 0 0.1 0 0.2 0.1 0.1 0 0.2 0.1l0.8 0.7q0.2 0.1 0.3 0.2 0.1 0.1 0.2 0.3 0 0.2 0.1 0.3 0 0.2-0.1 0.4l-3.2 20q0 0 0 0.1 0 0 0 0.1 0 0.1 0.1 0.1 0 0.1 0 0.1 0.1 0 0.1 0 0.1 0.1 0.2 0.1 0 0 0.1 0 0 0 0.1-0.1l18.6-8q0.2 0 0.4 0 0.2-0.1 0.3 0 0.2 0 0.4 0.1 0.1 0 0.2 0.1l0.9 0.7q0.2 0.1 0.3 0.4 0.1 0.2 0.2 0.4 0 0.2-0.1 0.5 0 0.2-0.1 0.4l-16.2 24.4q0 0.1-0.1 0.2-0.1 0.1-0.2 0.2-0.2 0.1-0.3 0.1-0.1 0.1-0.2 0.1-0.2 0-0.3 0-0.1 0-0.3 0-0.1-0.1-0.2-0.1-0.1-0.1-0.2-0.2l-1.9-1.4q-0.1-0.1-0.2-0.2-0.1-0.1-0.1-0.2-0.1-0.1-0.1-0.2-0.1-0.1-0.1-0.2 0-0.2 0-0.3 0-0.1 0-0.2 0.1-0.1 0.1-0.3 0.1-0.1 0.1-0.2l9.3-14q0.1-0.1 0.1-0.1 0-0.1 0-0.2 0-0.1 0-0.1 0-0.1-0.1-0.2 0 0-0.1-0.1-0.1 0-0.1 0-0.1 0-0.2 0-0.1 0-0.1 0l-14.6 6.2q-0.4 0.2-0.7 0.1-0.4 0-0.6-0.2-0.3-0.3-0.4-0.6-0.2-0.3-0.1-0.7z"/><path fill-rule="evenodd" class="b" d="m203.9 752.3l-1.9 3.5q-0.1 0.1-0.1 0.2-0.1 0.1-0.2 0.2-0.1 0.1-0.2 0.1-0.1 0.1-0.3 0.1-0.1 0.1-0.2 0.1-0.1 0-0.3 0-0.1 0-0.2-0.1-0.1 0-0.3-0.1l-2.1-1.1q-0.1-0.1-0.2-0.2-0.1 0-0.2-0.1-0.1-0.1-0.1-0.2-0.1-0.2-0.1-0.3-0.1-0.1-0.1-0.2 0-0.2 0-0.3 0-0.1 0.1-0.2 0-0.2 0.1-0.3l13.8-25.8q0.1-0.1 0.2-0.2 0-0.1 0.1-0.2 0.1-0.1 0.2-0.1 0.1-0.1 0.3-0.1 0.1-0.1 0.2-0.1 0.1 0 0.3 0 0.1 0 0.2 0 0.1 0.1 0.3 0.2l7.1 3.8q1.1 0.5 2.1 1.3 1 0.8 1.8 1.8 0.8 0.9 1.4 2 0.5 1.1 0.9 2.3 0.4 1.2 0.6 2.4 0.1 1.3 0 2.5-0.1 1.2-0.4 2.4-0.4 1.2-0.9 2.3-0.4 0.7-0.8 1.2-0.3 0.6-0.8 1.2-0.4 0.5-1 1-0.5 0.5-1 0.9-0.6 0.4-1.2 0.8-0.6 0.3-1.2 0.6-0.6 0.3-1.3 0.5-0.6 0.3-1.3 0.4-0.1 0-0.2 0.1-0.1 0-0.2 0.1-0.1 0.1-0.2 0.1-0.1 0.1-0.1 0.2-0.1 0.1-0.1 0.2-0.1 0.1-0.1 0.2-0.1 0.1-0.1 0.2 0 0.1 0 0.2l0.5 6.9q0 0.2 0 0.4-0.1 0.1-0.2 0.3 0 0.1-0.2 0.3-0.1 0.1-0.2 0.2-0.2 0.1-0.3 0.1-0.2 0.1-0.4 0.1-0.1 0-0.3 0-0.2-0.1-0.3-0.2l-2.6-1.3q-0.1-0.1-0.2-0.2-0.1-0.1-0.2-0.2-0.1-0.2-0.2-0.3 0-0.2 0-0.3l-0.4-6.3q0-0.2-0.1-0.4-0.1-0.2-0.2-0.3-0.1-0.2-0.2-0.3-0.2-0.1-0.4-0.2-0.2 0-0.5-0.1-0.2-0.1-0.4-0.2-0.3-0.1-0.5-0.2-0.2-0.1-0.4-0.2l-2.9-1.6q-0.1 0-0.2-0.1-0.2 0-0.3 0-0.1 0-0.2 0-0.2 0-0.3 0-0.1 0.1-0.2 0.1-0.1 0.1-0.2 0.1-0.1 0.1-0.2 0.2-0.1 0.1-0.1 0.2zm11.3-18.4q-0.1-0.1-0.1-0.1-0.1 0-0.2 0-0.1-0.1-0.2-0.1 0 0-0.1 0-0.1 0-0.2 0-0.1 0.1-0.1 0.1-0.1 0-0.2 0-0.1 0.1-0.2 0.1 0 0-0.1 0.1-0.1 0.1-0.1 0.1-0.1 0.1-0.1 0.2-0.1 0-0.1 0.1l-6 11.3q-0.1 0.1-0.1 0.2-0.1 0.1-0.1 0.3 0 0.1 0 0.2 0.1 0.1 0.1 0.3 0 0.1 0.1 0.2 0 0.1 0.1 0.2 0.1 0.1 0.2 0.2 0.1 0.1 0.2 0.1l2.9 1.6q0.6 0.3 1.4 0.6 0.7 0.2 1.4 0.3 0.8 0 1.5 0 0.7-0.1 1.5-0.3 0.7-0.2 1.4-0.6 0.6-0.3 1.2-0.8 0.6-0.4 1.1-1 0.5-0.6 0.8-1.2 0.4-0.7 0.6-1.4 0.3-0.8 0.4-1.5 0-0.8-0.1-1.6 0-0.7-0.3-1.5-0.2-0.7-0.6-1.4-0.3-0.7-0.8-1.3-0.5-0.6-1.1-1.1-0.6-0.4-1.3-0.8z"/><path fill-rule="evenodd" class="b" d="m252.3 778.6q-2 0.4-3.9 0.2-2-0.2-3.9-1-1.8-0.7-3.4-1.9-1.5-1.3-2.7-2.9-0.6-0.8-1.1-1.7-0.4-0.9-0.8-1.9-0.4-0.9-0.6-1.9-0.2-1-0.3-2-0.2-2.1 0.1-4.2 0.3-2.1 1.1-4.1 0.8-1.9 2-3.6 1.2-1.7 2.9-3.1 0.7-0.7 1.6-1.2 0.8-0.6 1.8-1 0.9-0.4 1.8-0.7 1-0.3 2-0.5 1.7-0.3 3.5-0.2 1.7 0.1 3.4 0.7 1.6 0.5 3.1 1.4 1.5 1 2.7 2.2 0.5 0.6 0.9 1.2 0.5 0.6 0.9 1.2 0.4 0.6 0.7 1.3 0.3 0.7 0.6 1.3 0.3 0.8 0.5 1.5 0.2 0.7 0.3 1.5 0.1 0.8 0.2 1.5 0 0.8 0 1.6 0 1.8-0.4 3.6-0.5 1.8-1.3 3.5-0.7 1.7-1.9 3.2-1.1 1.4-2.5 2.6-0.8 0.7-1.7 1.2-0.8 0.6-1.7 1-1 0.5-1.9 0.8-1 0.3-2 0.4zm7.8-20.4c-0.4-1.3-1.1-2.4-2-3.4-0.9-1-2.1-1.8-3.3-2.3-1.2-0.5-2.6-0.7-3.9-0.6-1.3 0-2.6 0.4-3.8 1-1.3 0.7-2.4 1.6-3.4 2.6-1 1.1-1.7 2.3-2.3 3.6-0.5 1.4-0.8 2.8-0.8 4.2-0.1 1.4 0.1 2.9 0.6 4.2 0.4 1.3 1.1 2.4 2 3.4 0.9 1 2 1.8 3.2 2.3 1.3 0.5 2.6 0.7 4 0.6 1.3 0 2.6-0.4 3.8-1 1.3-0.7 2.4-1.5 3.4-2.6 0.9-1.1 1.7-2.3 2.2-3.6 0.6-1.3 0.9-2.8 0.9-4.2 0.1-1.4-0.2-2.8-0.6-4.2z"/><path class="b" d="m285.4 772.6q0-0.1 0-0.1-0.1-0.1-0.1-0.2-0.1 0-0.1 0-0.1-0.1-0.2-0.1-0.1 0-0.1 0-0.1 0.1-0.2 0.1 0 0-0.1 0.1 0 0.1-0.1 0.1l-5.7 15.9q0 0.2-0.2 0.4-0.2 0.2-0.4 0.3-0.2 0.1-0.4 0.1-0.3 0.1-0.5 0l-2.4-0.6q-0.1-0.1-0.2-0.1-0.1-0.1-0.2-0.2-0.1-0.1-0.2-0.2-0.1-0.1-0.2-0.2 0-0.1-0.1-0.2 0-0.1 0-0.3 0-0.1 0-0.2 0-0.2 0.1-0.3l9.9-27.5q0-0.1 0.1-0.2 0.1-0.1 0.1-0.2 0.1-0.1 0.2-0.2 0.1-0.1 0.2-0.1 0.1-0.1 0.2-0.1 0.1-0.1 0.3-0.1 0.1 0 0.2 0 0.1 0 0.2 0.1l1 0.2q0.2 0.1 0.4 0.2 0.1 0.1 0.2 0.2 0.2 0.1 0.2 0.2 0.1 0.2 0.2 0.4l4.8 19.7q0 0 0 0.1 0 0 0.1 0.1 0 0 0.1 0.1 0 0 0.1 0 0 0 0.1 0 0 0 0.1 0 0.1 0 0.1 0 0.1-0.1 0.1-0.1l14.1-14.6q0.1-0.2 0.3-0.2 0.1-0.1 0.3-0.2 0.1 0 0.3 0 0.2 0 0.4 0.1l1 0.2q0.1 0.1 0.2 0.1 0.1 0.1 0.2 0.1 0.1 0.1 0.2 0.2 0.1 0.1 0.1 0.2 0.1 0.1 0.1 0.2 0.1 0.1 0.1 0.2 0 0.2 0.1 0.3 0 0.1-0.1 0.2l-5.3 28.8q-0.1 0.1-0.1 0.2-0.1 0.1-0.1 0.2-0.1 0.2-0.2 0.2-0.1 0.1-0.2 0.2-0.1 0.1-0.3 0.1-0.1 0.1-0.2 0.1-0.1 0-0.3 0-0.1 0-0.2-0.1l-2.4-0.6q-0.2-0.1-0.4-0.2-0.2-0.2-0.3-0.4-0.2-0.2-0.2-0.4-0.1-0.2 0-0.5l3-16.5q0.1-0.1 0.1-0.2 0 0-0.1-0.1 0-0.1 0-0.1-0.1-0.1-0.2-0.1 0-0.1-0.1-0.1-0.1 0-0.2 0 0 0-0.1 0.1 0 0-0.1 0.1l-11 11.4q-0.2 0.1-0.3 0.2-0.1 0.1-0.3 0.1-0.2 0.1-0.4 0.1-0.1 0-0.3-0.1-0.2 0-0.3-0.1-0.2-0.1-0.3-0.2-0.1-0.1-0.2-0.3-0.1-0.1-0.1-0.3z"/><path class="b" d="m341 797.9q0.1 0 0.3 0 0.1 0.1 0.2 0.2 0.1 0 0.2 0.1 0.1 0.1 0.2 0.2 0.1 0.1 0.1 0.2 0.1 0.1 0.1 0.3 0 0.1 0 0.2 0 0.2 0 0.3l-0.4 2.4q0 0.1 0 0.3-0.1 0.1-0.1 0.2-0.1 0.1-0.2 0.2-0.1 0.1-0.2 0.1-0.1 0.1-0.2 0.2-0.1 0-0.3 0.1-0.1 0-0.2 0-0.1 0-0.3 0l-17.5-2.7q-0.3-0.1-0.5-0.2-0.2-0.2-0.3-0.4-0.2-0.2-0.2-0.4-0.1-0.2-0.1-0.5l4.5-28.9q0-0.1 0.1-0.2 0-0.2 0.1-0.3 0-0.1 0.1-0.2 0.1-0.1 0.2-0.1 0.1-0.1 0.2-0.2 0.1 0 0.3 0 0.1-0.1 0.2-0.1 0.1 0 0.2 0l17.6 2.7q0.1 0.1 0.2 0.1 0.1 0.1 0.3 0.1 0.1 0.1 0.2 0.2 0.1 0 0.1 0.1 0.1 0.2 0.2 0.3 0 0.1 0.1 0.2 0 0.2 0 0.3 0 0.1 0 0.2l-0.4 2.5q0 0.1-0.1 0.2 0 0.1-0.1 0.2 0 0.1-0.1 0.2-0.1 0.1-0.2 0.2-0.1 0.1-0.2 0.1-0.2 0.1-0.3 0.1-0.1 0.1-0.2 0.1-0.2 0-0.3-0.1l-12.6-2q-0.1 0-0.2 0-0.2 0-0.3 0.1-0.1 0-0.2 0-0.1 0.1-0.2 0.2-0.1 0-0.2 0.1-0.1 0.1-0.2 0.2 0 0.1-0.1 0.3 0 0.1 0 0.2l-1 6.3q-0.1 0.1-0.1 0.3 0 0.1 0.1 0.2 0 0.2 0 0.3 0.1 0.1 0.2 0.2 0.1 0.1 0.2 0.2 0 0.1 0.2 0.1 0.1 0.1 0.2 0.1 0.1 0.1 0.2 0.1l7.2 1.1q0.2 0 0.5 0.2 0.2 0.1 0.3 0.3 0.2 0.2 0.2 0.5 0.1 0.2 0.1 0.5l-0.4 2.4q0 0.1-0.1 0.2 0 0.1-0.1 0.3 0 0.1-0.1 0.2-0.1 0-0.2 0.1-0.1 0.1-0.2 0.1-0.2 0.1-0.3 0.1-0.1 0.1-0.2 0.1-0.1 0-0.3-0.1l-7.1-1.1q-0.2 0-0.3 0-0.1 0-0.2 0.1-0.2 0-0.3 0-0.1 0.1-0.2 0.2-0.1 0.1-0.2 0.1-0.1 0.1-0.1 0.2-0.1 0.1-0.1 0.3-0.1 0.1-0.1 0.2l-0.8 5.3q0 0.1 0 0.2 0 0.1 0 0.3 0 0.1 0.1 0.2 0.1 0.1 0.1 0.2 0.1 0.1 0.2 0.2 0.1 0.1 0.2 0.1 0.1 0.1 0.2 0.1 0.1 0.1 0.3 0.1z"/><path class="b" d="m391.8 806.2q-0.1 0-0.2 0-0.2-0.1-0.3-0.1-0.1-0.1-0.2-0.1-0.1-0.1-0.2-0.2-0.1-0.1-0.2-0.2 0-0.1-0.1-0.2 0-0.1-0.1-0.2 0-0.2 0-0.3l-0.4-24.3q0-0.1 0-0.2 0-0.1-0.1-0.3 0-0.1-0.1-0.2-0.1-0.1-0.2-0.2-0.1-0.1-0.2-0.1-0.1-0.1-0.2-0.1-0.1-0.1-0.2-0.1-0.1 0-0.3 0l-6.2 0.1q-0.1 0-0.2 0-0.1-0.1-0.3-0.1-0.1-0.1-0.2-0.1-0.1-0.1-0.2-0.2-0.1-0.1-0.1-0.2-0.1-0.1-0.2-0.2 0-0.1 0-0.2 0-0.1 0-0.3l-0.1-2.5q0-0.1 0-0.2 0-0.1 0.1-0.2 0-0.2 0.1-0.3 0.1-0.1 0.2-0.2 0-0.1 0.1-0.1 0.1-0.1 0.3-0.2 0.1 0 0.2 0 0.1-0.1 0.3-0.1l19.9-0.3q0.1 0 0.2 0 0.2 0.1 0.3 0.1 0.1 0 0.2 0.1 0.1 0.1 0.2 0.2 0.1 0.1 0.1 0.2 0.1 0.1 0.2 0.2 0 0.1 0 0.2 0.1 0.1 0.1 0.3v2.4q0 0.1 0 0.3-0.1 0.1-0.1 0.2-0.1 0.1-0.1 0.3-0.1 0.1-0.2 0.2-0.1 0.1-0.2 0.1-0.1 0.1-0.2 0.2-0.1 0-0.2 0-0.2 0.1-0.3 0.1l-6.2 0.1q-0.1 0-0.2 0-0.1 0-0.3 0.1-0.1 0-0.2 0.1-0.1 0-0.2 0.1-0.1 0.1-0.1 0.2-0.1 0.1-0.1 0.3-0.1 0.1-0.1 0.2 0 0.1 0 0.2l0.4 24.3q0 0.3-0.1 0.5-0.1 0.3-0.3 0.4-0.2 0.2-0.4 0.3-0.2 0.1-0.5 0.1z"/><path fill-rule="evenodd" class="b" d="m440.5 801.4q-0.8 0.6-1.6 1.1-0.9 0.5-1.8 0.8-0.9 0.4-1.9 0.7-0.9 0.2-1.9 0.3-1 0.1-2 0.1-1-0.1-2-0.2-0.9-0.2-1.9-0.5-0.9-0.3-1.8-0.8-0.9-0.4-1.7-1-0.9-0.6-1.6-1.2-0.8-0.7-1.5-1.5-0.6-0.7-1.2-1.6-1.2-1.7-1.9-3.7-0.7-2-0.9-4.1-0.2-2.1 0.1-4.2 0.2-2.1 1-4.1 0.4-0.9 0.9-1.8 0.5-0.9 1.1-1.7 0.6-0.8 1.3-1.6 0.7-0.7 1.5-1.3 1.4-1.1 3-1.8 1.6-0.7 3.3-1 1.7-0.3 3.5-0.2 1.7 0.2 3.4 0.7 0.7 0.3 1.3 0.6 0.7 0.3 1.4 0.6 0.6 0.4 1.2 0.8 0.6 0.5 1.2 0.9 0.5 0.6 1.1 1.1 0.5 0.6 0.9 1.2 0.5 0.6 0.9 1.2 0.4 0.7 0.8 1.3 0.8 1.7 1.3 3.5 0.5 1.8 0.6 3.7 0.1 1.8-0.2 3.7-0.4 1.8-1 3.5-0.4 1-0.9 1.9-0.5 0.9-1.1 1.7-0.6 0.8-1.4 1.5-0.7 0.7-1.5 1.4zm-2.7-21.7c-1-1-2.1-1.7-3.4-2.1-1.3-0.5-2.6-0.6-4-0.5-1.3 0.2-2.6 0.6-3.7 1.3-1.2 0.7-2.2 1.6-2.9 2.7-0.8 1.2-1.4 2.5-1.8 3.9-0.3 1.4-0.4 2.8-0.3 4.3 0.2 1.4 0.6 2.8 1.2 4.1 0.6 1.2 1.5 2.4 2.5 3.4 1 0.9 2.1 1.6 3.4 2.1 1.3 0.4 2.6 0.6 4 0.4 1.3-0.1 2.6-0.5 3.7-1.2 1.2-0.7 2.2-1.7 2.9-2.8 0.8-1.2 1.4-2.5 1.8-3.9 0.3-1.3 0.5-2.8 0.3-4.2-0.1-1.4-0.5-2.8-1.2-4.1-0.6-1.3-1.5-2.4-2.5-3.4z"/><path class="b" d="m504.2 778.5q0 0.1 0.1 0.1 0 0 0.1 0 0 0 0.1 0 0 0 0.1-0.1 0 0 0.1-0.1 0 0 0 0 0-0.1 0-0.1 0-0.1 0-0.1l-5.3-18.7q-0.1-0.1-0.1-0.2 0-0.2 0-0.3 0-0.1 0.1-0.2 0-0.2 0.1-0.3 0.1-0.1 0.1-0.2 0.1-0.1 0.2-0.2 0.1 0 0.2-0.1 0.1 0 0.3-0.1l2.3-0.7q0.3 0 0.5 0 0.3 0 0.5 0.1 0.2 0.2 0.4 0.4 0.1 0.2 0.2 0.4l8 28q0 0.1 0 0.3 0.1 0.1 0 0.2 0 0.2 0 0.3 0 0.1-0.1 0.2-0.1 0.1-0.1 0.2-0.1 0.1-0.2 0.2-0.1 0.1-0.2 0.1-0.2 0.1-0.3 0.1l-1.2 0.4q-0.1 0-0.3 0-0.1 0-0.3 0-0.1 0-0.2-0.1-0.2 0-0.3-0.1l-21.3-14.6q0-0.1-0.1-0.1 0 0-0.1 0 0 0-0.1 0 0 0-0.1 0.1 0 0-0.1 0.1 0 0 0 0 0 0.1 0 0.1 0 0.1 0 0.2l5.2 18.1q0.1 0.2 0 0.5 0 0.2-0.1 0.5-0.1 0.2-0.3 0.3-0.2 0.2-0.5 0.3l-2.3 0.6q-0.2 0.1-0.3 0.1-0.1 0-0.3 0-0.1 0-0.2-0.1-0.1 0-0.2-0.1-0.2 0-0.3-0.1-0.1-0.1-0.1-0.2-0.1-0.1-0.2-0.2 0-0.1 0-0.2l-8-28q-0.1-0.3-0.1-0.5 0-0.3 0.1-0.5 0.2-0.2 0.4-0.4 0.2-0.1 0.4-0.2l0.9-0.2q0.1-0.1 0.2-0.1 0.2 0 0.3 0 0.2 0 0.3 0.1 0.1 0 0.2 0.1z"/><path class="b" d="m545.3 769.7q0.1 0 0.2 0 0.2-0.1 0.3-0.1 0.1 0 0.2 0.1 0.2 0 0.3 0 0.1 0.1 0.2 0.1 0.1 0.1 0.2 0.2 0.1 0.1 0.2 0.2 0 0.1 0.1 0.2l0.9 2.3q0.1 0.1 0.1 0.3 0 0.1 0 0.2 0 0.1 0 0.3 0 0.1-0.1 0.2 0 0.1-0.1 0.2-0.1 0.1-0.2 0.2-0.1 0.1-0.2 0.2-0.1 0.1-0.2 0.1l-16.5 6.6q-0.1 0.1-0.2 0.1-0.2 0-0.3 0-0.1 0-0.2 0-0.2 0-0.3-0.1-0.1 0-0.2-0.1-0.1-0.1-0.2-0.2-0.1-0.1-0.2-0.2 0-0.1-0.1-0.2l-10.9-27.1q-0.1-0.1-0.1-0.3 0-0.1 0-0.2 0-0.1 0-0.3 0-0.1 0.1-0.2 0.1-0.1 0.1-0.2 0.1-0.1 0.2-0.2 0.1-0.1 0.2-0.2 0.1 0 0.2-0.1l16.4-6.6q0.2-0.1 0.3-0.1 0.1 0 0.2 0 0.2 0 0.3 0 0.1 0 0.2 0.1 0.2 0 0.3 0.1 0.1 0.1 0.2 0.2 0.1 0 0.1 0.2 0.1 0.1 0.1 0.2l1 2.3q0 0.2 0 0.4 0 0.3-0.1 0.5-0.1 0.3-0.3 0.5-0.2 0.1-0.4 0.2l-11.8 4.8q-0.1 0-0.2 0.1-0.1 0.1-0.2 0.2-0.1 0.1-0.2 0.2 0 0.1-0.1 0.2 0 0.1-0.1 0.2 0 0.1 0 0.3 0 0.1 0 0.2 0.1 0.2 0.1 0.3l2.4 5.9q0 0.1 0.1 0.2 0.1 0.1 0.2 0.2 0.1 0.1 0.2 0.2 0.1 0 0.2 0.1 0.1 0 0.2 0 0.2 0.1 0.3 0.1 0.1 0 0.3-0.1 0.1 0 0.2 0l6.8-2.8q0.1 0 0.2 0 0.1-0.1 0.3-0.1 0.1 0 0.2 0.1 0.1 0 0.3 0 0.1 0.1 0.2 0.2 0.1 0 0.2 0.1 0.1 0.1 0.1 0.2 0.1 0.1 0.1 0.2l1 2.3q0 0.1 0 0.2 0.1 0.2 0.1 0.3 0 0.1-0.1 0.3 0 0.1 0 0.2-0.1 0.1-0.2 0.2 0 0.1-0.1 0.2-0.1 0.1-0.2 0.2-0.1 0-0.2 0.1l-6.8 2.7q-0.1 0-0.2 0.1-0.1 0.1-0.2 0.2-0.1 0.1-0.1 0.2-0.1 0.1-0.1 0.2-0.1 0.1-0.1 0.2-0.1 0.2-0.1 0.3 0 0.1 0.1 0.2 0 0.2 0.1 0.3l2 4.9q0.1 0.3 0.2 0.4 0.2 0.2 0.4 0.3 0.3 0.1 0.5 0.1 0.3 0 0.5-0.1z"/><path class="b" d="m572 761.7q0 0.2 0 0.3 0 0.2-0.1 0.4-0.1 0.1-0.3 0.3-0.1 0.1-0.3 0.2l-1.4 0.7q-0.1 0.1-0.2 0.1-0.1 0.1-0.2 0.1-0.1 0-0.2 0-0.1 0-0.2 0-0.1 0-0.2-0.1-0.1 0-0.2-0.1-0.1 0-0.2-0.1-0.1-0.1-0.2-0.2l-19.7-22.5q0 0-0.1-0.1 0-0.1-0.1-0.2 0-0.1 0-0.2-0.1-0.1-0.1-0.2 0 0 0-0.1 0-0.1 0-0.2 0-0.1 0.1-0.2 0-0.1 0-0.2 0.1-0.1 0.1-0.1 0.1-0.1 0.2-0.2 0 0 0.1-0.1 0.1 0 0.2-0.1l2.2-1.2q0 0 0.1 0 0.1-0.1 0.2-0.1 0 0 0.1 0 0.1 0 0.1-0.1 0.1 0 0.2 0 0 0.1 0.1 0.1 0.1 0 0.2 0 0 0 0.1 0 0 0.1 0.1 0.1 0.1 0 0.1 0.1 0.1 0 0.2 0.1 0 0 0.1 0.1l12.7 14.5q0 0 0.1 0.1 0 0 0.1 0.1 0.1 0 0.1 0 0.1 0 0.2-0.1 0.1 0 0.1 0 0.1-0.1 0.1-0.2 0 0 0.1-0.1 0-0.1-0.1-0.1l-1.2-15.4q0-0.4 0.1-0.7 0.2-0.3 0.6-0.5 0.3-0.2 0.7-0.2 0.4 0.1 0.7 0.3l12.1 9.4q0.1 0 0.2 0.1 0 0 0.1 0 0.1 0 0.1 0 0.1-0.1 0.2-0.1 0 0 0.1-0.1 0-0.1 0-0.1 0.1-0.1 0.1-0.2 0 0 0-0.1l-5.2-18.6q0 0 0-0.1 0 0 0-0.1 0 0 0-0.1 0 0 0 0 0-0.1 0-0.1 0-0.1 0-0.1 0-0.1 0-0.1 0 0 0-0.1 0.1 0 0.1-0.1 0 0 0 0 0-0.1 0-0.1 0 0 0.1-0.1 0 0 0-0.1 0 0 0.1 0 0-0.1 0-0.1 0 0 0.1 0 0-0.1 0-0.1 0.1 0 0.1-0.1 0 0 0.1 0 0 0 0 0l2.3-1.3q0.1 0 0.2 0 0.2-0.1 0.3-0.1 0.2 0 0.3 0.1 0.1 0 0.3 0 0.1 0.1 0.2 0.2 0.1 0.1 0.2 0.2 0.1 0.1 0.2 0.2 0.1 0.1 0.1 0.3l8 28.8q0 0.1 0 0.2 0.1 0.1 0.1 0.2 0 0.1-0.1 0.2 0 0.1 0 0.2-0.1 0.1-0.1 0.2-0.1 0.1-0.1 0.2-0.1 0.1-0.2 0.1-0.1 0.1-0.2 0.2l-1.4 0.7q-0.2 0.1-0.4 0.2-0.1 0-0.3 0-0.2 0-0.4-0.1-0.2 0-0.3-0.2l-11.1-8.6q-0.3-0.2-0.7-0.2-0.4 0-0.7 0.1-0.3 0.2-0.5 0.5-0.2 0.4-0.2 0.7z"/><path class="b" d="m624.2 705.1q0.1 0.1 0.1 0.1 0.1 0 0.1 0 0.1 0 0.2-0.1 0 0 0.1 0 0-0.1 0-0.1 0.1-0.1 0.1-0.1 0-0.1 0-0.1 0-0.1 0-0.2l-2.1-12.8q0-0.1 0-0.3 0-0.2 0.1-0.3 0-0.2 0.1-0.3 0.1-0.1 0.3-0.2l2.2-1.8q0.1-0.1 0.2-0.2 0.2 0 0.4-0.1 0.1 0 0.3 0 0.2 0 0.3 0.1 0.2 0 0.3 0.1 0.2 0.1 0.3 0.3 0.1 0.1 0.1 0.3 0.1 0.1 0.1 0.3l3 17.8q0.1 0.3 0.1 0.5 0.1 0.2 0.2 0.4 0.1 0.2 0.2 0.4 0.1 0.2 0.2 0.4l7 8.7q0.1 0.1 0.2 0.2 0 0.2 0.1 0.3 0 0.1 0 0.2 0 0.2 0 0.3 0 0.1-0.1 0.2 0 0.2 0 0.3-0.1 0.1-0.2 0.2-0.1 0.1-0.2 0.2l-1.9 1.4q-0.1 0.1-0.2 0.1-0.1 0.1-0.2 0.1-0.2 0.1-0.3 0.1-0.1 0-0.2 0-0.2 0-0.3-0.1-0.1 0-0.2-0.1-0.1 0-0.2-0.1-0.1-0.1-0.2-0.2l-7-8.8q-0.1-0.1-0.3-0.3-0.2-0.1-0.3-0.3-0.2-0.1-0.4-0.2-0.2-0.1-0.4-0.2l-16.8-6.8q-0.1-0.1-0.2-0.1 0 0-0.1-0.1-0.1 0-0.1-0.1-0.1 0-0.1-0.1-0.1-0.1-0.1-0.2 0 0-0.1-0.1 0-0.1 0-0.1 0-0.1-0.1-0.2 0-0.1 0-0.2 0 0 0-0.1 0-0.1 0-0.2 0-0.1 0-0.1 0.1-0.1 0.1-0.2 0.1-0.1 0.1-0.1 0.1-0.1 0.1-0.2 0.1 0 0.1-0.1l2.2-1.7q0.2-0.1 0.3-0.2 0.2-0.1 0.3-0.1 0.2 0 0.4 0 0.1 0 0.3 0.1z"/><path fill-rule="evenodd" class="b" d="m671.7 686.5q-0.4 1.9-1.4 3.6-1 1.8-2.4 3.2-1.4 1.4-3.2 2.3-1.7 1-3.7 1.4-0.9 0.2-2 0.3-1 0.1-2 0-1 0-2-0.2-1-0.2-2-0.5-2-0.6-3.8-1.7-1.8-1.1-3.3-2.6-1.5-1.5-2.5-3.4-1.1-1.8-1.7-3.8-0.3-1-0.5-2-0.2-1-0.2-2 0-1 0.1-2 0.1-1 0.3-2 0.4-1.7 1.2-3.3 0.8-1.5 2-2.8 1.1-1.3 2.6-2.3 1.4-1 3.1-1.6 0.7-0.3 1.4-0.4 0.7-0.2 1.4-0.3 0.8-0.2 1.5-0.2 0.7 0 1.5 0 0.7 0 1.5 0.1 0.7 0.2 1.5 0.3 0.7 0.2 1.4 0.5 0.8 0.2 1.5 0.5 0.7 0.4 1.4 0.8 0.7 0.3 1.4 0.8 0.6 0.5 1.2 1 0.6 0.5 1.2 1.1 0.8 0.7 1.4 1.5 0.7 0.9 1.2 1.8 0.5 0.9 1 1.9 0.4 0.9 0.7 1.9 0.3 1 0.4 2 0.2 1 0.2 2 0.1 1.1 0 2.1-0.1 1-0.4 2zm-15.6-15.3c-1.4-0.1-2.7 0.1-4 0.5-1.2 0.5-2.4 1.2-3.3 2.1-1 1-1.7 2.1-2.2 3.4-0.5 1.2-0.7 2.6-0.5 3.9 0.1 1.4 0.4 2.8 1 4.1 0.6 1.3 1.4 2.5 2.4 3.5 1 1.1 2.2 1.9 3.5 2.5 1.3 0.6 2.7 1 4.1 1.1 1.3 0.1 2.7 0 3.9-0.5 1.3-0.4 2.5-1.2 3.4-2.1 1-0.9 1.7-2.1 2.2-3.3 0.4-1.3 0.6-2.6 0.5-4-0.1-1.4-0.4-2.8-1-4.1-0.6-1.3-1.4-2.5-2.4-3.5-1-1-2.2-1.9-3.5-2.5q-2-0.9-4.1-1.1z"/><path fill-rule="evenodd" class="b" d="m687.9 663.6l3.1 2.5q0.1 0.1 0.2 0.2 0.1 0.1 0.1 0.2 0.1 0.1 0.1 0.2 0.1 0.2 0.1 0.3 0 0.1 0 0.2 0 0.2-0.1 0.3 0 0.1-0.1 0.2 0 0.1-0.1 0.2l-1.6 1.9q-0.1 0.1-0.2 0.2-0.1 0.1-0.2 0.2-0.1 0-0.2 0.1-0.1 0-0.2 0-0.2 0-0.3 0-0.1 0-0.2-0.1-0.2 0-0.3-0.1-0.1 0-0.2-0.1l-22.7-18.6q-0.1-0.1-0.1-0.2-0.1-0.1-0.2-0.2 0-0.1-0.1-0.2 0-0.1 0-0.2 0-0.2 0-0.3 0-0.1 0-0.2 0.1-0.2 0.1-0.3 0.1-0.1 0.2-0.2l5.1-6.2q0.8-1 1.7-1.8 1-0.8 2.1-1.4 1.1-0.6 2.3-1 1.2-0.4 2.4-0.5 2-0.2 3.9 0.1 1.9 0.4 3.6 1.3 1.7 1 3.1 2.4 1.3 1.4 2.2 3.1 0.3 0.7 0.5 1.3 0.3 0.7 0.4 1.3 0.2 0.7 0.3 1.4 0.1 0.7 0.1 1.3 0 0.2 0 0.3 0 0.1 0.1 0.2 0 0.1 0.1 0.2 0.1 0.1 0.1 0.2 0.1 0.1 0.2 0.1 0.1 0.1 0.2 0.1 0.1 0.1 0.2 0.1 0.1 0.1 0.2 0.1l6.9 0.9q0.1 0 0.3 0.1 0.1 0 0.3 0.1 0.1 0.1 0.2 0.3 0.1 0.1 0.2 0.3 0 0.1 0.1 0.3 0 0.2 0 0.3-0.1 0.2-0.1 0.4-0.1 0.1-0.2 0.2l-1.9 2.3q-0.1 0.1-0.2 0.2-0.1 0.1-0.3 0.2-0.1 0-0.3 0.1-0.2 0-0.3 0l-6.3-0.9q-0.2 0-0.3 0-0.2 0-0.4 0.1-0.2 0.1-0.3 0.2-0.2 0.2-0.2 0.3-0.2 0.3-0.3 0.5-0.1 0.2-0.3 0.4-0.1 0.2-0.3 0.4-0.1 0.2-0.3 0.4l-2 2.5q-0.1 0.1-0.2 0.2 0 0.1-0.1 0.3 0 0.1 0 0.2 0 0.1 0 0.2 0 0.2 0 0.3 0.1 0.1 0.1 0.2 0.1 0.2 0.2 0.3 0 0.1 0.1 0.1zm-15.9-14.6q-0.1 0.1-0.2 0.3 0 0.1-0.1 0.3 0 0.1 0 0.3 0 0.2 0.1 0.3 0 0.1 0.1 0.2 0 0.1 0 0.1 0.1 0.1 0.2 0.2 0 0 0.1 0.1l9.9 8.1q0.1 0.1 0.2 0.1 0.1 0.1 0.2 0.1 0.1 0.1 0.3 0.1 0.1 0 0.2-0.1 0.1 0 0.2 0 0.2 0 0.3-0.1 0.1 0 0.2-0.1 0.1-0.1 0.2-0.2l2-2.5q0.5-0.6 0.9-1.2 0.3-0.7 0.6-1.4 0.2-0.7 0.2-1.5 0.1-0.7 0-1.5 0-0.7-0.2-1.4-0.2-0.8-0.6-1.5-0.3-0.6-0.8-1.2-0.4-0.6-1-1.1-0.6-0.5-1.3-0.9-0.6-0.3-1.4-0.6-0.7-0.2-1.5-0.2-0.7-0.1-1.5 0-0.8 0-1.5 0.3-0.7 0.2-1.4 0.6-0.7 0.3-1.3 0.8-0.6 0.5-1.1 1.1z"/><path class="b" d="m706.4 630.9q0 0.1 0.1 0.2 0 0.1 0.1 0.2 0.1 0.1 0.1 0.1 0.1 0.1 0.2 0.2l6.9 4.6q0.1 0 0.1 0.1 0.1 0 0.2 0.1 0 0.1 0.1 0.1 0 0.1 0.1 0.2 0 0.1 0 0.1 0.1 0.1 0.1 0.2 0 0.1 0 0.2 0 0 0 0.1 0 0.1 0 0.2-0.1 0.1-0.1 0.2 0 0-0.1 0.1 0 0.1-0.1 0.1l-1.3 2.1q-0.1 0.1-0.2 0.1-0.1 0.1-0.2 0.2-0.1 0.1-0.2 0.1-0.1 0.1-0.2 0.1-0.1 0-0.3 0-0.1 0-0.2 0-0.2 0-0.3-0.1-0.1 0-0.2-0.1l-24.2-16.2q-0.1-0.1-0.2-0.2-0.1-0.1-0.2-0.2-0.1-0.1-0.1-0.2-0.1-0.1-0.1-0.2 0-0.2 0-0.3 0-0.1 0-0.2 0-0.2 0.1-0.3 0-0.1 0.1-0.2l1.4-2q0-0.1 0.1-0.1 0-0.1 0.1-0.1 0.1-0.1 0.1-0.1 0.1-0.1 0.2-0.1 0-0.1 0.1-0.1 0.1 0 0.2 0 0.1-0.1 0.1-0.1 0.1 0 0.2 0 0.1 0 0.2 0.1 0.1 0 0.1 0 0.1 0 0.2 0.1 0.1 0 0.1 0.1l7.6 5.1q0.4 0.2 0.8 0.2 0.4-0.1 0.7-0.3 0.3-0.2 0.5-0.6 0.1-0.4 0-0.8l-3.9-13.5q-0.1-0.1-0.1-0.3 0-0.1 0-0.3 0-0.1 0.1-0.2 0.1-0.2 0.1-0.3l1.8-2.6q0.1-0.2 0.2-0.3 0.2-0.1 0.3-0.2 0.2-0.1 0.4-0.1 0.2 0 0.4 0 0.1 0 0.3 0.1 0.2 0.1 0.3 0.2 0.1 0.1 0.2 0.3 0.1 0.1 0.2 0.3l4.4 15.3q0 0.1 0 0.2 0.1 0.1 0.1 0.2 0.1 0.1 0.2 0.2 0.1 0 0.2 0.1 0.1 0.1 0.2 0.1 0.1 0 0.2 0.1 0.1 0 0.2 0 0.1 0 0.2 0l17.9-1.9q0.2 0 0.4 0 0.1 0 0.3 0.1 0.2 0.1 0.3 0.2 0.1 0.2 0.2 0.3 0.1 0.2 0.2 0.3 0 0.2 0 0.4 0 0.2 0 0.4-0.1 0.1-0.2 0.3l-1.7 2.6q-0.1 0.2-0.2 0.3-0.1 0.1-0.2 0.1-0.2 0.1-0.3 0.2-0.1 0-0.3 0l-14.4 1.6q-0.1 0-0.2 0-0.2 0-0.3 0.1-0.1 0.1-0.2 0.2-0.1 0.1-0.2 0.2-0.1 0.1-0.1 0.2-0.1 0.2-0.1 0.3 0 0.2 0 0.3 0 0.1 0.1 0.3z"/><path class="b" d="m621.6 576.9q11.9 4.5 11.9 12.6 0 8.1-11.5 8.1-9.3 0-13.3-5.3v-0.7l0.7-0.7h0.3q5.2 3.9 9.5 3.9h1.4q8.6 0 9.8-5.6 0-8-16.4-9.8h-4.6q-1.6 0-3.2 0.2-1.6 0.1-3.1 0.4-1.6 0.2-3.2 0.5-1.6 0.3-3.1 0.6-50.8 16.5-63 16.5h-2.1q-10.6 0-17.5-6.3h-0.7v0.7q-2 1.7-4.3 3-2.2 1.3-4.7 2.2-2.5 0.9-5.1 1.4-2.6 0.4-5.2 0.4h-1.8l-5.3-1.1q-11.5-4-16.1-12.2h0.4l0.3-0.4q2.2 2 4.7 3.5 2.5 1.6 5.2 2.6 2.8 1 5.7 1.5 2.9 0.5 5.8 0.5h1.7q11.3 0 17.2-5.6-1.7-3.9-1.7-5.3v-0.3q0.6-4.9 3.8-4.9 4.1 0 4.6 4.9v0.7q0 0.6-0.2 1.3-0.1 0.7-0.4 1.3-0.4 0.6-0.8 1.1-0.5 0.5-1.1 0.8 0 4.1 14.4 6.3 3.2-0.5 6.4-1.2 3.1-0.7 6.3-1.5 3.1-0.8 6.3-1.7 3.1-0.9 6.2-1.9 35.8-11.9 51.8-11.9h3.9q1.3 0 2.5 0.1 1.3 0.1 2.6 0.3 1.3 0.2 2.5 0.4 1.3 0.3 2.5 0.6z"/><path class="b" d="m190.3 575.5h3.9q16 0 51.8 11.9 3.1 1 6.3 1.9 3.1 0.9 6.2 1.7 3.2 0.8 6.4 1.5 3.1 0.7 6.3 1.2 14.4-2.2 14.4-6.3-0.6-0.3-1.1-0.8-0.4-0.5-0.7-1.1-0.4-0.6-0.5-1.3-0.2-0.7-0.1-1.3v-0.7q0.4-4.9 4.5-4.9 3.3 0 3.9 4.9v0.3q0 1.4-1.8 5.3 6 5.6 17.2 5.6h1.7q3 0 5.9-0.5 2.8-0.5 5.6-1.5 2.7-1 5.2-2.6 2.5-1.5 4.7-3.5l0.3 0.4h0.4q-4.6 8.2-16.1 12.2l-5.3 1.1h-1.7q-2.6 0-5.2-0.4-2.6-0.5-5.1-1.4-2.5-0.9-4.7-2.2-2.3-1.3-4.3-3v-0.7h-0.7q-6.9 6.3-17.5 6.3h-2.1q-12.3 0-63-16.5-1.6-0.3-3.1-0.6-1.6-0.3-3.2-0.5-1.5-0.2-3.1-0.4-1.6-0.1-3.2-0.2h-4.6q-16.5 1.8-16.5 9.8 1.3 5.6 9.8 5.6h1.4q4.4 0 9.5-3.9h0.4l0.6 0.7v0.7q-3.9 5.3-13.3 5.3-11.5 0-11.5-8.1 0-8 11.9-12.6 1.2-0.3 2.5-0.6 1.2-0.2 2.5-0.4 1.3-0.2 2.6-0.3 1.3-0.1 2.5-0.1z"/><path class="b" d="m372.4 119.8l-7.2 7.1 1.7 10-9-4.7-9 4.7 1.7-10-7.3-7.1 10-1.4 4.5-9.1 4.5 9.1zm36.2 0l-7.2 7 1.7 10-9-4.7-9 4.7 1.7-10-7.3-7 10-1.5 4.5-9 4.5 9zm28.8 7.1l1.7 10-8.9-4.7-9 4.7 1.7-10-7.3-7.1 10-1.4 4.5-9.1 4.5 9.1 10 1.4z"/><path class="b" d="m414.7 576.7l-12.3 12.3 31.1 31.1-5.1 5.1-31.1-31.1-31.2 31.1-5.1-5.1 28.6-28.7c-6.8-3.1-14.7-8.6-22.1-16.1-10.8-10.8-17.7-22.5-18.7-30.5 0-0.3-0.1-0.6-0.1-0.9 0-0.7 0.3-1.3 0.7-1.9 0.4-0.6 0.9-1 1.6-1.3 0.6-0.2 1.3-0.3 2-0.2 0.7 0.2 1.3 0.5 1.8 0.9l0.1 0.1 0.1 0.2 42.3 42.1 12.3-12.2-1.7-1.8q-0.6-0.5-0.9-1.3-0.3-0.7-0.3-1.5 0-0.8 0.3-1.5 0.3-0.8 0.9-1.4l27.8-27.8c0.4-0.3 0.9-0.5 1.4-0.4 0.5 0 1 0.2 1.4 0.6 0.4 0.4 0.6 0.9 0.6 1.4 0.1 0.5-0.1 1-0.4 1.4l-19.7 19.7 2.6 2.6 19.7-19.6c0.4-0.5 1-0.8 1.5-0.8 0.6 0 1.2 0.2 1.7 0.6 0.4 0.4 0.6 1 0.6 1.6-0.1 0.6-0.3 1.2-0.8 1.6l-19.7 19.6 2.6 2.6 19.7-19.7c0.4-0.3 0.9-0.4 1.4-0.4 0.5 0 1 0.3 1.4 0.6 0.4 0.4 0.6 0.9 0.6 1.4 0.1 0.5-0.1 1-0.4 1.4l-27.8 27.9q-0.6 0.5-1.4 0.8-0.7 0.3-1.5 0.3-0.8 0-1.5-0.3-0.8-0.3-1.3-0.8z"/><path class="b" d="m372.5 280.1c-22.2-6-18.1-32.3-18.1-32.3 30 15.4 48.8 3 48.8-14.3 0-11.1-13.6-22.4-33.2-22.4-39.5 0-78.3 43.3-88.4 108.2l-24.2 157.4h-34.4c-14.1 0-20.9-6.3-22.6-18.4-4.4-26.7-13.4-88.3-19.5-126.9-4.3-27.7-9.8-34-9.8-34h39l20.1 155.1 14.2-111.5c9-71.8 43.2-140.7 132.1-140.7 76.1 0 62.1 97.5-4 79.8z"/><path class="b" d="m299.2 297.4h38.8v179.3h-34.2v-145.3c0-28.2-4.6-34-4.6-34z"/><path class="b" d="m467.4 297.4v179.3h-34.2v-61.9l-40.3-64.2v126.1h-34.3v-145.3c0-28.2-4.5-34-4.5-34h38.8l40.3 64.2v-64.2z"/><path class="b" d="m479.5 297.4h85.3l-4 26.2h-22.4v153.1h-34.3v-153.1h-20.6l-4-26.2z"/><path fill-rule="evenodd" class="b" d="m756.6 511.4c0 0-9 37-50.3 29.2-60.2-11.3-82.6-102.2-85.8-118h-9.9v54.1h-34.2v-145.5c0-28-4.5-33.8-4.5-33.8h57.6c32.5 0 47.3 16.7 47.3 45.1v35c0 22.2-9 37.3-28.2 42.6 0 0 21.7 102.4 108 91.3zm-146-115h18.9c5.8 0 13.1-1.5 13.1-11.8v-49.4c0-10.1-7.3-11.6-13.1-11.6h-18.9z"/><path fill-rule="evenodd" class="b" d="m801.2 357.4v61.6c0 38.8-22.1 59.7-54.6 59.7-32.5 0-54.6-20.9-54.6-59.7v-61.6c0-39 22.2-60 54.6-60 32.5 0 54.6 20.9 54.6 60zm-34.2 0c0-24.7-10.1-33.8-20.2-33.8-10.5 0-20.6 9.1-20.6 33.8v61.6c0 24.4 10.1 33.5 20.6 33.5 10.1 0 20.2-9.1 20.2-33.5z"/><path class="b" d="m121.9 436.9c6.6 21.8-8.2 39.8-28.1 39.8-30.6 0-30.1-12.6-93.8-12.6l28.5-135.1c5.7-26.2 2.6-31.6 2.6-31.6h36l-30.8 144.9c29.7 4.7 62.2 13.1 85.6-5.4zm-35.3-139.5h69.5l-5.9 27c0 0-3.5-5.9-15.7-5.9h-21.5l-6.8 31.4h30.7l-4.5 21h-30.6l-6.6 31.4h21.6c12.1 0 18.2-5.9 18.2-5.9l-5.8 26.9h-66l21-99c5-22.2 2.4-26.9 2.4-26.9z"/></svg>