<?xml version="1.0" encoding="utf-8"?>
<!-- Generator: Adobe Illustrator 25.4.1, SVG Export Plug-In . SVG Version: 6.00 Build 0)  -->
<svg version="1.1" id="Layer_1" xmlns="http://www.w3.org/2000/svg" xmlns:xlink="http://www.w3.org/1999/xlink" x="0px" y="0px"
	 viewBox="0 0 802 807" style="enable-background:new 0 0 802 807;" xml:space="preserve">
<style type="text/css">
	.st0{fill-rule:evenodd;clip-rule:evenodd;fill:#FFFFFF;}
	.st1{fill:#FFFFFF;}
</style>
<path class="st0" d="M128.3,124.4l2.6,3c0.1,0.1,0.1,0.1,0.1,0.2c0.1,0.1,0.1,0.2,0.1,0.3c0.1,0.1,0.1,0.1,0.1,0.2s0,0.2,0,0.3
	c0,0.1,0,0.1-0.1,0.2c0,0.1,0,0.1-0.1,0.2c0,0.1,0,0.2-0.1,0.3c-0.1,0.1-0.1,0.1-0.2,0.1l-1.9,1.6c-0.1,0.1-0.2,0.2-0.4,0.3
	c-0.1,0.1-0.3,0.1-0.5,0c-0.1,0-0.3,0-0.5-0.1c-0.1-0.1-0.3-0.2-0.4-0.3l-19-22.4c0-0.1,0-0.1-0.1-0.2s-0.1-0.1-0.1-0.2s0-0.2,0-0.3
	c-0.1-0.1-0.1-0.1-0.1-0.2c0.1-0.1,0.1-0.2,0.1-0.3c0-0.1,0-0.1,0.1-0.2c0-0.1,0-0.1,0.1-0.2s0.1-0.1,0.2-0.2l6.2-5.2
	c0.6-0.6,1.3-1.1,2-1.5c0.7-0.4,1.5-0.7,2.3-1c0.8-0.3,1.6-0.4,2.4-0.5c0.8-0.1,1.6-0.2,2.5-0.1c0.8,0.1,1.6,0.2,2.4,0.4
	c0.8,0.2,1.6,0.5,2.4,0.8c0.7,0.4,1.4,0.8,2.1,1.3c0.6,0.5,1.2,1.1,1.7,1.7c0.3,0.4,0.6,0.8,0.9,1.2c0.3,0.3,0.5,0.7,0.8,1.1
	c0.2,0.5,0.4,0.9,0.6,1.3c0.1,0.5,0.3,0.9,0.4,1.3c0.1,0.5,0.2,0.9,0.3,1.4c0.1,0.5,0.1,0.9,0.2,1.3c0,0.5,0,0.9,0,1.4
	c-0.1,0.5-0.1,0.9-0.2,1.4c0,0.1,0,0.3,0.1,0.4c0,0.2,0,0.4,0.1,0.5c0.1,0.1,0.2,0.2,0.3,0.3c0.1,0.1,0.3,0.1,0.4,0.2l6.6,2.1
	c0.1,0.1,0.2,0.1,0.3,0.2c0.1,0.1,0.2,0.1,0.3,0.2c0.1,0.1,0.1,0.2,0.1,0.3c0.1,0.1,0.1,0.2,0.1,0.3c0.1,0.1,0.1,0.2,0.1,0.3
	c0,0.1,0,0.3-0.1,0.4c0,0.1,0,0.2-0.1,0.3c-0.1,0.1-0.2,0.1-0.3,0.2l-2.2,1.9c-0.1,0.1-0.2,0.1-0.3,0.2c-0.1,0.1-0.2,0.1-0.3,0.1
	c-0.1,0-0.2,0-0.3,0c-0.1,0-0.2,0-0.3-0.1l-6-1.9c-0.1-0.1-0.3-0.1-0.4-0.1s-0.2,0-0.3,0.1c-0.1,0-0.3,0-0.4,0.1
	c-0.1,0.1-0.2,0.2-0.3,0.3c-0.1,0.1-0.2,0.3-0.3,0.4c-0.1,0.1-0.2,0.2-0.3,0.3c-0.1,0.1-0.3,0.3-0.4,0.4c-0.1,0.1-0.3,0.2-0.4,0.3
	l-2.5,2.1c-0.1,0.1-0.1,0.1-0.1,0.2c-0.1,0.1-0.1,0.1-0.2,0.2c0,0.1,0,0.1-0.1,0.2c0,0.1,0,0.2,0,0.3c0,0.1,0,0.1,0,0.2
	c0,0.1,0,0.2,0,0.3c0.1,0.1,0.1,0.1,0.2,0.2C128.2,124.3,128.2,124.3,128.3,124.4L128.3,124.4z M115.3,107.1
	c-0.1,0.1-0.1,0.1-0.1,0.2c-0.1,0-0.1,0-0.1,0.1c-0.1,0-0.1,0-0.1,0.1s0,0.1-0.1,0.2c0,0,0,0,0,0.1c0,0.1,0,0.1,0,0.2
	c0,0.1,0,0.1,0,0.2c0,0,0,0,0,0.1c0,0.1,0,0.1,0,0.2c0,0.1,0,0.1,0.1,0.1c0,0.1,0,0.1,0.1,0.2c0,0.1,0,0.1,0.1,0.1l8.2,9.8
	c0.1,0.1,0.3,0.2,0.4,0.3c0.1,0.1,0.3,0.1,0.5,0.1c0.2,0,0.4,0,0.5,0c0.1-0.1,0.3-0.2,0.4-0.3l2.5-2.1c0.4-0.3,0.8-0.7,1.1-1
	c0.3-0.4,0.5-0.8,0.8-1.3c0.2-0.5,0.4-0.9,0.5-1.4c0.1-0.5,0.2-0.9,0.3-1.4c0.1-0.5,0.1-1,0-1.5c-0.1-0.5-0.2-1-0.3-1.5
	s-0.3-0.9-0.6-1.4c-0.2-0.4-0.5-0.8-0.8-1.2c-0.3-0.4-0.7-0.8-1.1-1.1c-0.4-0.3-0.8-0.6-1.3-0.8c-0.4-0.3-0.9-0.5-1.4-0.6
	c-0.5-0.1-1-0.2-1.5-0.2c-0.5-0.1-1-0.1-1.5,0c-0.5,0.1-1,0.2-1.5,0.3c-0.5,0.1-1,0.3-1.4,0.6c-0.5,0.3-0.9,0.6-1.3,0.9L115.3,107.1
	z"/>
<path class="st1" d="M192.2,78.9c0.1,0,0.1,0,0.1,0c0.1-0.1,0.1-0.1,0.1-0.1c0.1,0,0.1,0,0.2,0c0-0.1,0-0.1,0.1-0.1s0.1,0,0.1,0
	c0.1,0,0.1,0,0.1,0c0.1,0,0.1,0,0.2,0c0,0,0,0,0.1,0c0,0,0,0,0.1,0.1c0.1,0,0.1,0,0.1,0c0.1,0,0.1,0,0.1,0.1c0.1,0,0.1,0,0.1,0
	c0.1,0.1,0.1,0.1,0.1,0.1c0.1,0,0.1,0,0.1,0.1c0.1,0,0.1,0,0.1,0.1c0.1,0,0.1,0,0.1,0.1l1.2,2.1c0.1,0.1,0.1,0.1,0.2,0.2
	c0,0.1,0,0.1,0,0.2c0,0.1,0,0.2,0,0.3c0,0.1,0,0.2,0,0.3c0,0.1,0,0.1-0.1,0.2c0,0.1,0,0.1-0.1,0.2c-0.1,0.1-0.1,0.1-0.2,0.2
	s-0.1,0.1-0.2,0.2l-15.2,9.2c-0.1,0-0.1,0-0.2,0.1c-0.1,0-0.2,0-0.3,0c-0.1,0.1-0.1,0.1-0.2,0c-0.1,0-0.2,0-0.3,0
	c-0.1,0-0.1,0-0.2-0.1c-0.1-0.1-0.1-0.1-0.2-0.1c-0.1-0.1-0.1-0.1-0.2-0.2c-0.1-0.1-0.1-0.1-0.2-0.2l-15.1-25
	c-0.1-0.1-0.1-0.1-0.1-0.2c0,0,0,0-0.1-0.1c0-0.1,0-0.1,0-0.2s0-0.1,0-0.2s0-0.1,0-0.1c0-0.1,0-0.1,0-0.2c0.1-0.1,0.1-0.1,0.1-0.2
	c0,0,0,0,0.1-0.1c0-0.1,0-0.1,0-0.2c0.1,0,0.1,0,0.1-0.1c0.1-0.1,0.1-0.1,0.2-0.1c0-0.1,0-0.1,0.1-0.1l15.2-9.1
	c0.1-0.1,0.3-0.1,0.5-0.2c0.2,0,0.4,0,0.5,0.1c0.2,0,0.4,0.1,0.5,0.2c0.1,0.1,0.2,0.2,0.3,0.3l1.3,2.1c0,0.1,0,0.1,0.1,0.2
	c0,0.1,0,0.2,0.1,0.3c0,0.1,0,0.2,0,0.3c0,0.1,0,0.1-0.1,0.2c0,0.1,0,0.2-0.1,0.3c0,0.1,0,0.1-0.1,0.2c-0.1,0.1-0.1,0.1-0.2,0.2
	c-0.1,0.1-0.1,0.1-0.2,0.1L170,66.9c-0.1,0-0.1,0-0.1,0.1c-0.1,0-0.1,0-0.2,0.1c0,0,0,0-0.1,0.1c0,0.1,0,0.1,0,0.1
	c-0.1,0.1-0.1,0.1-0.1,0.2c-0.1,0.1-0.1,0.1-0.1,0.1c0,0.1,0,0.1,0,0.2s0,0.1,0,0.2c0,0,0,0,0,0.1s0,0.1,0,0.2
	c0.1,0.1,0.1,0.1,0.1,0.2c0,0,0,0,0.1,0.1l3.3,5.4c0,0.1,0,0.1,0.1,0.2c0.1,0.1,0.1,0.1,0.2,0.2c0.1,0.1,0.1,0.1,0.2,0.1
	c0.1,0.1,0.2,0.1,0.3,0.1c0.1,0,0.1,0,0.2,0c0.1,0.1,0.2,0.1,0.3,0c0.1,0,0.2,0,0.3,0c0.1-0.1,0.1-0.1,0.2-0.1l6.2-3.8
	c0.1-0.1,0.1-0.1,0.2-0.1c0.1,0,0.2,0,0.3-0.1c0.1,0,0.1,0,0.2,0c0.1,0,0.2,0,0.3,0c0.1,0.1,0.1,0.1,0.2,0.1
	c0.1,0.1,0.1,0.1,0.2,0.2c0.1,0,0.1,0,0.2,0.1c0.1,0.1,0.1,0.1,0.2,0.2l1.2,2.1c0.1,0.1,0.2,0.3,0.2,0.5c0,0.1,0,0.3,0,0.5
	c-0.1,0.1-0.1,0.3-0.2,0.4c-0.1,0.1-0.3,0.3-0.4,0.4l-6.2,3.7c-0.1,0.1-0.1,0.1-0.2,0.2c-0.1,0.1-0.1,0.1-0.2,0.2s-0.1,0.1-0.1,0.2
	c-0.1,0.1-0.1,0.1-0.1,0.2s0,0.2,0,0.3c-0.1,0.1-0.1,0.1,0,0.2c0,0.1,0,0.2,0,0.3c0.1,0.1,0.1,0.1,0.1,0.2l2.7,4.5
	c0.1,0.1,0.1,0.1,0.2,0.2c0.1,0.1,0.1,0.1,0.2,0.2c0.1,0.1,0.1,0.1,0.2,0.1c0.1,0.1,0.1,0.1,0.2,0.1c0.1,0,0.2,0,0.3,0
	c0.1,0.1,0.2,0.1,0.3,0c0.1,0,0.1,0,0.2,0c0.1-0.1,0.1-0.1,0.2-0.1L192.2,78.9z"/>
<path class="st1" d="M238.8,61.6v-0.2l-0.3,0.1c-0.7,0-1.5-0.1-2.3-0.2c-0.7-0.2-1.4-0.5-2.1-0.8c-0.7-0.3-1.4-0.8-2-1.3
	c-0.6-0.5-1.1-1-1.6-1.6c0-0.1,0-0.1-0.1-0.1c0-0.1,0-0.1-0.1-0.2c0-0.1,0-0.1,0-0.2c0-0.1,0-0.1-0.1-0.1c0-0.1,0-0.1,0-0.2
	c0-0.1,0-0.1,0.1-0.2c0-0.1,0-0.1,0-0.2c0,0,0,0,0-0.1c0.1-0.1,0.1-0.1,0.1-0.2c0.1-0.1,0.1-0.1,0.1-0.1c0.1-0.1,0.1-0.1,0.1-0.1
	c0.1-0.1,0.1-0.1,0.2-0.2l2-1.4c0.1,0,0.1,0,0.2-0.1c0.1,0,0.1,0,0.2-0.1c0.1,0,0.1,0,0.2,0c0.1,0,0.2,0,0.3,0c0.1,0,0.1,0,0.2,0.1
	c0.1,0,0.1,0,0.2,0c0.1,0.1,0.1,0.1,0.2,0.2c0.1,0,0.1,0,0.2,0.1c1.9,2.1,4.3,2.6,7.2,1.4c0.1,0,0.2,0,0.3-0.1
	c0.1-0.1,0.3-0.1,0.4-0.2c0.1-0.1,0.2-0.1,0.3-0.2c0.1-0.1,0.3-0.1,0.4-0.2c0.1-0.1,0.2-0.2,0.3-0.3c0.1-0.1,0.3-0.2,0.4-0.3
	c0.1-0.1,0.2-0.2,0.3-0.3c0.1-0.1,0.2-0.2,0.3-0.3c0.1-0.1,0.2-0.3,0.3-0.4c0.1-0.1,0.2-0.3,0.3-0.4c0.1-0.1,0.1-0.3,0.1-0.4
	c0.1-0.2,0.1-0.4,0.1-0.5c0.1-0.2,0.1-0.4,0.1-0.5c0-0.2,0-0.4,0-0.5c-0.1-0.2-0.1-0.4-0.1-0.5c-0.1-0.2-0.1-0.4-0.2-0.5
	c-0.1-0.3-0.2-0.5-0.4-0.7c-0.1-0.2-0.3-0.4-0.5-0.6c-0.2-0.1-0.4-0.3-0.7-0.4c-0.2-0.1-0.4-0.2-0.7-0.3c-0.5-0.1-0.9-0.2-1.4-0.3
	c-0.5-0.1-0.9-0.1-1.3-0.1c-0.5-0.1-0.9-0.1-1.4-0.2c-0.5,0-0.9,0-1.4,0c-0.9,0-1.5,0-2,0c-0.5-0.1-1.1-0.1-2-0.2
	c-0.1,0-0.3,0-0.5,0c-0.1-0.1-0.3-0.1-0.5-0.1c-0.1,0-0.3,0-0.5-0.1c-0.1,0-0.3,0-0.5-0.1c-0.1-0.1-0.3-0.1-0.4-0.1
	c-0.1-0.1-0.3-0.1-0.5-0.2c-0.1-0.1-0.3-0.1-0.4-0.1c-0.1-0.1-0.3-0.1-0.5-0.2c-0.1-0.1-0.3-0.1-0.4-0.2c-0.2-0.1-0.4-0.1-0.5-0.2
	c-0.1-0.1-0.3-0.2-0.4-0.3c-0.1-0.1-0.3-0.2-0.4-0.3c-0.3-0.2-0.5-0.4-0.8-0.7c-0.2-0.3-0.4-0.5-0.6-0.8c-0.3-0.3-0.5-0.6-0.6-0.9
	c-0.2-0.3-0.4-0.7-0.5-1c-0.1-0.2-0.1-0.4-0.2-0.7c-0.1-0.3-0.1-0.5-0.2-0.7c-0.1-0.3-0.1-0.5-0.1-0.8c-0.1-0.3-0.1-0.5-0.1-0.8
	s0-0.5,0.1-0.8c0-0.3,0-0.6,0-0.9c0.1-0.3,0.1-0.5,0.2-0.8c0.1-0.3,0.1-0.5,0.2-0.8c0.1-0.3,0.2-0.7,0.3-1c0.1-0.3,0.3-0.6,0.5-0.9
	c0.1-0.3,0.3-0.5,0.5-0.8s0.4-0.5,0.7-0.7c0.3-0.3,0.6-0.5,0.9-0.8c0.3-0.3,0.7-0.5,1-0.7c0.3-0.2,0.7-0.4,1-0.6
	c0.3-0.2,0.7-0.4,1.1-0.5c4.4-1.8,8.3-1.3,11.7,1.5c0.1,0.1,0.1,0.1,0.2,0.2c0.1,0.1,0.1,0.1,0.1,0.2c0.1,0.1,0.1,0.2,0.1,0.3
	c0.1,0.1,0.1,0.1,0.1,0.2c0,0.1,0,0.2,0,0.3c-0.1,0.1-0.1,0.2-0.1,0.3c-0.1,0.1-0.1,0.1-0.1,0.2c-0.1,0.1-0.1,0.1-0.2,0.2l-1.7,1.7
	c-0.1,0.1-0.1,0.1-0.2,0.1c-0.1,0.1-0.1,0.1-0.2,0.2c-0.1,0-0.1,0-0.2,0c-0.1,0.1-0.1,0.1-0.2,0.1c-0.1,0-0.2,0-0.3,0
	c-0.1,0-0.1,0-0.2-0.1c-0.1,0-0.1,0-0.2-0.1c-0.1,0-0.1,0-0.2-0.1c-1.8-1.4-4-1.6-6.5-0.6c-0.1,0.1-0.3,0.1-0.4,0.2
	c-0.1,0.1-0.3,0.1-0.4,0.2c-0.1,0.1-0.3,0.1-0.4,0.2c-0.1,0.1-0.3,0.2-0.4,0.3c-0.1,0.1-0.2,0.1-0.3,0.2c-0.1,0.1-0.2,0.1-0.3,0.2
	c-0.1,0.1-0.1,0.2-0.2,0.3s-0.1,0.2-0.2,0.3c-0.1,0.1-0.1,0.1-0.2,0.2c0,0.1,0,0.2-0.1,0.3c-0.1,0.1-0.1,0.2-0.1,0.3
	c-0.1,0.1-0.1,0.2-0.1,0.3c-0.1,0.1-0.1,0.1-0.1,0.2c-0.1,0.1-0.1,0.2-0.1,0.3c0,0.1,0,0.1,0,0.2c0,0.1,0,0.2-0.1,0.3
	c0,0.1,0,0.1,0,0.2c0,0.1,0,0.1,0,0.2c0,0.1,0,0.1,0,0.2c0,0.1,0,0.2,0,0.3c0.1,0,0.1,0,0.1,0.1c0,0.1,0,0.1,0,0.2c0,0,0,0,0,0.1
	c0,0.1,0,0.1,0.1,0.1l0.1,0.3c0.1,0.2,0.2,0.4,0.3,0.6c0.1,0.2,0.3,0.4,0.5,0.6c0.2,0.1,0.4,0.3,0.6,0.4c0.3,0.1,0.5,0.1,0.7,0.2
	c0.5,0.1,0.9,0.1,1.3,0.2c0.5,0.1,0.9,0.1,1.3,0.2c0.5,0.1,0.9,0.1,1.4,0.1c0.4,0,0.8,0,1.3,0l2.7,0.1c0.1,0,0.3,0,0.4,0
	s0.3,0,0.4,0.1c0.1,0,0.3,0,0.4,0c0.1,0,0.2,0,0.3,0l1.4,0.3c0.1,0,0.3,0,0.4,0.1c0.1,0,0.2,0,0.3,0c0.1,0.1,0.3,0.1,0.4,0.1
	c0.1,0.1,0.2,0.1,0.3,0.1l1.3,0.6c0.1,0,0.2,0,0.3,0.1c0.1,0.1,0.2,0.1,0.3,0.2c0.1,0.1,0.2,0.1,0.3,0.2c0.1,0.1,0.2,0.1,0.3,0.2
	c0.3,0.3,0.7,0.6,1.1,0.9c0.1,0.1,0.2,0.2,0.3,0.3c0.1,0.1,0.1,0.2,0.2,0.3c0.1,0.1,0.2,0.2,0.3,0.3c0.1,0.1,0.1,0.2,0.2,0.3
	c0.1,0.1,0.1,0.3,0.2,0.4c0.1,0.1,0.1,0.3,0.2,0.4c0.1,0.1,0.1,0.3,0.2,0.4c0.1,0.1,0.1,0.3,0.2,0.4c0.3,0.6,0.4,1.2,0.5,1.9
	c0.1,0.7,0.2,1.3,0.1,2c0,0.6-0.1,1.2-0.3,1.9c-0.3,0.6-0.6,1.2-0.9,1.8c-0.3,0.5-0.7,1-1.1,1.5c-0.3,0.5-0.8,0.9-1.3,1.3
	c-0.5,0.3-0.9,0.7-1.4,1c-0.5,0.3-1.1,0.6-1.7,0.8c-0.4,0.1-0.8,0.3-1.1,0.4c-0.4,0.1-0.8,0.3-1.2,0.4c-0.4,0.1-0.8,0.1-1.3,0.2
	C239.6,61.6,239.2,61.6,238.8,61.6L238.8,61.6z"/>
<path class="st1" d="M302.2,41.2c-0.1,0.1-0.1,0.1-0.2,0.1s-0.2,0-0.3,0c-0.1-0.1-0.1-0.1-0.2-0.1c-0.1-0.1-0.2-0.1-0.3-0.1
	c-0.1-0.1-0.1-0.1-0.2-0.2c-0.1-0.1-0.1-0.1-0.1-0.2c-0.1-0.1-0.1-0.1-0.1-0.2c-0.1-0.1-0.1-0.1-0.1-0.2l-5.4-23.7
	c0-0.1,0-0.2,0-0.3c-0.1-0.1-0.1-0.1-0.2-0.2c0-0.1,0-0.1-0.1-0.2c-0.1-0.1-0.1-0.1-0.2-0.1c-0.1-0.1-0.2-0.1-0.3-0.1
	c-0.1-0.1-0.1-0.1-0.2-0.1c-0.1,0-0.1,0-0.2,0c-0.1,0-0.2,0-0.3,0l-6,1.4c-0.1,0-0.1,0-0.2,0c-0.1,0-0.2,0-0.3,0
	c-0.1,0-0.2,0-0.3-0.1c-0.1,0-0.1,0-0.2-0.1c-0.1-0.1-0.1-0.1-0.2-0.2c-0.1,0-0.1,0-0.1-0.1c-0.1-0.1-0.1-0.2-0.2-0.3
	c0-0.1,0-0.1,0-0.2l-0.6-2.4c0-0.1,0-0.2,0-0.3c0-0.1,0-0.1,0-0.2c0-0.1,0-0.2,0.1-0.3c0-0.1,0-0.1,0.1-0.2c0-0.1,0-0.1,0.1-0.2
	c0.1-0.1,0.1-0.1,0.2-0.2c0.1-0.1,0.1-0.1,0.2-0.1c0.1-0.1,0.2-0.1,0.3-0.1l19.4-4.4c0.1,0,0.2,0,0.3,0c0.1,0,0.1,0,0.2,0
	c0.1,0,0.2,0,0.3,0.1c0.1,0,0.1,0,0.2,0.1c0.1,0.1,0.1,0.1,0.2,0.1c0.1,0.1,0.1,0.1,0.2,0.2c0,0.1,0,0.1,0.1,0.2
	c0,0.1,0,0.2,0.1,0.3l0.5,2.4c0,0.1,0,0.1,0,0.2c0,0.1,0,0.2,0,0.3s0,0.1,0,0.2c-0.1,0.1-0.1,0.2-0.2,0.3c0,0.1,0,0.1-0.1,0.2
	c-0.1,0.1-0.1,0.1-0.2,0.1c-0.1,0.1-0.1,0.1-0.2,0.2c-0.1,0-0.2,0-0.3,0l-6,1.4c-0.1,0-0.1,0-0.2,0.1c-0.1,0-0.1,0-0.2,0.1
	c-0.1,0.1-0.1,0.1-0.2,0.2c-0.1,0.1-0.1,0.1-0.2,0.2c0,0.1,0,0.1-0.1,0.2c0,0.1,0,0.1,0,0.2c-0.1,0.1-0.1,0.2-0.1,0.3
	c0,0.1,0,0.2,0.1,0.3l5.3,23.6c0.1,0.1,0.1,0.2,0.1,0.3s0,0.2,0,0.3c-0.1,0.1-0.1,0.1-0.1,0.2c-0.1,0.1-0.1,0.1-0.2,0.2
	c0,0.1,0,0.2-0.1,0.2c-0.1,0.1-0.1,0.1-0.2,0.2c-0.1,0.1-0.1,0.1-0.2,0.1c-0.1,0.1-0.1,0.1-0.2,0.1L302.2,41.2z"/>
<path class="st0" d="M362.7,27.1c-0.1,0-0.3,0-0.4,0.1c-0.1,0-0.3,0.1-0.4,0.2c-0.1,0.1-0.1,0.2-0.2,0.3c-0.1,0.1-0.2,0.2-0.2,0.3
	l-1,3.4c-0.1,0.1-0.1,0.2-0.2,0.3c-0.1,0.1-0.2,0.2-0.3,0.3c-0.1,0.1-0.2,0.2-0.3,0.2c-0.1,0.1-0.3,0.1-0.4,0.1l-2.6,0.1
	c-0.1,0-0.2,0-0.3,0c-0.1,0-0.2,0-0.3-0.1c-0.1-0.1-0.1-0.1-0.2-0.2s-0.1-0.1-0.2-0.2s-0.1-0.1-0.2-0.2c-0.1-0.1-0.1-0.2-0.1-0.3
	c0-0.1,0-0.2,0-0.3c0-0.1,0-0.3,0-0.4l9.1-29.6c0.1-0.1,0.1-0.3,0.2-0.4c0.1-0.1,0.2-0.2,0.3-0.3c0.1-0.1,0.2-0.1,0.3-0.2
	c0.1,0,0.3,0,0.4,0l3.4-0.2c0.1,0,0.3,0,0.4,0c0.1,0.1,0.3,0.1,0.4,0.2s0.2,0.1,0.3,0.2c0.1,0.1,0.1,0.3,0.2,0.4l12.2,28.5
	c0,0.1,0,0.2,0.1,0.3c0,0.1,0,0.2,0,0.3c0,0.1,0,0.2-0.1,0.3c0,0.1,0,0.2-0.1,0.3c-0.1,0.1-0.1,0.1-0.2,0.2
	c-0.1,0.1-0.1,0.1-0.2,0.2c-0.1,0.1-0.2,0.1-0.3,0.1c-0.1,0.1-0.2,0.1-0.3,0.1l-2.6,0.1c-0.1,0.1-0.3,0.1-0.4,0
	c-0.1,0-0.3,0-0.4-0.1c-0.1-0.1-0.2-0.2-0.3-0.3c-0.1-0.1-0.1-0.2-0.2-0.3l-1.3-3.3c-0.1-0.1-0.1-0.2-0.2-0.3
	c-0.1-0.1-0.2-0.2-0.3-0.3c-0.1-0.1-0.3-0.1-0.4-0.1c-0.1-0.1-0.3-0.1-0.4,0L362.7,27.1z M368.2,8.3c0-0.1-0.2-0.2-0.3-0.2
	c-0.2,0-0.3,0.1-0.3,0.2l-4,12.8c0,0.1,0,0.1,0,0.2c0,0,0,0,0,0.1c0,0.1,0,0.1,0.1,0.2c0,0,0,0,0,0.1c0.1,0.1,0.1,0.1,0.2,0.1
	c0,0.1,0,0.1,0.1,0.1c0.1,0,0.1,0,0.1,0.1c0.1,0,0.1,0,0.2,0l8.6-0.5c0.1,0,0.1,0,0.1,0c0.1,0,0.1,0,0.2-0.1c0,0,0,0,0.1-0.1
	c0,0,0,0,0.1-0.1c0-0.1,0-0.1,0.1-0.2c0,0,0,0,0-0.1c0-0.1,0-0.1,0-0.2c0-0.1,0-0.1,0-0.1L368.2,8.3z"/>
<path class="st1" d="M447.3,31.5c-1.4,1.1-3,1.9-4.7,2.4c-1.6,0.5-3.4,0.6-5.2,0.4c-1.7-0.2-3.4-0.7-4.9-1.6c-1.6-0.9-2.9-2.1-4-3.5
	c-0.5-0.7-1-1.4-1.4-2.2c-0.4-0.8-0.7-1.6-1-2.5c-0.2-0.9-0.3-1.8-0.4-2.7c-0.1-0.9,0-1.8,0.1-2.7l2-17c0-0.1,0-0.3,0.1-0.5
	c0.1-0.1,0.3-0.2,0.4-0.3c0.1-0.1,0.3-0.2,0.4-0.3c0.1,0,0.3,0,0.5,0l2.4,0.3c0.1,0,0.2,0,0.3,0c0.1,0.1,0.1,0.1,0.2,0.1
	c0.1,0.1,0.1,0.1,0.2,0.2c0.1,0.1,0.1,0.1,0.2,0.2c0.1,0.1,0.1,0.1,0.1,0.2c0.1,0.1,0.1,0.1,0.1,0.2c0.1,0.1,0.1,0.1,0.1,0.2
	c0,0.1,0,0.2-0.1,0.3l-2,17c-0.1,0.5-0.1,1.1,0,1.7c0,0.5,0.1,1.1,0.3,1.7c0.1,0.5,0.3,1.1,0.6,1.6c0.2,0.5,0.5,0.9,0.9,1.4
	c0.6,0.9,1.5,1.6,2.4,2.2c1,0.5,2,0.9,3.1,1c1.1,0.2,2.2,0.1,3.3-0.3c1.1-0.3,2-0.8,2.9-1.5c0.5-0.3,0.9-0.7,1.2-1.2
	c0.4-0.4,0.7-0.9,1-1.4c0.3-0.5,0.5-1,0.6-1.5c0.2-0.6,0.3-1.2,0.4-1.7l2-17c0-0.2,0-0.4,0.1-0.5s0.2-0.3,0.3-0.4
	c0.1-0.1,0.3-0.1,0.5-0.2c0.1-0.1,0.3-0.1,0.5,0l2.4,0.3c0.1,0,0.2,0,0.3,0c0.1,0.1,0.1,0.1,0.2,0.1c0.1,0.1,0.1,0.1,0.2,0.2
	c0.1,0,0.1,0,0.2,0.1c0.1,0.1,0.1,0.2,0.1,0.3c0.1,0.1,0.1,0.1,0.1,0.2s0,0.2,0.1,0.3c0,0.1,0,0.1-0.1,0.2l-2,17
	c-0.1,0.9-0.2,1.8-0.5,2.7c-0.3,0.8-0.6,1.6-1.1,2.4c-0.4,0.8-0.9,1.5-1.5,2.2C448.6,30.3,448,30.9,447.3,31.5L447.3,31.5z"/>
<path class="st0" d="M499.8,41.3l-1.2,3.8c0,0.1,0,0.1-0.1,0.2c0,0.1,0,0.1-0.1,0.2c-0.1,0.1-0.1,0.1-0.2,0.2
	c-0.1,0.1-0.1,0.1-0.2,0.2c-0.1,0-0.1,0-0.2,0.1c-0.1,0-0.2,0-0.3,0c-0.1,0-0.1,0-0.2,0c-0.1,0-0.2,0-0.3-0.1l-2.4-0.7
	c-0.1,0-0.3-0.1-0.4-0.2c-0.1-0.1-0.2-0.2-0.3-0.4c-0.1-0.1-0.1-0.3-0.2-0.5c0-0.1,0-0.3,0.1-0.5l8.5-28c0-0.1,0-0.2,0.1-0.3
	c0-0.1,0-0.1,0.1-0.2c0.1-0.1,0.1-0.1,0.2-0.1c0.1-0.1,0.1-0.1,0.2-0.2c0.1,0,0.1,0,0.2-0.1c0.1,0,0.2,0,0.3,0c0.1,0,0.1,0,0.2,0
	c0.1,0,0.2,0,0.3,0l7.7,2.4c0.9,0.2,1.7,0.5,2.4,0.9c0.7,0.4,1.4,0.9,2,1.4c0.7,0.5,1.3,1,1.8,1.7s1,1.4,1.4,2.1
	c0.4,0.7,0.7,1.4,1,2.2c0.3,0.8,0.5,1.6,0.6,2.4c0.1,0.9,0.1,1.7,0,2.5c-0.1,0.8-0.2,1.6-0.4,2.4c-0.1,0.5-0.3,0.9-0.5,1.4
	c-0.2,0.4-0.4,0.8-0.6,1.2c-0.2,0.4-0.4,0.8-0.7,1.2s-0.6,0.8-0.9,1.1c-0.3,0.3-0.7,0.7-1,1c-0.3,0.3-0.7,0.6-1,0.9
	c-0.4,0.3-0.8,0.5-1.2,0.7c-0.4,0.3-0.8,0.5-1.2,0.6c-0.1,0.1-0.1,0.1-0.2,0.2c-0.1,0-0.1,0-0.2,0.1c-0.1,0.1-0.1,0.1-0.1,0.2
	c-0.1,0.1-0.1,0.1-0.2,0.2c0,0.1,0,0.1,0,0.2c-0.1,0.1-0.1,0.1-0.1,0.2s0,0.1,0,0.2c0,0.1,0,0.1,0.1,0.2l1.8,6.7c0,0.1,0,0.2,0,0.3
	c0,0.1,0,0.3,0,0.4c-0.1,0.1-0.1,0.2-0.2,0.3c-0.1,0.1-0.1,0.1-0.2,0.2c-0.1,0.1-0.1,0.2-0.2,0.3c-0.1,0-0.3,0-0.4,0.1
	c-0.1,0-0.2,0-0.3,0s-0.2,0-0.3,0l-2.8-0.9c-0.1,0-0.2,0-0.3-0.1c-0.1-0.1-0.2-0.1-0.3-0.2c-0.1-0.1-0.1-0.2-0.1-0.3
	c-0.1-0.1-0.1-0.2-0.2-0.3l-1.6-6.1c0-0.1,0-0.2-0.1-0.3c-0.1-0.1-0.1-0.2-0.2-0.3c-0.1-0.1-0.3-0.1-0.4-0.2
	c-0.1-0.1-0.2-0.1-0.3-0.1c-0.2,0-0.4,0-0.5,0c-0.2-0.1-0.4-0.1-0.5-0.1c-0.2-0.1-0.4-0.1-0.5-0.2c-0.2,0-0.4,0-0.5-0.1l-3.1-0.9
	c-0.1-0.1-0.2-0.1-0.3-0.1c-0.1,0-0.1,0-0.2,0c-0.1,0-0.2,0-0.3,0.1c-0.1,0-0.1,0-0.2,0c-0.1,0.1-0.1,0.1-0.2,0.2
	c-0.1,0.1-0.1,0.1-0.2,0.2c-0.1,0.1-0.1,0.1-0.1,0.2C499.8,41.2,499.8,41.2,499.8,41.3L499.8,41.3z M507.2,21c-0.1,0-0.2,0-0.3,0
	c-0.1-0.1-0.2-0.1-0.3,0c-0.1,0-0.2,0-0.3,0.1c-0.1,0.1-0.2,0.1-0.3,0.2c-0.1,0-0.1,0-0.1,0.1c-0.1,0.1-0.1,0.1-0.1,0.1
	c-0.1,0.1-0.1,0.1-0.1,0.2c0,0.1,0,0.1-0.1,0.1l-3.7,12.3c0,0.1,0,0.3,0,0.5c0,0.1,0.1,0.3,0.2,0.4c0.1,0.2,0.2,0.3,0.3,0.4
	c0.1,0.1,0.3,0.2,0.4,0.3l3.1,0.9c0.5,0.1,1,0.2,1.5,0.3c0.5,0.1,1,0.1,1.5,0c0.5,0,0.9-0.1,1.4-0.3c0.5-0.1,0.9-0.3,1.4-0.5
	c0.5-0.3,0.9-0.5,1.3-0.8c0.3-0.3,0.7-0.7,1-1.1c0.3-0.4,0.6-0.8,0.9-1.2c0.2-0.5,0.4-0.9,0.6-1.4c0.1-0.5,0.2-1,0.3-1.5
	c0.1-0.5,0.1-1,0-1.5s-0.2-1-0.3-1.5s-0.3-0.9-0.6-1.4s-0.6-0.9-0.9-1.3s-0.7-0.8-1.1-1.1c-0.4-0.3-0.8-0.6-1.2-0.8
	c-0.5-0.3-1-0.5-1.5-0.6L507.2,21z"/>
<path class="st0" d="M563.5,65.8c-0.1-0.1-0.3-0.1-0.4-0.1c-0.1-0.1-0.3-0.1-0.4-0.1c-0.1,0.1-0.3,0.1-0.4,0.2
	c-0.1,0-0.2,0.1-0.3,0.2l-2.6,2.4c-0.1,0.1-0.2,0.2-0.3,0.3c-0.1,0-0.2,0-0.3,0.1c-0.1,0-0.3,0-0.4,0c-0.1-0.1-0.3-0.1-0.4-0.2
	l-2.3-1.2c-0.1,0-0.2,0-0.3-0.1s-0.1-0.2-0.2-0.3c-0.1-0.1-0.1-0.2-0.1-0.3c-0.1-0.1-0.1-0.2-0.1-0.3c0-0.1,0-0.2,0-0.3
	c0-0.1,0-0.2,0.1-0.3c0-0.1,0-0.2,0.1-0.3c0.1-0.1,0.1-0.1,0.2-0.2L578,44.1c0.1-0.1,0.2-0.1,0.3-0.2c0.1-0.1,0.3-0.1,0.4-0.1
	c0.1,0,0.3,0,0.4,0c0.1,0,0.3,0,0.4,0.1l3,1.6c0.1,0.1,0.2,0.1,0.3,0.2c0.1,0.1,0.2,0.2,0.3,0.3s0.1,0.3,0.1,0.4s0,0.3,0,0.4
	l-3.6,30.8c0,0.1,0,0.2-0.1,0.3c0,0.1,0,0.2-0.1,0.3c-0.1,0.1-0.1,0.1-0.2,0.2s-0.2,0.1-0.3,0.2c-0.1,0.1-0.1,0.1-0.2,0.1
	c-0.1,0-0.2,0-0.3,0c-0.1,0-0.2,0-0.3,0c-0.1,0-0.2,0-0.3-0.1l-2.4-1.2c-0.1-0.1-0.2-0.1-0.3-0.2c-0.1-0.1-0.1-0.2-0.2-0.3
	c-0.1-0.1-0.1-0.3-0.2-0.4c0-0.1,0-0.3,0-0.4l0.5-3.5c0-0.1,0-0.3,0-0.4c-0.1-0.1-0.1-0.2-0.2-0.3c-0.1-0.1-0.1-0.2-0.2-0.3
	c-0.1-0.1-0.3-0.2-0.4-0.3L563.5,65.8z M577.6,52.3C577.6,52.2,577.6,52.2,577.6,52.3c0-0.2,0-0.2,0-0.2c-0.1-0.1-0.1-0.1-0.1-0.1
	c0,0,0,0-0.1,0c-0.1-0.1-0.2-0.1-0.3,0l-9.8,9.1c0,0.1,0,0.1-0.1,0.2c0,0,0,0-0.1,0.1c0,0.1,0,0.1,0,0.2c0,0,0,0,0,0.1
	c0,0.1,0,0.1,0,0.2c0.1,0,0.1,0,0.1,0.1c0.1,0.1,0.1,0.1,0.1,0.1c0.1,0.1,0.1,0.1,0.1,0.1l7.7,3.9c0.1,0,0.1,0,0.2,0
	c0,0.1,0,0.1,0.1,0.1s0.1,0,0.2-0.1c0.1,0,0.1,0,0.1,0c0.1,0,0.1,0,0.2-0.1c0-0.1,0-0.1,0.1-0.1c0-0.1,0-0.1,0.1-0.2c0,0,0,0,0-0.1
	L577.6,52.3z"/>
<path class="st1" d="M636.7,104.3C636.7,104.3,636.7,104.3,636.7,104.3c0.1,0.1,0.1,0.1,0.1,0.2c0,0,0,0,0.1,0c0,0.1,0,0.1,0.1,0.1
	c0,0,0,0,0.1,0c0,0,0,0,0.1,0c0,0,0,0,0.1-0.1l0,0l11.6-15.6c0.1-0.1,0.1-0.1,0.2-0.2c0.1,0,0.1,0,0.2-0.1c0.1-0.1,0.1-0.1,0.2-0.1
	c0.1-0.1,0.2-0.1,0.3-0.1c0.1,0,0.1,0,0.2,0c0.1,0,0.2,0,0.3,0.1c0.1,0,0.1,0,0.2,0c0.1,0.1,0.1,0.1,0.2,0.2l2,1.4
	c0.1,0.1,0.2,0.3,0.3,0.4c0.1,0.1,0.2,0.3,0.2,0.5c0.1,0.1,0.1,0.3,0,0.5c-0.1,0.1-0.1,0.3-0.2,0.4l-17.5,23.4c0,0.1,0,0.1-0.1,0.2
	s-0.1,0.1-0.2,0.1c-0.1,0.1-0.2,0.1-0.3,0.2c-0.1,0-0.1,0-0.2,0c-0.1,0-0.2,0-0.3,0c-0.1,0-0.1,0-0.2,0c-0.1,0-0.1,0-0.2-0.1
	c-0.1-0.1-0.2-0.1-0.3-0.1l-1-0.8c-0.1-0.1-0.1-0.1-0.2-0.2c-0.1-0.1-0.1-0.1-0.1-0.2c-0.1-0.1-0.1-0.2-0.1-0.3
	c-0.1-0.1-0.1-0.2-0.1-0.3L630.9,88c0,0,0,0,0-0.1c0,0,0,0,0-0.1c-0.1,0-0.1,0-0.1-0.1c-0.1,0-0.1,0-0.1,0c-0.1,0-0.1,0-0.1,0
	c-0.1,0-0.1,0-0.1,0c-0.1,0-0.1,0-0.1,0c-0.1,0.1-0.1,0.1-0.1,0.1L619,103c-0.1,0.1-0.1,0.1-0.2,0.2s-0.1,0.1-0.2,0.1
	c-0.1,0.1-0.1,0.1-0.2,0.1c-0.1,0.1-0.1,0.1-0.2,0.1c-0.1,0-0.2,0-0.3,0s-0.1,0-0.2,0c-0.1,0-0.2,0-0.3-0.1s-0.1-0.1-0.2-0.1l-2-1.5
	c-0.1-0.1-0.2-0.3-0.3-0.4c-0.1-0.1-0.2-0.3-0.2-0.5c0-0.1,0-0.3,0.1-0.5c0-0.1,0.1-0.3,0.2-0.4l17.4-23.4c0.1-0.1,0.1-0.1,0.2-0.2
	c0.1-0.1,0.1-0.1,0.2-0.1c0.1-0.1,0.1-0.1,0.2-0.1c0.1-0.1,0.1-0.1,0.2-0.1c0.1,0,0.2,0,0.3,0s0.1,0,0.2,0c0.1,0.1,0.2,0.1,0.3,0.1
	c0.1,0.1,0.1,0.1,0.2,0.1l0.7,0.6c0.1,0.1,0.1,0.1,0.2,0.2c0.1,0.1,0.1,0.1,0.2,0.2c0,0.1,0,0.2,0.1,0.3c0,0.1,0,0.2,0,0.3
	L636.7,104.3z"/>
<path class="st1" d="M672.6,151.1c-0.1-0.1-0.2-0.2-0.3-0.4c-0.1-0.1-0.1-0.3-0.1-0.5c0-0.1,0-0.3,0.1-0.4c0.1-0.2,0.2-0.4,0.3-0.5
	l17.5-16.8c0.1-0.1,0.1-0.1,0.2-0.2s0.1-0.1,0.1-0.2c0.1-0.1,0.1-0.1,0.1-0.2c0-0.1,0-0.2,0-0.3c0-0.1,0-0.1,0-0.2s0-0.2-0.1-0.3
	c0-0.1,0-0.1-0.1-0.2s-0.1-0.1-0.2-0.2l-4.2-4.4c-0.1-0.1-0.1-0.1-0.2-0.2s-0.1-0.2-0.1-0.3c-0.1-0.1-0.1-0.1-0.1-0.2s0-0.2,0-0.3
	c0-0.1,0-0.1,0-0.2c0.1-0.1,0.1-0.1,0.1-0.2c0.1-0.1,0.1-0.2,0.1-0.3c0.1-0.1,0.1-0.1,0.2-0.1l1.8-1.8c0.1-0.1,0.1-0.1,0.2-0.1
	c0.1-0.1,0.1-0.1,0.2-0.1c0.1-0.1,0.1-0.1,0.2-0.1c0.1,0,0.2,0,0.3,0c0.1,0,0.1,0,0.2,0c0.1,0,0.2,0,0.3,0.1c0.1,0,0.1,0,0.2,0.1
	s0.1,0.1,0.2,0.2l13.8,14.3c0.1,0.1,0.1,0.1,0.2,0.2c0,0.1,0,0.2,0.1,0.3c0,0.1,0,0.1,0,0.2c0.1,0.1,0.1,0.2,0,0.3
	c0,0.1,0,0.1,0,0.2c0,0.1,0,0.1,0,0.2c-0.1,0.1-0.1,0.2-0.2,0.3c0,0.1,0,0.1-0.1,0.1l-1.8,1.7c-0.1,0.1-0.1,0.1-0.2,0.2
	c-0.1,0.1-0.1,0.1-0.2,0.1c-0.1,0.1-0.2,0.1-0.3,0.1s-0.1,0-0.2,0c-0.1,0-0.2,0-0.3,0s-0.1,0-0.2-0.1c-0.1,0-0.2,0-0.3-0.1
	c-0.1-0.1-0.1-0.1-0.1-0.2l-4.3-4.4c-0.1-0.1-0.1-0.1-0.2-0.2s-0.1-0.1-0.2-0.1c-0.1-0.1-0.2-0.1-0.3-0.1c-0.1,0-0.1,0-0.2,0
	c-0.1,0-0.2,0-0.3,0c-0.1,0-0.1,0-0.2,0.1c-0.1,0-0.1,0-0.2,0.1c-0.1,0-0.1,0-0.2,0.1L676.1,153c-0.1,0.1-0.1,0.1-0.2,0.2
	c-0.1,0-0.1,0-0.2,0.1c-0.1,0-0.2,0-0.3,0c-0.1,0.1-0.1,0.1-0.2,0c-0.1,0-0.2,0-0.3,0s-0.1,0-0.2-0.1c-0.1,0-0.1,0-0.2-0.1
	c-0.1-0.1-0.1-0.1-0.2-0.1L672.6,151.1z"/>
<path class="st1" d="M72.4,620.5c-0.1-0.1-0.2-0.2-0.3-0.3c-0.2-0.1-0.4-0.2-0.5-0.2c-0.2-0.1-0.4-0.1-0.5,0
	c-0.2,0.1-0.4,0.1-0.5,0.2l-7.8,5.2c-0.1,0.1-0.3,0.1-0.4,0.2c-0.2,0-0.4,0-0.5,0c-0.2-0.1-0.4-0.1-0.5-0.2
	c-0.1-0.1-0.2-0.3-0.3-0.4l-1.4-2c-0.1-0.1-0.1-0.1-0.1-0.2c-0.1-0.1-0.1-0.1-0.1-0.2c0-0.1,0-0.2,0-0.3c0-0.1,0-0.1,0-0.2
	c0-0.1,0-0.2,0.1-0.3c0-0.1,0-0.1,0.1-0.2c0.1-0.1,0.1-0.1,0.2-0.2c0.1-0.1,0.1-0.1,0.2-0.1L84.4,605c0.1-0.1,0.2-0.1,0.3-0.1
	c0.1-0.1,0.1-0.1,0.2-0.1s0.2,0,0.3,0c0.1,0,0.1,0,0.2,0c0.1,0,0.2,0,0.3,0.1c0.1,0,0.1,0,0.2,0.1c0.1,0,0.1,0,0.2,0.1
	s0.1,0.1,0.1,0.2L96.7,621c0,0.1,0,0.1,0.1,0.1c0,0.1,0,0.1,0,0.2s0,0.1,0.1,0.2c0,0,0,0,0,0.1s0,0.1,0,0.2s0,0.1-0.1,0.2
	c0,0,0,0,0,0.1s0,0.1-0.1,0.2c0,0.1,0,0.1-0.1,0.1c0,0.1,0,0.1-0.1,0.2c0,0,0,0-0.1,0.1c0,0.1,0,0.1-0.1,0.1l-2,1.3
	c-0.1,0.1-0.1,0.1-0.2,0.2c-0.1,0-0.2,0-0.3,0c-0.1,0.1-0.2,0.1-0.3,0.1c-0.1,0-0.1,0-0.2-0.1c-0.1,0-0.1,0-0.2,0
	c-0.1-0.1-0.2-0.1-0.3-0.2c-0.1,0-0.1,0-0.2-0.1s-0.1-0.1-0.1-0.2l-7.7-11.5c-0.1-0.1-0.1-0.1-0.1-0.2c-0.1-0.1-0.1-0.1-0.2-0.2
	c-0.1,0-0.1,0-0.2-0.1c-0.1,0-0.2,0-0.3-0.1c-0.1,0-0.1,0-0.2,0c-0.1,0-0.2,0-0.3,0c-0.1,0.1-0.2,0.1-0.3,0.1
	c-0.1,0.1-0.1,0.1-0.2,0.1l-6,4.1c-0.1,0.1-0.1,0.1-0.2,0.2c-0.1,0-0.1,0.1-0.2,0.2c0,0.1,0,0.1-0.1,0.2c0,0.1,0,0.1,0,0.2
	c-0.1,0.1-0.1,0.2-0.1,0.3c0,0.1,0,0.1,0.1,0.2c0,0.1,0,0.1,0,0.2c0.1,0.1,0.1,0.2,0.1,0.3l4.4,6.5c0.1,0.1,0.1,0.2,0.1,0.3
	c0.1,0.1,0.1,0.1,0.1,0.2c0,0.1,0,0.1,0,0.2c0,0.1,0,0.2,0,0.3s0,0.1-0.1,0.2c0,0.1,0,0.2-0.1,0.3c-0.1,0.1-0.1,0.1-0.2,0.1
	c0,0.1-0.1,0.1-0.2,0.2l-2,1.4c-0.1,0-0.1,0-0.2,0.1c-0.1,0-0.1,0-0.2,0.1c-0.1,0-0.2,0-0.3,0c-0.1,0-0.2,0-0.3-0.1
	c-0.1,0-0.1,0-0.2,0c-0.1-0.1-0.1-0.1-0.2-0.1c-0.1-0.1-0.1-0.1-0.2-0.2c-0.1-0.1-0.1-0.1-0.1-0.2L72.4,620.5z"/>
<path class="st0" d="M87.2,652.8l-3,2.5c-0.1,0.1-0.1,0.1-0.2,0.2c-0.1,0-0.2,0-0.3,0.1c-0.1,0-0.1,0-0.2,0s-0.2,0-0.3,0
	c-0.1,0-0.1,0-0.2,0c-0.1-0.1-0.1-0.1-0.2-0.1c-0.1-0.1-0.1-0.1-0.2-0.2c-0.1-0.1-0.1-0.1-0.2-0.2l-1.6-1.9
	c-0.1-0.1-0.1-0.3-0.2-0.4c-0.1-0.2-0.1-0.4-0.1-0.5c0.1-0.2,0.1-0.4,0.2-0.5s0.2-0.3,0.3-0.4l22.8-18.5c0.1,0,0.1,0,0.2-0.1
	s0.1-0.1,0.2-0.1s0.2,0,0.3,0c0.1-0.1,0.1-0.1,0.2,0c0.1,0,0.2,0,0.3,0c0.1,0,0.1,0,0.2,0.1s0.1,0.1,0.2,0.1
	c0.1,0.1,0.1,0.1,0.2,0.2l5.1,6.3c0.5,0.7,1,1.4,1.4,2.1s0.7,1.5,1,2.3c0.2,0.8,0.3,1.6,0.4,2.4c0.1,0.8,0.1,1.6,0,2.5
	c0,0.8-0.1,1.6-0.4,2.4c-0.2,0.8-0.5,1.6-0.9,2.3c-0.3,0.7-0.8,1.4-1.3,2.1c-0.5,0.7-1.1,1.3-1.8,1.8c-0.3,0.3-0.7,0.5-1.1,0.8
	s-0.8,0.5-1.2,0.7c-0.4,0.2-0.8,0.4-1.3,0.6c-0.4,0.1-0.8,0.3-1.3,0.4c-0.5,0.1-0.9,0.2-1.4,0.3c-0.4,0.1-0.8,0.1-1.3,0.1
	c-0.5,0-0.9,0-1.4,0c-0.5-0.1-0.9-0.1-1.4-0.2c-0.1,0-0.1,0-0.2,0s-0.1,0-0.2,0s-0.2,0-0.3,0.1c-0.1,0-0.1,0-0.2,0.1
	c-0.1,0-0.1,0-0.2,0.1c0,0.1,0,0.1-0.1,0.2c-0.1,0.1-0.1,0.1-0.1,0.2c-0.1,0-0.1,0-0.1,0.1l-2.3,6.6c0,0.1,0,0.2-0.1,0.3
	s-0.1,0.2-0.2,0.3c-0.1,0.1-0.2,0.1-0.3,0.1c-0.1,0.1-0.3,0.1-0.4,0.1c-0.1,0.1-0.2,0.1-0.3,0c-0.1,0-0.2,0-0.3,0
	c-0.1-0.1-0.2-0.1-0.3-0.2c-0.1-0.1-0.2-0.1-0.3-0.2l-1.8-2.3c-0.1-0.1-0.1-0.1-0.2-0.2c0-0.1,0-0.2-0.1-0.3c0-0.1,0-0.3,0-0.4
	c0-0.1,0-0.2,0.1-0.3l2-6c0.1-0.1,0.1-0.3,0.1-0.4c0-0.1,0-0.2,0-0.3s-0.1-0.3-0.2-0.4c-0.1-0.1-0.1-0.2-0.2-0.3
	c-0.1-0.1-0.3-0.2-0.4-0.3s-0.2-0.2-0.3-0.3c-0.1-0.1-0.3-0.3-0.4-0.4c-0.1-0.1-0.2-0.3-0.3-0.4L89,653c-0.1-0.1-0.1-0.1-0.2-0.2
	c-0.1-0.1-0.1-0.1-0.2-0.1c-0.1-0.1-0.1-0.1-0.2-0.1s-0.1,0-0.2-0.1c-0.1,0-0.2,0-0.3,0c-0.1,0-0.1,0-0.2,0.1c-0.1,0-0.1,0-0.2,0.1
	C87.4,652.7,87.3,652.7,87.2,652.8L87.2,652.8z M104.8,640.2C104.8,640.1,104.8,640.1,104.8,640.2c-0.1-0.2-0.1-0.2-0.2-0.2
	c-0.1-0.1-0.1-0.1-0.1-0.1c-0.1-0.1-0.1-0.1-0.2-0.1s-0.1,0-0.1,0c-0.1-0.1-0.1-0.1-0.2-0.1s-0.1,0-0.2,0s-0.1,0-0.1,0
	c-0.1,0-0.1,0-0.2,0.1c-0.1,0-0.1,0-0.2,0c-0.1,0.1-0.1,0.1-0.1,0.1c-0.1,0-0.1,0-0.2,0.1l-9.9,8.1c-0.1,0-0.1,0-0.2,0.1
	c0,0.1,0,0.1-0.1,0.2c-0.1,0.1-0.1,0.2-0.1,0.3c0,0.1,0,0.1,0,0.2c0,0.1,0,0.2,0,0.3c0,0.1,0,0.1,0,0.2c0,0.1,0,0.1,0.1,0.2
	c0,0.1,0,0.2,0.1,0.2l2.1,2.6c0.3,0.4,0.7,0.8,1,1.1c0.4,0.3,0.8,0.6,1.3,0.8c0.4,0.3,0.8,0.5,1.3,0.6c0.5,0.1,1,0.2,1.5,0.3
	c0.5,0.1,1,0.1,1.5,0c0.5-0.1,1-0.2,1.5-0.3c0.5-0.1,0.9-0.3,1.4-0.5c0.4-0.2,0.8-0.5,1.2-0.8s0.8-0.7,1.1-1.1
	c0.3-0.3,0.6-0.7,0.9-1.2c0.2-0.5,0.4-0.9,0.6-1.4c0.1-0.5,0.2-1,0.2-1.5c0.1-0.5,0.1-1.1,0.1-1.6c-0.1-0.5-0.2-1-0.3-1.5
	c-0.2-0.5-0.4-0.9-0.6-1.4c-0.3-0.5-0.6-0.9-0.9-1.3L104.8,640.2z"/>
<path class="st0" d="M121.7,695.8c-1.3-0.3-2.5-0.7-3.7-1.4c-1.1-0.6-2.2-1.4-3.1-2.3s-1.7-2-2.4-3.2c-0.7-1.1-1.1-2.4-1.4-3.7
	c-0.1-0.6-0.2-1.3-0.3-2c-0.1-0.7-0.1-1.3-0.1-2c0-0.7,0.1-1.3,0.2-2s0.3-1.3,0.5-2c0.4-1.3,1-2.6,1.7-3.8c0.7-1.2,1.6-2.3,2.6-3.3
	s2.1-1.9,3.3-2.6c1.2-0.7,2.5-1.3,3.8-1.8c0.7-0.2,1.3-0.3,2-0.4c0.7-0.1,1.3-0.2,2-0.2c0.7-0.1,1.3-0.1,2,0s1.3,0.2,2,0.3
	c1.1,0.3,2.2,0.7,3.3,1.2c1,0.5,1.9,1.2,2.8,1.9c0.9,0.8,1.7,1.7,2.4,2.6c0.6,0.9,1.1,2,1.6,3.1c0.1,0.5,0.3,0.9,0.4,1.4
	s0.3,0.9,0.4,1.4c0.1,0.5,0.1,1,0.1,1.5c0.1,0.5,0.1,1,0.1,1.5c-0.1,0.5-0.1,1-0.2,1.5c-0.1,0.5-0.2,1-0.3,1.5
	c-0.1,0.5-0.2,1-0.4,1.5c-0.1,0.5-0.3,0.9-0.5,1.4c-0.5,1.1-1.2,2.2-1.9,3.2c-0.7,1-1.5,1.9-2.4,2.8c-0.9,0.8-1.9,1.5-3,2.1
	c-1.1,0.6-2.3,1.1-3.4,1.5c-0.7,0.2-1.3,0.4-2,0.5c-0.7,0.1-1.3,0.1-2,0.2c-0.7,0-1.4,0-2.1-0.1C123,696,122.4,695.9,121.7,695.8
	L121.7,695.8z M136.8,680c0.1-1.3-0.1-2.7-0.5-3.9c-0.5-1.3-1.2-2.4-2.2-3.4c-0.9-0.9-2.1-1.7-3.3-2.1c-1.3-0.5-2.7-0.6-4-0.5
	c-1.4,0.1-2.8,0.5-4.1,1.1c-1.3,0.6-2.5,1.4-3.5,2.4s-1.8,2.2-2.4,3.5s-1,2.7-1.1,4.1c-0.1,1.4,0.1,2.7,0.5,4
	c0.5,1.2,1.2,2.4,2.2,3.3c0.9,1,2.1,1.7,3.4,2.2c1.2,0.4,2.6,0.6,3.9,0.5c1.4-0.2,2.8-0.5,4.1-1.1s2.5-1.5,3.5-2.5s1.9-2.2,2.4-3.5
	C136.3,682.8,136.7,681.4,136.8,680z"/>
<path class="st1" d="M154.6,703.1c0-0.1,0-0.2,0-0.3c-0.1-0.1-0.1-0.1-0.2-0.2c-0.1-0.1-0.2-0.1-0.3,0c-0.1,0-0.2,0-0.3,0.1
	l-11.4,12.4c-0.1,0.1-0.1,0.1-0.2,0.2c-0.1,0-0.1,0-0.2,0.1c-0.1,0-0.1,0-0.2,0.1c-0.1,0-0.2,0-0.3,0c-0.1,0-0.1,0-0.2,0
	s-0.1,0-0.2,0c-0.1-0.1-0.2-0.1-0.3-0.1c-0.1-0.1-0.1-0.1-0.2-0.2l-1.9-1.5c-0.1-0.1-0.2-0.2-0.3-0.4c-0.1-0.1-0.1-0.3-0.2-0.5
	c0-0.1,0-0.3,0.1-0.5c0.1-0.1,0.1-0.3,0.2-0.4l19.9-21.5c0.1-0.1,0.1-0.1,0.2-0.2c0.1-0.1,0.1-0.1,0.2-0.1c0.1-0.1,0.1-0.1,0.2-0.1
	c0.1,0,0.1,0,0.2,0c0.1-0.1,0.2-0.1,0.3,0c0.1,0,0.1,0,0.2,0s0.1,0,0.2,0.1c0.1,0,0.1,0,0.2,0.1l0.8,0.7c0.1,0.1,0.2,0.1,0.3,0.2
	c0.1,0.1,0.1,0.2,0.2,0.3c0,0.1,0,0.2,0.1,0.3c0,0.1,0,0.3-0.1,0.4l-3.2,20c0,0,0,0,0,0.1c0,0,0,0,0,0.1s0,0.1,0.1,0.1
	c0,0.1,0,0.1,0,0.1c0.1,0,0.1,0,0.1,0c0.1,0.1,0.1,0.1,0.2,0.1c0,0,0,0,0.1,0c0,0,0,0,0.1-0.1l18.6-8c0.1,0,0.3,0,0.4,0
	c0.1-0.1,0.2-0.1,0.3,0c0.1,0,0.3,0,0.4,0.1c0.1,0,0.1,0,0.2,0.1l0.9,0.7c0.1,0.1,0.2,0.2,0.3,0.4c0.1,0.1,0.1,0.3,0.2,0.4
	c0,0.1,0,0.3-0.1,0.5c0,0.1,0,0.3-0.1,0.4l-16.2,24.4c0,0.1,0,0.1-0.1,0.2s-0.1,0.1-0.2,0.2c-0.1,0.1-0.2,0.1-0.3,0.1
	c-0.1,0.1-0.1,0.1-0.2,0.1c-0.1,0-0.2,0-0.3,0s-0.2,0-0.3,0c-0.1-0.1-0.1-0.1-0.2-0.1c-0.1-0.1-0.1-0.1-0.2-0.2l-1.9-1.5
	c-0.1,0-0.1,0-0.2-0.1s-0.1-0.1-0.1-0.2c-0.1-0.1-0.1-0.1-0.1-0.2c-0.1-0.1-0.1-0.2-0.1-0.3c0-0.1,0-0.1,0-0.2s0-0.1,0-0.2
	c0.1-0.1,0.1-0.2,0.1-0.3c0.1-0.1,0.1-0.1,0.1-0.2l9.3-14c0.1-0.1,0.1-0.1,0.1-0.1c0-0.1,0-0.1,0-0.2s0-0.1,0-0.1
	c0-0.1,0-0.1-0.1-0.2c0,0,0,0-0.1-0.1c-0.1,0-0.1,0-0.1,0c-0.1,0-0.1,0-0.2,0s-0.1,0-0.1,0l-14.6,6.2c-0.3,0.1-0.5,0.2-0.7,0.1
	c-0.3,0-0.5-0.1-0.6-0.2c-0.2-0.2-0.3-0.4-0.4-0.6c-0.1-0.2-0.2-0.4-0.1-0.7L154.6,703.1z"/>
<path class="st0" d="M203.9,752.3l-1.9,3.5c-0.1,0.1-0.1,0.1-0.1,0.2c-0.1,0.1-0.1,0.1-0.2,0.2c-0.1,0.1-0.1,0.1-0.2,0.1
	c-0.1,0.1-0.2,0.1-0.3,0.1c-0.1,0.1-0.1,0.1-0.2,0.1c-0.1,0-0.2,0-0.3,0c-0.1,0-0.1,0-0.2-0.1c-0.1,0-0.2,0-0.3-0.1l-2.1-1.1
	c-0.1-0.1-0.1-0.1-0.2-0.2c-0.1,0-0.1,0-0.2-0.1c-0.1-0.1-0.1-0.1-0.1-0.2c-0.1-0.1-0.1-0.2-0.1-0.3c-0.1-0.1-0.1-0.1-0.1-0.2
	c0-0.1,0-0.2,0-0.3c0-0.1,0-0.1,0.1-0.2c0-0.1,0-0.2,0.1-0.3l13.8-25.8c0.1-0.1,0.1-0.1,0.2-0.2c0-0.1,0-0.1,0.1-0.2
	c0.1-0.1,0.1-0.1,0.2-0.1c0.1-0.1,0.2-0.1,0.3-0.1c0.1-0.1,0.1-0.1,0.2-0.1c0.1,0,0.2,0,0.3,0c0.1,0,0.1,0,0.2,0
	c0.1,0.1,0.2,0.1,0.3,0.1l7.1,3.9c0.7,0.3,1.4,0.8,2.1,1.3c0.7,0.5,1.3,1.1,1.8,1.8c0.5,0.6,1,1.3,1.4,2c0.3,0.7,0.6,1.5,0.9,2.3
	s0.5,1.6,0.6,2.4c0.1,0.9,0.1,1.7,0,2.5c-0.1,0.8-0.2,1.6-0.4,2.4c-0.3,0.8-0.6,1.6-1,2.3c-0.2,0.5-0.4,0.9-0.7,1.2
	c-0.2,0.4-0.5,0.8-0.8,1.2c-0.3,0.3-0.6,0.7-1,1c-0.3,0.3-0.7,0.6-1,0.9c-0.4,0.3-0.8,0.5-1.2,0.8c-0.4,0.2-0.8,0.4-1.2,0.6
	s-0.8,0.4-1.3,0.5c-0.4,0.2-0.8,0.3-1.3,0.4c-0.1,0-0.1,0-0.2,0.1c-0.1,0-0.1,0-0.2,0.1c-0.1,0.1-0.1,0.1-0.2,0.1
	c-0.1,0.1-0.1,0.1-0.1,0.2c-0.1,0.1-0.1,0.1-0.1,0.2c-0.1,0.1-0.1,0.1-0.1,0.2c-0.1,0.1-0.1,0.1-0.1,0.2c0,0.1,0,0.1,0,0.2l0.5,6.9
	c0,0.1,0,0.3,0,0.4c-0.1,0.1-0.1,0.2-0.2,0.3c0,0.1-0.1,0.2-0.2,0.3c-0.1,0.1-0.1,0.1-0.2,0.2c-0.1,0.1-0.2,0.1-0.3,0.1
	c-0.1,0.1-0.3,0.1-0.4,0.1c-0.1,0-0.2,0-0.3,0c-0.1-0.1-0.2-0.1-0.3-0.2l-2.6-1.3c-0.1-0.1-0.1-0.1-0.2-0.2
	c-0.1-0.1-0.1-0.1-0.2-0.2c-0.1-0.1-0.1-0.2-0.2-0.3c0-0.1,0-0.2-0.1-0.3l-0.3-6.3c0-0.1,0-0.3-0.1-0.4c-0.1-0.1-0.1-0.2-0.2-0.3
	c-0.1-0.1-0.1-0.2-0.2-0.3c-0.1-0.1-0.3-0.1-0.4-0.2c-0.1,0-0.3,0-0.5-0.1c-0.1-0.1-0.3-0.1-0.4-0.2c-0.2-0.1-0.4-0.1-0.5-0.2
	c-0.1-0.1-0.3-0.1-0.4-0.2l-2.9-1.6c-0.1,0-0.1,0-0.2-0.1c-0.1,0-0.2,0-0.3,0c-0.1,0-0.1,0-0.2,0c-0.1,0-0.2,0-0.3,0
	c-0.1,0.1-0.1,0.1-0.2,0.1c-0.1,0.1-0.1,0.1-0.2,0.1c-0.1,0.1-0.1,0.1-0.2,0.2C203.9,752.2,203.9,752.2,203.9,752.3L203.9,752.3z
	 M215.2,733.9c-0.1-0.1-0.1-0.1-0.1-0.1c-0.1,0-0.1,0-0.2,0c-0.1-0.1-0.1-0.1-0.2-0.1c0,0,0,0-0.1,0c-0.1,0-0.1,0-0.2,0
	c-0.1,0.1-0.1,0.1-0.1,0.1c-0.1,0-0.1,0-0.2,0c-0.1,0.1-0.1,0.1-0.2,0.1c0,0,0,0-0.1,0.1s-0.1,0.1-0.1,0.1c-0.1,0.1-0.1,0.1-0.1,0.2
	c-0.1,0-0.1,0-0.1,0.1l-6,11.3c-0.1,0.1-0.1,0.1-0.1,0.2c-0.1,0.1-0.1,0.2-0.1,0.3c0,0.1,0,0.1,0,0.2c0.1,0.1,0.1,0.2,0.1,0.3
	c0,0.1,0,0.1,0.1,0.2c0,0.1,0,0.1,0.1,0.2c0.1,0.1,0.1,0.1,0.2,0.2c0.1,0.1,0.1,0.1,0.2,0.1l2.9,1.6c0.4,0.2,0.9,0.4,1.4,0.6
	c0.5,0.1,0.9,0.2,1.4,0.3c0.5,0,1,0,1.5,0c0.5-0.1,1-0.2,1.5-0.3c0.5-0.1,0.9-0.3,1.4-0.6c0.4-0.2,0.8-0.5,1.2-0.8
	c0.4-0.3,0.8-0.6,1.1-1c0.3-0.4,0.6-0.8,0.8-1.3c0.3-0.4,0.5-0.8,0.6-1.3c0.2-0.5,0.3-1,0.4-1.5c0-0.5,0-1.1-0.1-1.6
	c0-0.5-0.1-1-0.3-1.5c-0.1-0.5-0.3-0.9-0.6-1.4c-0.2-0.5-0.5-0.9-0.8-1.3c-0.3-0.4-0.7-0.8-1.1-1.1c-0.4-0.3-0.8-0.5-1.3-0.8
	L215.2,733.9z"/>
<path class="st0" d="M252.3,778.6c-1.3,0.3-2.6,0.3-3.9,0.2c-1.3-0.1-2.6-0.5-3.9-1c-1.2-0.5-2.3-1.1-3.4-1.9
	c-1-0.9-1.9-1.8-2.7-2.9c-0.4-0.5-0.8-1.1-1.1-1.7c-0.3-0.6-0.5-1.2-0.8-1.9c-0.3-0.6-0.5-1.2-0.6-1.9c-0.1-0.7-0.2-1.3-0.3-2
	c-0.1-1.4-0.1-2.8,0.1-4.2c0.2-1.4,0.6-2.8,1.1-4.1c0.5-1.3,1.2-2.5,2-3.6c0.8-1.1,1.8-2.2,2.9-3.1c0.5-0.5,1-0.9,1.6-1.2
	c0.5-0.4,1.1-0.7,1.8-1c0.6-0.3,1.2-0.5,1.8-0.7c0.7-0.2,1.3-0.4,2-0.5c1.1-0.2,2.3-0.3,3.5-0.2c1.1,0.1,2.3,0.3,3.4,0.7
	c1.1,0.3,2.1,0.8,3.1,1.4c1,0.7,1.9,1.4,2.7,2.2c0.3,0.4,0.6,0.8,0.9,1.2c0.3,0.4,0.6,0.8,0.9,1.2s0.5,0.8,0.7,1.3
	c0.2,0.5,0.4,0.9,0.6,1.3c0.2,0.5,0.4,1,0.5,1.5c0.1,0.5,0.2,1,0.3,1.5s0.1,1,0.2,1.5c0,0.5,0,1,0,1.5c0,1.3-0.1,2.5-0.4,3.7
	c-0.3,1.2-0.8,2.4-1.3,3.5c-0.5,1.1-1.1,2.2-1.9,3.2c-0.7,0.9-1.6,1.8-2.5,2.6c-0.5,0.5-1.1,0.9-1.7,1.2c-0.5,0.4-1.1,0.7-1.7,1
	c-0.7,0.3-1.3,0.6-1.9,0.8C253.6,778.4,253,778.5,252.3,778.6L252.3,778.6z M260.1,758.2c-0.4-1.3-1.1-2.4-2-3.4s-2.1-1.8-3.3-2.3
	s-2.6-0.7-3.9-0.6c-1.3,0-2.6,0.4-3.8,1c-1.3,0.7-2.4,1.6-3.4,2.6c-1,1.1-1.7,2.3-2.3,3.6c-0.5,1.4-0.8,2.8-0.8,4.2
	c-0.1,1.4,0.1,2.9,0.6,4.2c0.4,1.3,1.1,2.4,2,3.4s2,1.8,3.2,2.3c1.3,0.5,2.6,0.7,4,0.6c1.3,0,2.6-0.4,3.8-1c1.3-0.7,2.4-1.5,3.4-2.6
	c0.9-1.1,1.7-2.3,2.2-3.6c0.6-1.3,0.9-2.8,0.9-4.2C260.8,761,260.5,759.6,260.1,758.2z"/>
<path class="st1" d="M285.4,772.6C285.4,772.5,285.4,772.5,285.4,772.6c-0.1-0.2-0.1-0.2-0.1-0.3c-0.1,0-0.1,0-0.1,0
	c-0.1-0.1-0.1-0.1-0.2-0.1c-0.1,0-0.1,0-0.1,0c-0.1,0.1-0.1,0.1-0.2,0.1c0,0,0,0-0.1,0.1c0,0.1,0,0.1-0.1,0.1l-5.7,15.9
	c0,0.1-0.1,0.3-0.2,0.4c-0.1,0.1-0.3,0.2-0.4,0.3c-0.1,0.1-0.3,0.1-0.4,0.1c-0.2,0.1-0.4,0.1-0.5,0l-2.4-0.6
	c-0.1-0.1-0.1-0.1-0.2-0.1c-0.1-0.1-0.1-0.1-0.2-0.2c-0.1-0.1-0.1-0.1-0.2-0.2c-0.1-0.1-0.1-0.1-0.2-0.2c0-0.1,0-0.1-0.1-0.2
	c0-0.1,0-0.2,0-0.3c0-0.1,0-0.1,0-0.2c0-0.1,0-0.2,0.1-0.3l9.9-27.5c0-0.1,0-0.1,0.1-0.2c0.1-0.1,0.1-0.1,0.1-0.2
	c0.1-0.1,0.1-0.1,0.2-0.2s0.1-0.1,0.2-0.1c0.1-0.1,0.1-0.1,0.2-0.1c0.1-0.1,0.2-0.1,0.3-0.1c0.1,0,0.1,0,0.2,0s0.1,0,0.2,0.1l1,0.2
	c0.1,0.1,0.3,0.1,0.4,0.2c0.1,0.1,0.1,0.1,0.2,0.2c0.1,0.1,0.2,0.1,0.2,0.2c0.1,0.1,0.1,0.3,0.2,0.4l4.8,19.7c0,0,0,0,0,0.1
	c0,0,0,0,0.1,0.1c0,0,0,0,0.1,0.1c0,0,0,0,0.1,0c0,0,0,0,0.1,0c0,0,0,0,0.1,0s0.1,0,0.1,0c0.1-0.1,0.1-0.1,0.1-0.1l14.1-14.6
	c0.1-0.1,0.2-0.2,0.3-0.2c0.1-0.1,0.2-0.1,0.3-0.2c0.1,0,0.2,0,0.3,0c0.1,0,0.3,0,0.4,0.1l1,0.2c0.1,0.1,0.1,0.1,0.2,0.1
	c0.1,0.1,0.1,0.1,0.2,0.1c0.1,0.1,0.1,0.1,0.2,0.2c0.1,0.1,0.1,0.1,0.1,0.2c0.1,0.1,0.1,0.1,0.1,0.2c0.1,0.1,0.1,0.1,0.1,0.2
	c0,0.1,0,0.2,0.1,0.3c0,0.1,0,0.1-0.1,0.2l-5.4,28.8c0,0.1,0,0.1,0,0.2c-0.1,0.1-0.1,0.1-0.1,0.2c-0.1,0.1-0.1,0.2-0.2,0.2
	c-0.1,0.1-0.1,0.1-0.2,0.2c-0.1,0.1-0.2,0.1-0.3,0.1c-0.1,0.1-0.1,0.1-0.2,0.1c-0.1,0-0.2,0-0.3,0c-0.1,0-0.1,0-0.2-0.1l-2.4-0.6
	c-0.1-0.1-0.3-0.1-0.4-0.2c-0.1-0.1-0.2-0.3-0.3-0.4c-0.1-0.1-0.2-0.3-0.2-0.4c-0.1-0.1-0.1-0.3,0-0.5l3-16.5
	c0.1-0.1,0.1-0.1,0.1-0.2c0,0,0,0-0.1-0.1c0-0.1,0-0.1,0-0.1c-0.1-0.1-0.1-0.1-0.2-0.1c0-0.1,0-0.1-0.1-0.1s-0.1,0-0.2,0
	c0,0,0,0-0.1,0.1c0,0,0,0-0.1,0.1l-11,11.4c-0.1,0.1-0.2,0.1-0.3,0.2c-0.1,0.1-0.2,0.1-0.3,0.1c-0.1,0.1-0.3,0.1-0.4,0.1
	c-0.1,0-0.2,0-0.3-0.1c-0.1,0-0.2,0-0.3-0.1c-0.1-0.1-0.2-0.1-0.3-0.2c-0.1-0.1-0.1-0.2-0.2-0.3c-0.1-0.1-0.1-0.2-0.1-0.3
	L285.4,772.6z"/>
<path class="st1" d="M341,797.9c0.1,0,0.2,0,0.3,0c0.1,0.1,0.1,0.1,0.2,0.2c0.1,0,0.1,0,0.2,0.1s0.1,0.1,0.2,0.2
	c0.1,0.1,0.1,0.1,0.1,0.2c0.1,0.1,0.1,0.2,0.1,0.3c0,0.1,0,0.1,0,0.2c0,0.1,0,0.2,0,0.3l-0.4,2.4c0,0.1,0,0.2,0,0.3
	c-0.1,0.1-0.1,0.1-0.1,0.2c-0.1,0.1-0.1,0.1-0.2,0.2c-0.1,0.1-0.1,0.1-0.2,0.1c-0.1,0.1-0.1,0.1-0.2,0.2c-0.1,0-0.2,0-0.3,0.1
	c-0.1,0-0.1,0-0.2,0c-0.1,0-0.2,0-0.3,0l-17.5-2.7c-0.2-0.1-0.4-0.1-0.5-0.2c-0.1-0.1-0.2-0.3-0.3-0.4c-0.1-0.1-0.2-0.3-0.2-0.4
	c-0.1-0.1-0.1-0.3-0.1-0.5l4.5-28.9c0-0.1,0-0.1,0.1-0.2c0-0.1,0-0.2,0.1-0.3c0-0.1,0-0.1,0.1-0.2s0.1-0.1,0.2-0.1
	c0.1-0.1,0.1-0.1,0.2-0.2c0.1,0,0.2,0,0.3,0c0.1-0.1,0.1-0.1,0.2-0.1s0.1,0,0.2,0l17.6,2.7c0.1,0.1,0.1,0.1,0.2,0.1
	c0.1,0.1,0.2,0.1,0.3,0.1c0.1,0.1,0.1,0.1,0.2,0.2c0.1,0,0.1,0,0.1,0.1c0.1,0.1,0.1,0.2,0.2,0.3c0,0.1,0,0.1,0.1,0.2
	c0,0.1,0,0.2,0,0.3s0,0.1,0,0.2l-0.4,2.5c0,0.1,0,0.1-0.1,0.2c0,0.1,0,0.1-0.1,0.2c0,0.1,0,0.1-0.1,0.2c-0.1,0.1-0.1,0.1-0.2,0.2
	c-0.1,0.1-0.1,0.1-0.2,0.1c-0.1,0.1-0.2,0.1-0.3,0.1c-0.1,0.1-0.1,0.1-0.2,0.1c-0.1,0-0.2,0-0.3-0.1l-12.6-2c-0.1,0-0.1,0-0.2,0
	c-0.1,0-0.2,0-0.3,0.1c-0.1,0-0.1,0-0.2,0c-0.1,0.1-0.1,0.1-0.2,0.2c-0.1,0-0.1,0-0.2,0.1s-0.1,0.1-0.2,0.2c0,0.1,0,0.2-0.1,0.3
	c0,0.1,0,0.1-0.1,0.2l-1,6.3c0,0.1,0,0.2,0,0.3c0,0.1,0,0.1,0.1,0.2c0,0.1,0,0.2,0,0.3c0.1,0.1,0.1,0.1,0.2,0.2
	c0.1,0.1,0.1,0.1,0.2,0.2c0,0.1,0.1,0.1,0.2,0.1c0.1,0.1,0.1,0.1,0.2,0.1c0.1,0.1,0.1,0.1,0.2,0.1l7.2,1.1c0.1,0,0.3,0.1,0.5,0.2
	c0.1,0.1,0.2,0.2,0.3,0.3c0.1,0.1,0.2,0.3,0.2,0.5c0.1,0.1,0.1,0.3,0.1,0.5l-0.4,2.4c0,0.1,0,0.1-0.1,0.2c0,0.1,0,0.2-0.1,0.3
	c0,0.1,0,0.1-0.1,0.2c-0.1,0-0.1,0-0.2,0.1s-0.1,0.1-0.2,0.1c-0.1,0.1-0.2,0.1-0.3,0.1c-0.1,0.1-0.1,0.1-0.2,0.1s-0.2,0-0.3-0.1
	l-7.2-1.1c-0.1,0-0.1,0-0.2,0s-0.1,0-0.2,0.1c-0.1,0-0.2,0-0.3,0c-0.1,0.1-0.1,0.1-0.2,0.2s-0.1,0.1-0.2,0.1
	c-0.1,0.1-0.1,0.1-0.1,0.2c-0.1,0.1-0.1,0.2-0.1,0.3c-0.1,0.1-0.1,0.1-0.1,0.2l-0.8,5.3c0,0.1,0,0.1,0,0.2s0,0.2,0,0.3
	c0,0.1,0,0.1,0.1,0.2s0.1,0.1,0.1,0.2c0.1,0.1,0.1,0.1,0.2,0.2c0.1,0.1,0.1,0.1,0.2,0.1c0.1,0.1,0.1,0.1,0.2,0.1
	c0.1,0.1,0.1,0.1,0.2,0.1L341,797.9z"/>
<path class="st1" d="M391.8,806.2c-0.1,0-0.1,0-0.2,0c-0.1-0.1-0.2-0.1-0.3-0.1c-0.1-0.1-0.1-0.1-0.2-0.1c-0.1-0.1-0.1-0.1-0.2-0.2
	s-0.1-0.1-0.2-0.2c0-0.1,0-0.1-0.1-0.2c0-0.1,0-0.1-0.1-0.2c0-0.1,0-0.2,0-0.3l-0.4-24.3c0-0.1,0-0.1,0-0.2s0-0.2-0.1-0.3
	c0-0.1,0-0.1-0.1-0.2c-0.1-0.1-0.1-0.1-0.2-0.2c-0.1-0.1-0.1-0.1-0.2-0.1c-0.1-0.1-0.1-0.1-0.2-0.1c-0.1-0.1-0.1-0.1-0.2-0.1
	c-0.1,0-0.2,0-0.3,0l-6.2,0.1c-0.1,0-0.1,0-0.2,0c-0.1-0.1-0.2-0.1-0.3-0.1c-0.1-0.1-0.1-0.1-0.2-0.1c-0.1-0.1-0.1-0.1-0.2-0.2
	c-0.1-0.1-0.1-0.1-0.1-0.2c-0.1-0.1-0.1-0.1-0.2-0.2c0-0.1,0-0.1,0-0.2c0-0.1,0-0.2-0.1-0.3v-2.5c0-0.1,0-0.1,0-0.2s0-0.1,0.1-0.2
	c0-0.1,0-0.2,0.1-0.3c0.1-0.1,0.1-0.1,0.1-0.2c0.1-0.1,0.1-0.1,0.2-0.1c0.1-0.1,0.2-0.1,0.3-0.2c0.1,0,0.1,0,0.2,0
	c0.1-0.1,0.2-0.1,0.3-0.1l19.9-0.3c0.1,0,0.1,0,0.2,0c0.1,0.1,0.2,0.1,0.3,0.1c0.1,0,0.1,0,0.2,0.1c0.1,0.1,0.1,0.1,0.2,0.2
	c0.1,0.1,0.1,0.1,0.1,0.2c0.1,0.1,0.1,0.1,0.2,0.2c0,0.1,0,0.1,0,0.2c0.1,0.1,0.1,0.2,0.1,0.3v2.4c0,0.1,0,0.2,0,0.3
	c-0.1,0.1-0.1,0.1-0.1,0.2c-0.1,0.1-0.1,0.2-0.1,0.3c-0.1,0.1-0.1,0.1-0.2,0.2c-0.1,0.1-0.1,0.1-0.2,0.1c-0.1,0.1-0.1,0.1-0.2,0.2
	c-0.1,0-0.1,0-0.2,0c-0.1,0.1-0.2,0.1-0.3,0.1l-6.2,0.1c-0.1,0-0.1,0-0.2,0c-0.1,0-0.2,0-0.3,0.1c-0.1,0-0.1,0-0.2,0.1
	c-0.1,0-0.1,0-0.2,0.1c-0.1,0.1-0.1,0.1-0.1,0.2c-0.1,0.1-0.1,0.2-0.1,0.3c-0.1,0.1-0.1,0.1-0.1,0.2c0,0.1,0,0.1,0,0.2l0.4,24.3
	c0,0.2,0,0.4-0.1,0.5c-0.1,0.2-0.2,0.3-0.3,0.4c-0.1,0.1-0.3,0.2-0.4,0.3c-0.1,0.1-0.3,0.1-0.5,0.1L391.8,806.2z"/>
<path class="st0" d="M440.5,801.4c-0.5,0.4-1.1,0.8-1.6,1.1c-0.6,0.3-1.2,0.6-1.8,0.8c-0.6,0.3-1.2,0.5-1.9,0.7
	c-0.6,0.1-1.2,0.2-1.9,0.3c-0.7,0.1-1.3,0.1-2,0.1c-0.7-0.1-1.3-0.1-2-0.2c-0.6-0.1-1.2-0.3-1.9-0.5c-0.6-0.2-1.2-0.5-1.8-0.8
	c-0.6-0.3-1.2-0.6-1.7-1c-0.6-0.4-1.1-0.8-1.6-1.2c-0.5-0.5-1-1-1.5-1.5c-0.4-0.5-0.8-1-1.2-1.6c-0.8-1.1-1.4-2.4-1.9-3.7
	c-0.5-1.3-0.8-2.7-0.9-4.1c-0.1-1.4-0.1-2.8,0.1-4.2c0.1-1.4,0.5-2.8,1-4.1c0.3-0.6,0.6-1.2,0.9-1.8c0.3-0.6,0.7-1.2,1.1-1.7
	s0.8-1.1,1.3-1.6c0.5-0.5,1-0.9,1.5-1.3c0.9-0.7,1.9-1.3,3-1.8s2.2-0.8,3.3-1c1.1-0.2,2.3-0.3,3.5-0.2c1.1,0.1,2.3,0.4,3.4,0.7
	c0.5,0.2,0.9,0.4,1.3,0.6c0.5,0.2,0.9,0.4,1.4,0.6c0.4,0.3,0.8,0.5,1.2,0.8c0.4,0.3,0.8,0.6,1.2,0.9c0.3,0.4,0.7,0.8,1.1,1.1
	c0.3,0.4,0.6,0.8,0.9,1.2c0.3,0.4,0.6,0.8,0.9,1.2c0.3,0.5,0.5,0.9,0.8,1.3c0.5,1.1,1,2.3,1.3,3.5c0.3,1.2,0.5,2.4,0.6,3.7
	c0.1,1.2,0,2.4-0.2,3.7c-0.3,1.2-0.6,2.4-1.1,3.5c-0.2,0.7-0.5,1.3-0.8,1.9c-0.3,0.6-0.7,1.2-1.1,1.7s-0.9,1-1.4,1.5
	C441.5,800.5,441,800.9,440.5,801.4L440.5,801.4z M437.8,779.7c-1-1-2.1-1.7-3.4-2.1c-1.3-0.5-2.6-0.6-4-0.5
	c-1.3,0.2-2.6,0.6-3.7,1.3c-1.2,0.7-2.2,1.6-2.9,2.7c-0.8,1.2-1.4,2.5-1.8,3.9c-0.3,1.4-0.4,2.8-0.3,4.3c0.2,1.4,0.6,2.8,1.2,4.1
	c0.6,1.2,1.5,2.4,2.5,3.4c1,0.9,2.1,1.6,3.4,2.1c1.3,0.4,2.6,0.6,4,0.4c1.3-0.1,2.6-0.5,3.7-1.2c1.2-0.7,2.2-1.7,2.9-2.8
	c0.8-1.2,1.4-2.5,1.8-3.9c0.3-1.3,0.5-2.8,0.3-4.2c-0.1-1.4-0.5-2.8-1.2-4.1C439.7,781.8,438.8,780.7,437.8,779.7z"/>
<path class="st1" d="M504.2,778.5c0,0.1,0,0.1,0.1,0.1c0,0,0,0,0.1,0c0,0,0,0,0.1,0c0,0,0,0,0.1-0.1c0,0,0,0,0.1-0.1c0,0,0,0,0,0
	c0-0.1,0-0.1,0-0.1c0-0.1,0-0.1,0-0.2l-5.3-18.6c-0.1-0.1-0.1-0.1-0.1-0.2c0-0.1,0-0.2,0-0.3s0-0.1,0.1-0.2c0-0.1,0-0.2,0.1-0.3
	s0.1-0.1,0.1-0.2c0.1-0.1,0.1-0.1,0.2-0.2c0.1,0,0.1,0,0.2-0.1c0.1,0,0.2,0,0.3-0.1l2.3-0.7c0.2,0,0.4,0,0.5,0c0.2,0,0.4,0,0.5,0.1
	c0.1,0.1,0.3,0.3,0.4,0.4c0.1,0.1,0.1,0.3,0.2,0.4l8,28c0,0.1,0,0.2,0,0.3c0.1,0.1,0.1,0.1,0,0.2c0,0.1,0,0.2,0,0.3s0,0.1-0.1,0.2
	c-0.1,0.1-0.1,0.1-0.1,0.2c-0.1,0.1-0.1,0.1-0.2,0.2c-0.1,0.1-0.1,0.1-0.2,0.1c-0.1,0.1-0.2,0.1-0.3,0.1l-1.2,0.4
	c-0.1,0-0.2,0-0.3,0c-0.1,0-0.2,0-0.3,0c-0.1,0-0.1,0-0.2-0.1c-0.1,0-0.2,0-0.3-0.1l-21.3-14.6c0-0.1,0-0.1-0.1-0.1c0,0,0,0-0.1,0
	c0,0,0,0-0.1,0c0,0,0,0-0.1,0.1c0,0,0,0-0.1,0.1l0,0c0,0.1,0,0.1,0,0.1c0,0.1,0,0.1,0,0.1l5.2,18.2c0.1,0.1,0.1,0.3,0,0.5
	c0,0.1,0,0.3-0.1,0.5c-0.1,0.1-0.2,0.2-0.3,0.3c-0.1,0.1-0.3,0.2-0.5,0.3l-2.4,0.6c-0.1,0.1-0.1,0.1-0.2,0.1c-0.1,0-0.2,0-0.3,0
	c-0.1,0-0.1,0-0.2-0.1c-0.1,0-0.2,0-0.3-0.1c-0.1,0-0.1,0-0.2-0.1c-0.1-0.1-0.1-0.1-0.1-0.2c-0.1-0.1-0.1-0.1-0.2-0.2
	c0-0.1,0-0.1-0.1-0.2l-8-28c0-0.2,0-0.4,0-0.5c0-0.2,0-0.4,0.1-0.5c0.1-0.1,0.3-0.3,0.4-0.4c0.1-0.1,0.3-0.1,0.4-0.2l0.9-0.2
	c0.1-0.1,0.1-0.1,0.2-0.1c0.1,0,0.2,0,0.3,0c0.1,0,0.2,0,0.3,0.1c0.1,0,0.1,0,0.2,0.1L504.2,778.5z"/>
<path class="st1" d="M545.3,769.7c0.1,0,0.1,0,0.2,0c0.1-0.1,0.2-0.1,0.3-0.1s0.1,0,0.2,0.1c0.1,0,0.2,0,0.3,0
	c0.1,0.1,0.1,0.1,0.2,0.1c0.1,0.1,0.1,0.1,0.2,0.2c0.1,0.1,0.1,0.1,0.2,0.2c0,0.1,0,0.1,0.1,0.2l0.9,2.3c0.1,0.1,0.1,0.2,0.1,0.3
	c0,0.1,0,0.1,0,0.2c0,0.1,0,0.2,0,0.3c0,0.1,0,0.1-0.1,0.2c0,0.1,0,0.1-0.1,0.2c-0.1,0.1-0.1,0.1-0.2,0.2c-0.1,0.1-0.1,0.1-0.2,0.2
	c-0.1,0.1-0.1,0.1-0.2,0.1l-16.5,6.6c-0.1,0.1-0.1,0.1-0.2,0.1c-0.1,0-0.2,0-0.3,0c-0.1,0-0.1,0-0.2,0c-0.1,0-0.2,0-0.3-0.1
	c-0.1,0-0.1,0-0.2-0.1c-0.1-0.1-0.1-0.1-0.2-0.2c-0.1-0.1-0.1-0.1-0.2-0.2c0-0.1,0-0.1-0.1-0.2l-10.9-27.1c-0.1-0.1-0.1-0.2-0.1-0.3
	c0-0.1,0-0.1,0-0.2s0-0.2,0-0.3c0-0.1,0-0.1,0.1-0.2s0.1-0.1,0.1-0.2c0.1-0.1,0.1-0.1,0.2-0.2c0.1-0.1,0.1-0.1,0.2-0.2
	c0.1,0,0.1,0,0.2-0.1l16.4-6.6c0.1-0.1,0.2-0.1,0.3-0.1s0.1,0,0.2,0c0.1,0,0.2,0,0.3,0s0.1,0,0.2,0.1c0.1,0,0.2,0,0.3,0.1
	s0.1,0.1,0.2,0.2c0.1,0,0.1,0.1,0.1,0.2c0.1,0.1,0.1,0.1,0.1,0.2l1,2.2c0,0.2,0,0.4,0,0.5c0,0.2,0,0.4-0.1,0.5
	c-0.1,0.2-0.2,0.4-0.3,0.5c-0.1,0.1-0.3,0.1-0.4,0.2l-11.8,4.8c-0.1,0-0.1,0-0.2,0.1c-0.1,0.1-0.1,0.1-0.2,0.2s-0.1,0.1-0.2,0.2
	c0,0.1,0,0.1-0.1,0.2c0,0.1,0,0.1-0.1,0.2c0,0.1,0,0.2,0,0.3c0,0.1,0,0.1,0,0.2c0.1,0.1,0.1,0.2,0.1,0.3l2.4,5.9
	c0,0.1,0,0.1,0.1,0.2c0.1,0.1,0.1,0.1,0.2,0.2c0.1,0.1,0.1,0.1,0.2,0.2c0.1,0,0.1,0,0.2,0.1c0.1,0,0.1,0,0.2,0
	c0.1,0.1,0.2,0.1,0.3,0.1c0.1,0,0.2,0,0.3-0.1c0.1,0,0.1,0,0.2,0l6.7-2.8c0.1,0,0.2,0,0.3,0c0.1-0.1,0.1-0.1,0.2-0.1
	c0.1,0,0.2,0,0.3,0.1c0.1,0,0.1,0,0.2,0c0.1,0.1,0.2,0.1,0.3,0.2c0.1,0,0.1,0,0.2,0.1c0.1,0.1,0.1,0.1,0.1,0.2
	c0.1,0.1,0.1,0.1,0.1,0.2l1,2.3c0,0.1,0,0.1,0,0.2c0.1,0.1,0.1,0.2,0.1,0.3s0,0.2-0.1,0.3c0,0.1,0,0.1,0,0.2
	c-0.1,0.1-0.1,0.1-0.2,0.2c0,0.1,0,0.1-0.1,0.2s-0.1,0.1-0.2,0.2c-0.1,0-0.1,0-0.2,0.1l-6.8,2.7c-0.1,0-0.1,0-0.2,0.1
	s-0.1,0.1-0.2,0.2c-0.1,0.1-0.1,0.1-0.1,0.2c-0.1,0.1-0.1,0.1-0.2,0.2c0,0.1,0,0.1,0,0.2c-0.1,0.1-0.1,0.2-0.1,0.3s0,0.1,0.1,0.2
	c0,0.1,0,0.2,0,0.3l2,4.9c0.1,0.2,0.2,0.3,0.3,0.4c0.1,0.1,0.3,0.2,0.4,0.3c0.2,0.1,0.4,0.1,0.5,0.1c0.2,0,0.4,0,0.5-0.1
	L545.3,769.7z"/>
<path class="st1" d="M572,761.7c0,0.1,0,0.2,0,0.3c0,0.1,0,0.3-0.1,0.4c-0.1,0.1-0.2,0.2-0.3,0.3c-0.1,0.1-0.2,0.1-0.3,0.2l-1.4,0.7
	c-0.1,0.1-0.1,0.1-0.2,0.1c-0.1,0.1-0.1,0.1-0.2,0.1c-0.1,0-0.1,0-0.2,0c-0.1,0-0.1,0-0.2,0c-0.1,0-0.1,0-0.2-0.1
	c-0.1,0-0.1,0-0.2-0.1c-0.1,0-0.1,0-0.2-0.1c-0.1-0.1-0.1-0.1-0.2-0.2l-19.7-22.5c0,0,0,0-0.1-0.1c0-0.1,0-0.1-0.1-0.2
	c0-0.1,0-0.1,0-0.2c-0.1-0.1-0.1-0.1-0.1-0.2c0,0,0,0,0-0.1s0-0.1,0-0.2s0-0.1,0.1-0.2c0-0.1,0-0.1,0-0.2c0.1-0.1,0.1-0.1,0.1-0.1
	c0.1-0.1,0.1-0.1,0.2-0.2c0,0,0,0,0.1-0.1c0.1,0,0.1,0,0.2-0.1l2.2-1.2c0,0,0,0,0.1,0c0.1-0.1,0.1-0.1,0.2-0.1c0,0,0,0,0.1,0
	s0.1,0,0.1-0.1c0.1,0,0.1,0,0.2,0c0,0.1,0,0.1,0.1,0.1s0.1,0,0.2,0c0,0,0,0,0.1,0c0,0.1,0,0.1,0.1,0.1c0.1,0,0.1,0,0.1,0.1
	c0.1,0,0.1,0,0.2,0.1c0,0,0,0,0.1,0.1l12.7,14.5c0,0,0,0,0.1,0.1c0,0,0,0,0.1,0.1c0.1,0,0.1,0,0.1,0c0.1,0,0.1,0,0.2-0.1
	c0.1,0,0.1,0,0.1,0c0.1-0.1,0.1-0.1,0.1-0.2c0,0,0,0,0.1-0.1c0-0.1,0-0.1-0.1-0.1l-1.2-15.4c0-0.3,0-0.5,0.1-0.7
	c0.1-0.2,0.3-0.4,0.6-0.5c0.2-0.1,0.4-0.2,0.7-0.2c0.3,0.1,0.5,0.2,0.7,0.3l12.1,9.4c0.1,0,0.1,0,0.2,0.1c0,0,0,0,0.1,0s0.1,0,0.1,0
	c0.1-0.1,0.1-0.1,0.2-0.1c0,0,0,0,0.1-0.1c0-0.1,0-0.1,0-0.1c0.1-0.1,0.1-0.1,0.1-0.2c0,0,0,0,0-0.1l-5.2-18.6c0,0,0,0,0-0.1
	c0,0,0,0,0-0.1c0,0,0,0,0-0.1l0,0c0-0.1,0-0.1,0-0.1c0-0.1,0-0.1,0-0.1c0-0.1,0-0.1,0-0.1s0,0,0-0.1c0.1,0,0.1,0,0.1-0.1l0,0
	c0-0.1,0-0.1,0-0.1s0,0,0.1-0.1c0,0,0,0,0-0.1c0,0,0,0,0.1,0c0-0.1,0-0.1,0-0.1s0,0,0.1-0.1l0,0c0.1,0,0.1,0,0.1-0.1c0,0,0,0,0.1,0
	l0,0l2.3-1.3c0.1,0,0.1,0,0.2,0c0.1-0.1,0.2-0.1,0.3-0.1c0.1,0,0.2,0,0.3,0.1c0.1,0,0.2,0,0.3,0c0.1,0.1,0.1,0.1,0.2,0.2
	c0.1,0.1,0.1,0.1,0.2,0.2s0.1,0.1,0.2,0.2c0.1,0.1,0.1,0.2,0.1,0.3l8,28.8c0,0.1,0,0.1,0,0.2c0.1,0.1,0.1,0.1,0.1,0.2
	c0,0.1,0,0.1-0.1,0.2c0,0.1,0,0.1,0,0.2c-0.1,0.1-0.1,0.1-0.1,0.2c-0.1,0.1-0.1,0.1-0.1,0.2c-0.1,0.1-0.1,0.1-0.2,0.1
	c-0.1,0.1-0.1,0.1-0.2,0.1l-1.4,0.8c-0.1,0.1-0.3,0.1-0.4,0.2c-0.1,0-0.2,0-0.3,0c-0.1,0-0.3,0-0.4-0.1c-0.1,0-0.2-0.1-0.3-0.2
	l-11.1-8.6c-0.2-0.1-0.4-0.2-0.7-0.2c-0.3,0-0.5,0-0.7,0.1c-0.2,0.1-0.4,0.3-0.5,0.5c-0.1,0.3-0.2,0.5-0.2,0.7L572,761.7z"/>
<path class="st1" d="M624.2,705.1C624.3,705.2,624.3,705.2,624.2,705.1c0.2,0.1,0.2,0.1,0.2,0.1c0.1,0,0.1,0,0.2-0.1c0,0,0,0,0.1,0
	c0-0.1,0-0.1,0-0.1c0.1-0.1,0.1-0.1,0.1-0.1c0-0.1,0-0.1,0-0.1c0-0.1,0-0.1,0-0.2l-2.1-12.8c0-0.1,0-0.2,0-0.3c0-0.1,0-0.2,0.1-0.3
	c0-0.1,0-0.2,0.1-0.3s0.2-0.1,0.3-0.2l2.2-1.8c0.1-0.1,0.1-0.1,0.2-0.2c0.1,0,0.3,0,0.4-0.1c0.1,0,0.2,0,0.3,0s0.2,0,0.3,0.1
	c0.1,0,0.2,0,0.3,0.1c0.1,0.1,0.2,0.2,0.3,0.3c0.1,0.1,0.1,0.2,0.1,0.3c0.1,0.1,0.1,0.2,0.1,0.3l3,17.8c0.1,0.2,0.1,0.4,0.1,0.5
	c0.1,0.1,0.1,0.3,0.2,0.4c0.1,0.1,0.1,0.3,0.2,0.4s0.1,0.3,0.2,0.4l7,8.7c0.1,0.1,0.1,0.1,0.2,0.2c0,0.1,0,0.2,0.1,0.3
	c0,0.1,0,0.1,0,0.2c0,0.1,0,0.2,0,0.3s0,0.1-0.1,0.2c0,0.1,0,0.2,0,0.3c-0.1,0.1-0.1,0.1-0.2,0.2c-0.1,0.1-0.1,0.1-0.2,0.1l-1.9,1.5
	c-0.1,0.1-0.1,0.1-0.2,0.1c-0.1,0.1-0.1,0.1-0.2,0.1c-0.1,0.1-0.2,0.1-0.3,0.1s-0.1,0-0.2,0c-0.1,0-0.2,0-0.3-0.1
	c-0.1,0-0.1,0-0.2-0.1c-0.1,0-0.1,0-0.2-0.1c-0.1-0.1-0.1-0.1-0.2-0.2l-7-8.8c-0.1-0.1-0.2-0.2-0.3-0.3c-0.1-0.1-0.2-0.2-0.3-0.3
	c-0.1-0.1-0.3-0.1-0.4-0.2c-0.1-0.1-0.3-0.1-0.4-0.2l-16.8-6.8c-0.1-0.1-0.1-0.1-0.2-0.1c0,0,0,0-0.1-0.1c-0.1,0-0.1,0-0.1-0.1
	c-0.1,0-0.1,0-0.1-0.1c-0.1-0.1-0.1-0.1-0.1-0.2c0,0,0,0-0.1-0.1c0-0.1,0-0.1,0-0.1c0-0.1,0-0.1-0.1-0.2c0-0.1,0-0.1,0-0.2
	c0,0,0,0,0-0.1c0-0.1,0-0.1,0-0.2s0-0.1,0-0.1c0.1-0.1,0.1-0.1,0.1-0.2c0.1-0.1,0.1-0.1,0.1-0.1c0.1-0.1,0.1-0.1,0.1-0.2
	c0.1,0,0.1,0,0.1-0.1l2.2-1.7c0.1-0.1,0.2-0.1,0.3-0.2c0.1-0.1,0.2-0.1,0.3-0.1c0.1,0,0.3,0,0.4,0c0.1,0,0.2,0,0.3,0.1L624.2,705.1z
	"/>
<path class="st0" d="M671.7,686.5c-0.3,1.3-0.7,2.5-1.4,3.6c-0.7,1.2-1.5,2.3-2.4,3.2s-2,1.7-3.2,2.3c-1.1,0.7-2.4,1.1-3.7,1.4
	c-0.6,0.1-1.3,0.2-2,0.3c-0.7,0.1-1.3,0.1-2,0c-0.7,0-1.3-0.1-2-0.2c-0.7-0.1-1.3-0.3-2-0.5c-1.3-0.4-2.6-1-3.8-1.7
	c-1.2-0.7-2.3-1.6-3.3-2.6s-1.8-2.1-2.5-3.4c-0.7-1.2-1.3-2.5-1.7-3.8c-0.2-0.7-0.4-1.3-0.5-2c-0.1-0.7-0.2-1.3-0.2-2s0-1.3,0.1-2
	s0.2-1.3,0.3-2c0.3-1.1,0.7-2.2,1.2-3.3c0.5-1,1.2-1.9,2-2.8c0.7-0.9,1.6-1.6,2.6-2.3c0.9-0.7,2-1.2,3.1-1.6
	c0.5-0.2,0.9-0.3,1.4-0.4c0.5-0.1,0.9-0.2,1.4-0.3c0.5-0.1,1-0.2,1.5-0.2s1,0,1.5,0c0.5,0,1,0,1.5,0.1c0.5,0.1,1,0.2,1.5,0.3
	c0.5,0.1,0.9,0.3,1.4,0.5c0.5,0.1,1,0.3,1.5,0.5c0.5,0.3,0.9,0.5,1.4,0.8c0.5,0.2,0.9,0.5,1.4,0.8c0.4,0.3,0.8,0.7,1.2,1
	c0.4,0.3,0.8,0.7,1.2,1.1c0.5,0.5,1,1,1.4,1.5c0.5,0.6,0.9,1.2,1.2,1.8c0.3,0.6,0.7,1.2,1,1.9c0.3,0.6,0.5,1.2,0.7,1.9
	c0.2,0.7,0.3,1.3,0.4,2c0.1,0.7,0.2,1.3,0.2,2c0.1,0.7,0.1,1.4,0,2.1C672,685.2,671.9,685.8,671.7,686.5L671.7,686.5z M656,671.2
	c-1.3-0.1-2.6,0.1-3.9,0.5c-1.2,0.5-2.4,1.2-3.3,2.1c-1,1-1.7,2.1-2.2,3.4c-0.5,1.2-0.7,2.6-0.6,3.9c0.2,1.4,0.5,2.8,1.1,4.1
	s1.4,2.5,2.4,3.5c1,1.1,2.2,1.9,3.5,2.5s2.7,1,4.1,1.1c1.3,0.1,2.7,0,3.9-0.5c1.3-0.4,2.5-1.2,3.4-2.1c1-0.9,1.7-2.1,2.2-3.3
	c0.4-1.3,0.6-2.6,0.5-4s-0.4-2.8-1-4.1s-1.4-2.5-2.4-3.5s-2.2-1.9-3.5-2.5C658.9,671.7,657.5,671.3,656,671.2L656,671.2z"/>
<path class="st0" d="M687.9,663.6l3.1,2.5c0.1,0.1,0.1,0.1,0.2,0.2c0.1,0.1,0.1,0.1,0.1,0.2c0.1,0.1,0.1,0.1,0.1,0.2
	c0.1,0.1,0.1,0.2,0.1,0.3s0,0.1,0,0.2c0,0.1,0,0.2-0.1,0.3c0,0.1,0,0.1-0.1,0.2c0,0.1,0,0.1-0.1,0.2l-1.6,1.9
	c-0.1,0.1-0.1,0.1-0.2,0.2c-0.1,0.1-0.1,0.1-0.2,0.2c-0.1,0-0.1,0-0.2,0.1c-0.1,0-0.1,0-0.2,0c-0.1,0-0.2,0-0.3,0s-0.1,0-0.2-0.1
	c-0.1,0-0.2,0-0.3-0.1c-0.1,0-0.1,0-0.2-0.1l-22.7-18.6c-0.1-0.1-0.1-0.1-0.1-0.2c-0.1-0.1-0.1-0.1-0.2-0.2c0-0.1,0-0.1-0.1-0.2
	c0-0.1,0-0.1,0-0.2c0-0.1,0-0.2,0-0.3s0-0.1,0-0.2c0.1-0.1,0.1-0.2,0.1-0.3c0.1-0.1,0.1-0.1,0.2-0.2l5.1-6.3
	c0.5-0.6,1.1-1.2,1.7-1.7c0.7-0.5,1.4-1,2.1-1.4c0.7-0.4,1.5-0.7,2.3-1s1.6-0.4,2.4-0.5c1.3-0.1,2.6-0.1,3.9,0.1
	c1.3,0.3,2.5,0.7,3.6,1.3c1.1,0.7,2.2,1.5,3.1,2.4c0.9,0.9,1.6,2,2.2,3.1c0.2,0.5,0.4,0.9,0.5,1.3c0.2,0.5,0.3,0.9,0.4,1.3
	c0.1,0.5,0.2,0.9,0.3,1.4c0.1,0.5,0.1,0.9,0.1,1.3c0,0.1,0,0.2,0,0.3s0,0.1,0.1,0.2c0,0.1,0,0.1,0.1,0.2s0.1,0.1,0.1,0.2
	c0.1,0.1,0.1,0.1,0.2,0.1c0.1,0.1,0.1,0.1,0.2,0.1c0.1,0.1,0.1,0.1,0.2,0.1c0.1,0.1,0.1,0.1,0.2,0.1l6.9,0.9c0.1,0,0.2,0,0.3,0.1
	c0.1,0,0.2,0,0.3,0.1c0.1,0.1,0.1,0.2,0.2,0.3c0.1,0.1,0.1,0.2,0.2,0.3c0,0.1,0,0.2,0.1,0.3c0,0.1,0,0.2,0,0.3
	c-0.1,0.1-0.1,0.3-0.1,0.4c-0.1,0.1-0.1,0.1-0.2,0.2l-1.9,2.3c-0.1,0.1-0.1,0.1-0.2,0.2c-0.1,0.1-0.2,0.1-0.3,0.2
	c-0.1,0-0.2,0-0.3,0.1c-0.1,0-0.2,0-0.3,0l-6.3-0.9c-0.1,0-0.2,0-0.3,0c-0.1,0-0.3,0-0.4,0.1c-0.1,0.1-0.2,0.1-0.3,0.2
	c-0.1,0.1-0.2,0.2-0.2,0.3c-0.1,0.2-0.2,0.4-0.3,0.5s-0.2,0.3-0.3,0.4c-0.1,0.1-0.2,0.3-0.3,0.4c-0.1,0.1-0.2,0.3-0.3,0.4l-2,2.5
	c-0.1,0.1-0.1,0.1-0.2,0.2c0,0.1,0,0.2-0.1,0.3c0,0.1,0,0.1,0,0.2s0,0.1,0,0.2c0,0.1,0,0.2,0,0.3c0.1,0.1,0.1,0.1,0.1,0.2
	c0.1,0.1,0.1,0.2,0.2,0.3C687.8,663.6,687.8,663.6,687.9,663.6L687.9,663.6z M672,649c-0.1,0.1-0.1,0.2-0.2,0.3c0,0.1,0,0.2-0.1,0.3
	c0,0.1,0,0.2,0,0.3c0,0.1,0,0.2,0.1,0.3c0,0.1,0,0.1,0.1,0.2c0,0.1,0,0.1,0,0.1c0.1,0.1,0.1,0.1,0.2,0.2c0,0,0,0,0.1,0.1l9.9,8.1
	c0.1,0.1,0.1,0.1,0.2,0.1c0.1,0.1,0.1,0.1,0.2,0.1c0.1,0.1,0.2,0.1,0.3,0.1c0.1,0,0.1,0,0.2-0.1c0.1,0,0.1,0,0.2,0
	c0.1,0,0.2,0,0.3-0.1c0.1,0,0.1,0,0.2-0.1c0.1-0.1,0.1-0.1,0.2-0.2l2-2.5c0.3-0.4,0.6-0.8,0.9-1.2c0.2-0.5,0.4-0.9,0.6-1.4
	c0.1-0.5,0.2-1,0.2-1.5c0.1-0.5,0.1-1,0-1.5c0-0.5-0.1-0.9-0.2-1.4c-0.1-0.5-0.3-1-0.6-1.5c-0.2-0.4-0.5-0.8-0.8-1.2
	c-0.3-0.4-0.6-0.8-1-1.1c-0.4-0.3-0.8-0.6-1.3-0.9c-0.4-0.2-0.9-0.4-1.4-0.6c-0.5-0.1-1-0.2-1.5-0.2c-0.5-0.1-1-0.1-1.5,0
	c-0.5,0-1,0.1-1.5,0.3c-0.5,0.1-0.9,0.3-1.4,0.6c-0.5,0.2-0.9,0.5-1.3,0.8c-0.4,0.3-0.8,0.7-1.1,1.1L672,649z"/>
<path class="st1" d="M706.4,630.9c0,0.1,0,0.1,0.1,0.2c0,0.1,0,0.1,0.1,0.2c0.1,0.1,0.1,0.1,0.1,0.1c0.1,0.1,0.1,0.1,0.2,0.2
	l6.9,4.6c0.1,0,0.1,0,0.1,0.1c0.1,0,0.1,0,0.2,0.1c0,0.1,0,0.1,0.1,0.1c0,0.1,0,0.1,0.1,0.2c0,0.1,0,0.1,0,0.1
	c0.1,0.1,0.1,0.1,0.1,0.2s0,0.1,0,0.2c0,0,0,0,0,0.1s0,0.1,0,0.2c-0.1,0.1-0.1,0.1-0.1,0.2c0,0,0,0-0.1,0.1c0,0.1,0,0.1-0.1,0.1
	l-1.3,2c-0.1,0.1-0.1,0.2-0.2,0.2c-0.1,0.1-0.1,0.1-0.2,0.2c-0.1,0.1-0.1,0.1-0.2,0.1c-0.1,0.1-0.1,0.1-0.2,0.1c-0.1,0-0.2,0-0.3,0
	c-0.1,0-0.1,0-0.2,0c-0.1,0-0.2,0-0.3-0.1c-0.1,0-0.1,0-0.2-0.1l-24.2-16.2c-0.1-0.1-0.1-0.1-0.2-0.2c-0.1-0.1-0.1-0.1-0.2-0.2
	c-0.1-0.1-0.1-0.1-0.1-0.2c-0.1-0.1-0.1-0.1-0.1-0.2c0-0.1,0-0.2,0-0.3s0-0.1,0-0.2c0-0.1,0-0.2,0.1-0.3c0-0.1,0-0.1,0.1-0.2l1.4-2
	c0-0.1,0-0.1,0.1-0.1c0-0.1,0-0.1,0.1-0.1c0.1-0.1,0.1-0.1,0.1-0.1c0.1-0.1,0.1-0.1,0.2-0.1c0-0.1,0-0.1,0.1-0.1s0.1,0,0.2,0
	c0.1-0.1,0.1-0.1,0.1-0.1c0.1,0,0.1,0,0.2,0s0.1,0,0.2,0.1c0.1,0,0.1,0,0.1,0c0.1,0,0.1,0,0.2,0.1c0.1,0,0.1,0,0.1,0.1l7.6,5.1
	c0.3,0.1,0.5,0.2,0.8,0.2c0.3-0.1,0.5-0.2,0.7-0.3c0.2-0.1,0.4-0.3,0.5-0.6c0.1-0.3,0.1-0.5,0-0.8l-3.9-13.5
	c-0.1-0.1-0.1-0.2-0.1-0.3c0-0.1,0-0.2,0-0.3c0-0.1,0-0.1,0.1-0.2c0.1-0.1,0.1-0.2,0.1-0.3l1.8-2.6c0.1-0.1,0.1-0.2,0.2-0.3
	c0.1-0.1,0.2-0.1,0.3-0.2c0.1-0.1,0.3-0.1,0.4-0.1s0.2,0,0.3,0c0.1,0,0.3,0,0.4,0.1c0.1,0.1,0.2,0.1,0.3,0.2s0.1,0.2,0.2,0.3
	c0.1,0.1,0.1,0.2,0.1,0.3l4.4,15.3c0.1,0.1,0.1,0.1,0.1,0.2c0.1,0.1,0.1,0.1,0.1,0.2c0.1,0.1,0.1,0.1,0.2,0.2c0.1,0,0.1,0,0.2,0.1
	s0.1,0.1,0.2,0.1s0.1,0,0.2,0.1c0.1,0,0.1,0,0.2,0s0.1,0,0.2,0L723,621c0.1,0,0.3,0,0.4,0c0.1,0,0.2,0,0.3,0.1s0.2,0.1,0.3,0.2
	c0.1,0.1,0.1,0.2,0.2,0.3c0.1,0.1,0.1,0.2,0.2,0.3c0,0.1,0,0.3,0,0.4s0,0.3,0,0.4c-0.1,0.1-0.1,0.2-0.2,0.3l-1.7,2.6
	c-0.1,0.1-0.1,0.2-0.2,0.3c-0.1,0.1-0.1,0.1-0.2,0.1c-0.1,0.1-0.2,0.1-0.3,0.2c-0.1,0-0.2,0-0.3,0l-14.4,1.6c-0.1,0-0.1,0-0.2,0
	c-0.1,0-0.2,0-0.3,0.1s-0.1,0.1-0.2,0.2c-0.1,0.1-0.1,0.1-0.2,0.2c-0.1,0.1-0.1,0.1-0.1,0.2c-0.1,0.1-0.1,0.2-0.1,0.3
	c0,0.1,0,0.2,0,0.3s0,0.2,0,0.3L706.4,630.9z"/>
<path class="st1" d="M621.6,576.9c7.9,3,11.9,7.2,11.9,12.6s-3.8,8.1-11.5,8.1c-6.2,0-10.6-1.8-13.3-5.3v-0.7l0.7-0.7h0.3
	c3.5,2.6,6.6,3.9,9.5,3.9h1.4c5.7,0,9-1.9,9.8-5.6c0-5.3-5.5-8.6-16.5-9.8h-4.5c-1.1,0-2.1,0.1-3.2,0.2c-1.1,0.1-2.1,0.2-3.1,0.4
	c-1.1,0.1-2.1,0.3-3.2,0.5c-1.1,0.2-2.1,0.4-3.1,0.6c-33.9,11-54.9,16.5-63,16.5h-2.1c-7.1,0-12.9-2.1-17.5-6.3h-0.7v0.7
	c-1.3,1.1-2.8,2.1-4.3,3c-1.5,0.9-3,1.6-4.7,2.2c-1.7,0.6-3.4,1.1-5.1,1.4c-1.7,0.3-3.5,0.4-5.2,0.4h-1.8l-5.3-1.1
	c-7.7-2.7-13-6.7-16.1-12.2h0.4l0.3-0.4c1.5,1.3,3,2.5,4.7,3.5c1.7,1.1,3.4,1.9,5.2,2.6c1.9,0.7,3.8,1.2,5.7,1.5
	c1.9,0.3,3.9,0.5,5.8,0.5h1.7c7.5,0,13.2-1.9,17.2-5.6c-1.1-2.6-1.7-4.4-1.7-5.3v-0.3c0.4-3.3,1.7-4.9,3.8-4.9
	c2.7,0,4.3,1.6,4.6,4.9v0.7c0,0.4-0.1,0.8-0.2,1.3c-0.1,0.5-0.2,0.9-0.4,1.3c-0.3,0.4-0.5,0.8-0.8,1.1c-0.3,0.3-0.7,0.6-1.1,0.8
	c0,2.7,4.8,4.8,14.4,6.3c2.1-0.3,4.3-0.7,6.4-1.2c2.1-0.5,4.2-1,6.3-1.5c2.1-0.5,4.2-1.1,6.3-1.7c2.1-0.6,4.1-1.2,6.2-1.9
	c23.9-7.9,41.1-11.9,51.8-11.9h3.9c0.9,0,1.7,0,2.5,0.1c0.9,0.1,1.7,0.2,2.6,0.3c0.9,0.1,1.7,0.3,2.5,0.4
	C620,576.5,620.8,576.7,621.6,576.9L621.6,576.9z"/>
<path class="st1" d="M190.3,575.5h3.9c10.7,0,27.9,4,51.8,11.9c2.1,0.7,4.2,1.3,6.3,1.9c2.1,0.6,4.1,1.2,6.2,1.7
	c2.1,0.5,4.3,1,6.4,1.5c2.1,0.5,4.2,0.9,6.3,1.2c9.6-1.5,14.4-3.6,14.4-6.3c-0.4-0.2-0.8-0.5-1.1-0.8c-0.3-0.3-0.5-0.7-0.7-1.1
	c-0.3-0.4-0.4-0.8-0.5-1.3c-0.1-0.5-0.2-0.9-0.1-1.3v-0.7c0.3-3.3,1.8-4.9,4.5-4.9c2.1,0,3.4,1.6,3.9,4.9v0.3c0,0.9-0.6,2.7-1.8,5.3
	c4,3.7,9.7,5.6,17.2,5.6h1.7c2,0,4-0.2,5.9-0.5c1.9-0.3,3.7-0.8,5.6-1.5c1.8-0.7,3.5-1.5,5.2-2.6c1.7-1,3.2-2.2,4.7-3.5l0.3,0.4h0.4
	c-3.1,5.5-8.4,9.5-16.1,12.2l-5.3,1.1h-1.7c-1.7,0-3.5-0.1-5.2-0.4c-1.7-0.3-3.4-0.8-5.1-1.4s-3.2-1.3-4.7-2.2c-1.5-0.9-3-1.9-4.3-3
	v-0.7h-0.7c-4.6,4.2-10.4,6.3-17.5,6.3h-2.1c-8.2,0-29.2-5.5-63-16.5c-1.1-0.2-2.1-0.4-3.1-0.6c-1.1-0.2-2.1-0.4-3.2-0.5
	c-1-0.1-2-0.3-3.1-0.4c-1.1-0.1-2.1-0.1-3.2-0.2h-4.6c-11,1.2-16.5,4.5-16.5,9.8c0.9,3.7,4.1,5.6,9.8,5.6h1.4c2.9,0,6-1.3,9.5-3.9
	h0.3l0.7,0.7v0.7c-2.7,3.5-7.1,5.3-13.3,5.3c-7.7,0-11.5-2.7-11.5-8.1c0-5.3,4-9.5,11.9-12.6c0.8-0.2,1.6-0.4,2.5-0.6
	c0.8-0.1,1.6-0.3,2.5-0.4s1.7-0.2,2.6-0.3S189.5,575.5,190.3,575.5L190.3,575.5z"/>
<path class="st1" d="M372.4,119.8l-7.3,7.1l1.8,10l-9-4.7l-9,4.7l1.7-10l-7.3-7.1l10-1.4l4.5-9.1l4.5,9.1L372.4,119.8z M408.6,119.8
	l-7.2,7l1.7,10l-9-4.7l-9,4.7l1.7-10l-7.3-7l10-1.5l4.5-9l4.4,9L408.6,119.8z M437.5,126.9l1.7,10l-8.9-4.7l-9,4.7l1.7-10l-7.3-7.1
	l10-1.4l4.5-9.1l4.5,9.1l10,1.4L437.5,126.9z"/>
<path class="st1" d="M414.6,576.7L402.3,589l31.2,31.1l-5.1,5.1l-31.1-31.1l-31.2,31.1l-5.1-5.1l28.6-28.7
	c-6.8-3.1-14.7-8.6-22.1-16.1c-10.8-10.8-17.7-22.5-18.7-30.5c0-0.3-0.1-0.6-0.1-0.9c0-0.7,0.3-1.3,0.7-1.9c0.4-0.6,0.9-1,1.6-1.3
	c0.6-0.2,1.3-0.3,2-0.2c0.7,0.2,1.3,0.5,1.8,0.9l0.1,0.1l0.1,0.2l42.2,42.1l12.3-12.3l-1.7-1.7c-0.3-0.3-0.6-0.8-0.8-1.3
	c-0.2-0.5-0.3-1-0.3-1.5c0-0.5,0.1-1,0.3-1.5c0.2-0.5,0.5-1,0.8-1.4l27.9-27.8c0.4-0.3,0.9-0.5,1.4-0.4c0.5,0,1,0.2,1.4,0.6
	c0.4,0.4,0.6,0.9,0.6,1.4c0.1,0.5-0.1,1-0.4,1.4L419,559l2.6,2.6l19.7-19.6c0.4-0.5,1-0.8,1.5-0.8c0.6,0,1.2,0.2,1.7,0.6
	c0.4,0.4,0.6,1,0.6,1.6c-0.1,0.6-0.3,1.2-0.8,1.6l-19.7,19.6l2.6,2.6l19.7-19.7c0.4-0.3,0.9-0.4,1.4-0.4s1,0.3,1.4,0.6
	c0.4,0.4,0.6,0.9,0.6,1.4c0.1,0.5-0.1,1-0.4,1.4L422,578.4c-0.3,0.3-0.8,0.6-1.3,0.8c-0.5,0.2-1,0.3-1.5,0.3s-1-0.1-1.5-0.3
	c-0.5-0.2-1-0.5-1.4-0.8L414.6,576.7z"/>
<path class="st1" d="M372.5,280.1c-22.2-6-18.1-32.3-18.1-32.3c30,15.4,48.8,3,48.8-14.3c0-11.1-13.6-22.4-33.2-22.4
	c-39.6,0-78.3,43.3-88.4,108.2l-24.2,157.4H223c-14.1,0-20.9-6.3-22.7-18.4C196,431.6,187,370,180.9,331.4c-4.3-27.7-9.8-34-9.8-34
	h39l20.1,155.1L244.3,341c9.1-71.8,43.3-140.7,132.2-140.7C452.5,200.3,438.6,297.8,372.5,280.1z"/>
<path class="st1" d="M299.2,297.4H338v179.3h-34.2V331.4C303.8,303.2,299.2,297.4,299.2,297.4L299.2,297.4z"/>
<path class="st1" d="M467.4,297.4v179.3h-34.2v-61.9l-40.3-64.2v126.1h-34.3V331.4c0-28.2-4.5-34-4.5-34h38.8l40.3,64.2v-64.2
	L467.4,297.4z"/>
<path class="st1" d="M479.5,297.4h85.3l-4,26.2h-22.4v153.1h-34.3V323.6h-20.6L479.5,297.4L479.5,297.4z"/>
<path class="st0" d="M756.6,511.4c0,0-9,37-50.3,29.2c-60.2-11.3-82.6-102.2-85.8-118h-9.9v54.1h-34.2V331.2c0-28-4.5-33.8-4.5-33.8
	h57.6c32.5,0,47.3,16.7,47.3,45.1v35c0,22.2-9,37.3-28.2,42.6C648.6,420,670.3,522.5,756.6,511.4L756.6,511.4z M610.6,396.4h18.9
	c5.8,0,13.1-1.5,13.1-11.8v-49.4c0-10.1-7.3-11.6-13.1-11.6h-18.9V396.4z"/>
<path class="st0" d="M801.2,357.4V419c0,38.8-22.1,59.7-54.6,59.7S692,457.8,692,419v-61.6c0-39,22.2-60,54.6-60
	C779.1,297.4,801.2,318.3,801.2,357.4z M767,357.4c0-24.7-10.1-33.8-20.2-33.8c-10.5,0-20.6,9.1-20.6,33.8V419
	c0,24.4,10.1,33.5,20.6,33.5c10.1,0,20.2-9.1,20.2-33.5V357.4z"/>
<path class="st1" d="M121.9,436.9c6.6,21.8-8.2,39.8-28.1,39.8C63.2,476.7,63.6,464,0,464l28.5-135c5.7-26.2,2.6-31.6,2.6-31.6h36
	L36.3,442.3C66,447,98.5,455.4,121.9,436.9L121.9,436.9z M86.6,297.4h69.5l-5.9,26.9c0,0-3.5-5.8-15.7-5.8H113l-6.8,31.4h30.7
	l-4.5,21h-30.6l-6.6,31.4h21.6c12.1,0,18.2-5.9,18.2-5.9l-5.8,26.9h-66l21-99C89.2,302.1,86.6,297.4,86.6,297.4z"/>
</svg>
