<svg xmlns="http://www.w3.org/2000/svg" viewBox="0 0 1111.9 473.85"><defs><style>.cls-1{fill:#04040c;}</style></defs><g id="Layer_2" data-name="Layer 2"><g id="Layer_1-2" data-name="Layer 1"><path class="cls-1" d="M516.94,110.75C486.15,102.52,491.78,66,491.78,66c41.58,21.31,67.78,4.19,67.78-19.91,0-15.38-18.87-31.1-46.12-31.1-54.85,0-108.65,60.1-122.63,150.23L357.27,383.61H309.41c-19.57,0-29-8.73-31.45-25.5-5.94-37-18.51-122.63-26.9-176.09-5.94-38.43-13.62-47.16-13.62-47.16h54.15l28,215.21L339.1,195.3C351.68,95.73,399.2,0,522.53,0,628,0,608.7,135.3,516.94,110.75Z"/><path class="cls-1" d="M415.26,134.86h53.81V383.61H421.55V182C421.55,142.89,415.26,134.86,415.26,134.86Z"/><path class="cls-1" d="M648.64,134.86V383.61H601.12V297.67l-55.9-89.09v175H497.71V182c0-39.13-6.29-47.16-6.29-47.16h53.8L601.12,224V134.86Z"/><polygon class="cls-1" points="665.4 134.86 783.84 134.86 778.25 171.19 747.16 171.19 747.16 383.61 699.64 383.61 699.64 171.19 670.99 171.19 665.4 134.86"/><path class="cls-1" d="M1050.06,431.83s-12.58,51.35-69.88,40.52c-83.5-15.72-114.59-141.84-119.13-163.85H847.42v75.11H799.91V181.67c0-38.78-6.29-46.81-6.29-46.81h80c45.06,0,65.68,23.06,65.68,62.54V246c0,30.74-12.58,51.71-39.13,59C900.18,305,930.22,447.2,1050.06,431.83ZM847.42,272.16h26.21c8,0,18.16-2.09,18.16-16.42V187.26c0-14-10.13-16.07-18.16-16.07H847.42Z"/><path class="cls-1" d="M1111.9,218v85.6c0,53.8-30.75,82.8-75.82,82.8s-75.81-29-75.81-82.8V218c0-54.15,30.74-83.15,75.81-83.15S1111.9,163.86,1111.9,218Zm-47.52,0c0-34.24-14-46.82-28-46.82-14.67,0-28.65,12.58-28.65,46.82v85.6c0,33.89,14,46.46,28.65,46.46,14,0,28-12.57,28-46.46Z"/><path class="cls-1" d="M169.19,328.41c9.1,30.2-11.36,55.2-39,55.2-42.54,0-41.89-17.53-130.22-17.53L39.62,178.7c7.79-36.37,3.57-43.84,3.57-43.84h50l-42.86,201C91.58,342.37,136.72,354.06,169.19,328.41Zm-49-193.55h96.45l-8.12,37.34s-4.87-8.11-21.76-8.11H156.85l-9.42,43.51H190l-6.17,29.23H141.26l-9.09,43.51h29.88c16.89,0,25.33-8.11,25.33-8.11l-8.12,37.34H87.68L116.91,172.2C123.73,141.35,120.16,134.86,120.16,134.86Z"/></g></g></svg>